<?xml version="1.0" encoding="UTF-8" standalone="no"?>
<svg
   xmlns:dc="http://purl.org/dc/elements/1.1/"
   xmlns:cc="http://creativecommons.org/ns#"
   xmlns:rdf="http://www.w3.org/1999/02/22-rdf-syntax-ns#"
   xmlns:svg="http://www.w3.org/2000/svg"
   xmlns="http://www.w3.org/2000/svg"
   viewBox="0 0 644.58667 495.29333"
   height="495.29333"
   width="644.58667"
   xml:space="preserve"
   version="1.1"
   id="svg2"><metadata
     id="metadata8"><rdf:RDF><cc:Work
         rdf:about=""><dc:format>image/svg+xml</dc:format><dc:type
           rdf:resource="http://purl.org/dc/dcmitype/StillImage" /></cc:Work></rdf:RDF></metadata><defs
     id="defs6" /><g
     transform="matrix(1.3333333,0,0,-1.3333333,0,495.29333)"
     id="g10"><g
       transform="scale(0.1)"
       id="g12"><path
         id="path14"
         style="fill:#ffffff;fill-opacity:1;fill-rule:nonzero;stroke:none"
         d="m 4651.16,1245.27 c -14.79,39.34 -82.68,218.95 -140.5,217.87 -28.7,-0.54 -238.27,-47.98 -243.34,-35.35 -76,189.71 -152.01,379.4 -228.03,569.09 -15.34,38.3 -30.71,76.61 -46.05,114.92 -12.26,30.62 -15.92,25.7 1.3,49.2 45.28,61.76 -49.6,88.68 -92.22,93.25 -59.76,6.42 -1.42,125.52 -11.46,167.19 -21.59,89.57 -84.65,181.45 -124.12,264.26 -18.24,38.29 -36.5,76.6 -54.73,114.89 -14.72,30.86 -137.69,-39.27 -161.09,-56.37 -9.79,40.93 -64.04,-4.04 -85.08,34.89 -19.23,35.58 -46.75,66.84 -69.8,100.89 -54.64,81.02 -115.71,157.95 -181.32,230.33 -175.13,195.28 -388.73,356.33 -629,462.32 C 1947.37,3848.89 1170.45,3638.61 654.758,3203.34 264.863,2874.26 9.23828,2394.12 15.0977,1877.86 19.9023,1455.31 120.23,1028.69 349.641,672.266 c -3.172,-4.727 -5.586,-8.809 -5.914,-10.821 -0.055,-0.332 0.066,-1.035 0.273,-1.972 -45.855,-92.168 16.758,-164.961 60.43,-246.953 11.14,-20.899 39.433,-56.504 37.48,-81.7 -4.555,-59.101 -14.008,-113.613 32.801,-160.664 116.348,-141.9333 440.187,45.43 578.899,106.543 0.01,0 0.1,-0.039 0.1,-0.039 l 24.74,10.195 c 28.83,-15.234 56.92,-31.523 84.26,-45.625 108.75,-56.113 219.31,-104.453 335.25,-143.7495 225.6,-76.4844 448.46,-116.3477 681.96,-45.6836 147.52,44.6289 268.49,125.2731 362.37,246.5431 13.09,16.953 136.35,-7.266 162.65,-8.223 61.19,-2.246 122.67,-0.722 183.49,6.778 113.43,14.003 219.88,51.855 311.77,120.742 105.52,-157.11 282,-258.477 461.32,-308.672 161.71,-45.2541 311.38,-31.4455 474.28,-7.539 121.56,17.871 246.31,32.422 365.81,61.679 110.69,27.11 268.94,56.348 317.52,158.887 -27.59,307.481 -58.63,632.696 -167.97,923.278 z M 3788.44,2259 c -29.87,0.92 -59.74,1.19 -89.61,0.97 -1.54,27.27 -6.12,54.57 -15.05,80.42 24.46,-31.12 95.07,-54.86 104.66,-81.39 z m -130.4,-147.3 c 22.23,27.44 10.76,35.81 50.55,37.14 23.14,0.78 46.28,1.37 69.44,1.62 -41.62,-24.39 -87.71,-39.06 -133.68,-52.87 4.56,4.71 9.12,9.4 13.69,14.11 z m -29.52,-115.24 c 92.77,29.2 180.3,74.38 266.11,119.7 89.67,-237.41 179.35,-474.82 269,-712.23 -37.81,-5.79 -330.32,-52.72 -342.49,-24.13 -37.69,88.68 -75.56,177.31 -113.61,265.83 -44.19,102.82 -87.28,206.36 -134.68,307.75 -18.68,39.93 15.5,30.43 55.67,43.08 z m 391.53,-799.45 c 103.79,-175.8 157.16,-375.311 205.28,-571.893 -149.07,155.664 -238.17,358.125 -318.24,555.433 33.68,6.56 84.34,23.77 112.96,16.46 z m -311.24,72.95 c -15.75,-2.48 -31.52,-4.94 -47.29,-7.42 -1.36,4.69 -2.69,9.35 -4.06,14.06 17.09,-2.4 34.21,-4.61 51.35,-6.64 z m -227.31,787.43 c 22.44,-1.78 -6.02,-7.96 0,0 l 0,0 z m -50.89,-74.11 c 71.12,-144.87 141.49,-290.33 206.54,-438.03 20.1,-45.6 58.87,-107.71 59.84,-159.14 0.14,-7.54 -5.59,-5.86 -12.72,-5.76 -33.83,0.61 -56.63,-3.55 -67.4,31.02 -24.57,78.92 -50.32,157.51 -79.03,235 -21.26,57.4 -42.86,114.67 -64.61,171.88 -16.38,43.14 -67.55,124.99 -42.62,165.03 z m 126.91,-736.99 c -41.41,-6.49 -82.73,-13.15 -124.29,-18.56 -19.62,-2.55 -39.23,-5.09 -58.82,-7.65 -6.17,-0.8 -24.96,120.06 -27.33,133.46 32.74,-13.97 66.7,-25.04 100.95,-34.69 23.47,-6.62 47.14,-12.56 70.96,-17.8 33.44,-7.36 28.9,-24.21 38.53,-54.76 z M 3355.05,1834 c 57.74,-138.32 103.95,-281.07 150.1,-423.59 -42.01,9.88 -86.32,19.82 -125.12,39.34 -51.18,25.72 -57.16,45.89 -65.38,99.53 -14.75,96.43 5.09,194.84 40.4,284.72 z M 3691,224.434 c -106.33,16.933 -201.76,72.109 -279.46,145.234 -27.75,26.094 -53.36,54.394 -77.09,84.16 -23.45,29.414 -47.47,42.246 -23.95,73.867 127.52,171.309 122.17,374.844 84.05,573.435 126.33,17.11 252.74,34.12 378.56,54.71 21.42,3.52 29.75,13.4 38.16,-9.16 9.32,-25.06 19.24,-49.88 29.49,-74.55 27.96,-67.31 58.55,-133.575 91.86,-198.38 60.33,-117.383 130.66,-230.039 220.11,-327.578 36.93,-40.313 76.78,-77.832 118.81,-112.734 14.51,-61.055 28.85,-122.129 42.97,-183.282 C 4108.62,216.27 3898.72,191.348 3691,224.434 Z m 718.77,42.89 c -2.7,28.008 -8.16,55.899 -13.61,83.457 49.4,-23.301 102.04,-39.551 155.5,-50.41 -46.72,-13.242 -94.26,-23.652 -141.89,-33.047 z m 296.57,123.594 c -101.84,18.32 -211.89,46.191 -303.2,95.215 -57.54,30.859 -56.6,77.461 -72.91,137.773 -19.61,72.461 -40.17,144.688 -62.34,216.406 -29.79,96.465 -62.16,192.208 -98.91,286.268 -12.48,31.97 -32.4,65.39 -40.72,98.69 67.59,14.16 135.17,28.46 202.4,44.22 66.87,15.65 151.64,22.37 209.22,63.07 65.27,-150.35 100.64,-315.45 130.3,-475.802 20.83,-112.637 38.69,-225.84 54.33,-339.317 4.63,-33.515 9.06,-67.07 13.18,-100.683 3.57,-29.082 -3.13,-17.891 -31.35,-25.84" /><path
         id="path16"
         style="fill:none;stroke:#000000;stroke-width:30;stroke-linecap:butt;stroke-linejoin:miter;stroke-miterlimit:4;stroke-dasharray:none;stroke-opacity:1"
         d="m 4651.16,1245.27 c -14.79,39.34 -82.68,218.95 -140.5,217.87 -28.7,-0.54 -238.27,-47.98 -243.34,-35.35 -76,189.71 -152.01,379.4 -228.03,569.09 -15.34,38.3 -30.71,76.61 -46.05,114.92 -12.26,30.62 -15.92,25.7 1.3,49.2 45.28,61.76 -49.6,88.68 -92.22,93.25 -59.76,6.42 -1.42,125.52 -11.46,167.19 -21.59,89.57 -84.65,181.45 -124.12,264.26 -18.24,38.29 -36.5,76.6 -54.73,114.89 -14.72,30.86 -137.69,-39.27 -161.09,-56.37 -9.79,40.93 -64.04,-4.04 -85.08,34.89 -19.23,35.58 -46.75,66.84 -69.8,100.89 -54.64,81.02 -115.71,157.95 -181.32,230.33 -175.13,195.28 -388.73,356.33 -629,462.32 C 1947.37,3848.89 1170.45,3638.61 654.758,3203.34 264.863,2874.26 9.23828,2394.12 15.0977,1877.86 19.9023,1455.31 120.23,1028.69 349.641,672.266 c -3.172,-4.727 -5.586,-8.809 -5.914,-10.821 -0.055,-0.332 0.066,-1.035 0.273,-1.972 -45.855,-92.168 16.758,-164.961 60.43,-246.953 11.14,-20.899 39.433,-56.504 37.48,-81.7 -4.555,-59.101 -14.008,-113.613 32.801,-160.664 116.348,-141.9333 440.187,45.43 578.899,106.543 0.01,0 0.1,-0.039 0.1,-0.039 l 24.74,10.195 c 28.83,-15.234 56.92,-31.523 84.26,-45.625 108.75,-56.113 219.31,-104.453 335.25,-143.7495 225.6,-76.4844 448.46,-116.3477 681.96,-45.6836 147.52,44.6289 268.49,125.2731 362.37,246.5431 13.09,16.953 136.35,-7.266 162.65,-8.223 61.19,-2.246 122.67,-0.722 183.49,6.778 113.43,14.003 219.88,51.855 311.77,120.742 105.52,-157.11 282,-258.477 461.32,-308.672 161.71,-45.2541 311.38,-31.4455 474.28,-7.539 121.56,17.871 246.31,32.422 365.81,61.679 110.69,27.11 268.94,56.348 317.52,158.887 -27.59,307.481 -58.63,632.696 -167.97,923.278 z M 3788.44,2259 c -29.87,0.92 -59.74,1.19 -89.61,0.97 -1.54,27.27 -6.12,54.57 -15.05,80.42 24.46,-31.12 95.07,-54.86 104.66,-81.39 z m -130.4,-147.3 c 22.23,27.44 10.76,35.81 50.55,37.14 23.14,0.78 46.28,1.37 69.44,1.62 -41.62,-24.39 -87.71,-39.06 -133.68,-52.87 4.56,4.71 9.12,9.4 13.69,14.11 z m -29.52,-115.24 c 92.77,29.2 180.3,74.38 266.11,119.7 89.67,-237.41 179.35,-474.82 269,-712.23 -37.81,-5.79 -330.32,-52.72 -342.49,-24.13 -37.69,88.68 -75.56,177.31 -113.61,265.83 -44.19,102.82 -87.28,206.36 -134.68,307.75 -18.68,39.93 15.5,30.43 55.67,43.08 z m 391.53,-799.45 c 103.79,-175.8 157.16,-375.311 205.28,-571.893 -149.07,155.664 -238.17,358.125 -318.24,555.433 33.68,6.56 84.34,23.77 112.96,16.46 z m -311.24,72.95 c -15.75,-2.48 -31.52,-4.94 -47.29,-7.42 -1.36,4.69 -2.69,9.35 -4.06,14.06 17.09,-2.4 34.21,-4.61 51.35,-6.64 z m -227.31,787.43 c 22.44,-1.78 -6.02,-7.96 0,0 l 0,0 z m -50.89,-74.11 c 71.12,-144.87 141.49,-290.33 206.54,-438.03 20.1,-45.6 58.87,-107.71 59.84,-159.14 0.14,-7.54 -5.59,-5.86 -12.72,-5.76 -33.83,0.61 -56.63,-3.55 -67.4,31.02 -24.57,78.92 -50.32,157.51 -79.03,235 -21.26,57.4 -42.86,114.67 -64.61,171.88 -16.38,43.14 -67.55,124.99 -42.62,165.03 z m 126.91,-736.99 c -41.41,-6.49 -82.73,-13.15 -124.29,-18.56 -19.62,-2.55 -39.23,-5.09 -58.82,-7.65 -6.17,-0.8 -24.96,120.06 -27.33,133.46 32.74,-13.97 66.7,-25.04 100.95,-34.69 23.47,-6.62 47.14,-12.56 70.96,-17.8 33.44,-7.36 28.9,-24.21 38.53,-54.76 z M 3355.05,1834 c 57.74,-138.32 103.95,-281.07 150.1,-423.59 -42.01,9.88 -86.32,19.82 -125.12,39.34 -51.18,25.72 -57.16,45.89 -65.38,99.53 -14.75,96.43 5.09,194.84 40.4,284.72 z M 3691,224.434 c -106.33,16.933 -201.76,72.109 -279.46,145.234 -27.75,26.094 -53.36,54.394 -77.09,84.16 -23.45,29.414 -47.47,42.246 -23.95,73.867 127.52,171.309 122.17,374.844 84.05,573.435 126.33,17.11 252.74,34.12 378.56,54.71 21.42,3.52 29.75,13.4 38.16,-9.16 9.32,-25.06 19.24,-49.88 29.49,-74.55 27.96,-67.31 58.55,-133.575 91.86,-198.38 60.33,-117.383 130.66,-230.039 220.11,-327.578 36.93,-40.313 76.78,-77.832 118.81,-112.734 14.51,-61.055 28.85,-122.129 42.97,-183.282 C 4108.62,216.27 3898.72,191.348 3691,224.434 Z m 718.77,42.89 c -2.7,28.008 -8.16,55.899 -13.61,83.457 49.4,-23.301 102.04,-39.551 155.5,-50.41 -46.72,-13.242 -94.26,-23.652 -141.89,-33.047 z m 296.57,123.594 c -101.84,18.32 -211.89,46.191 -303.2,95.215 -57.54,30.859 -56.6,77.461 -72.91,137.773 -19.61,72.461 -40.17,144.688 -62.34,216.406 -29.79,96.465 -62.16,192.208 -98.91,286.268 -12.48,31.97 -32.4,65.39 -40.72,98.69 67.59,14.16 135.17,28.46 202.4,44.22 66.87,15.65 151.64,22.37 209.22,63.07 65.27,-150.35 100.64,-315.45 130.3,-475.802 20.83,-112.637 38.69,-225.84 54.33,-339.317 4.63,-33.515 9.06,-67.07 13.18,-100.683 3.57,-29.082 -3.13,-17.891 -31.35,-25.84 z" /><path
         id="path18"
         style="fill:#ffffff;fill-opacity:1;fill-rule:nonzero;stroke:none"
         d="m 4486.45,1370.18 c 0,0 41,94.78 31.18,101.99 -9.81,7.21 -248.95,-37.95 -248.95,-37.95 l -289.51,722.48 c 0,0 33.3,17.94 23.07,58.92 -10.25,40.99 -102.5,48.68 -102.5,48.68 0,0 -69.17,-89.66 -176.78,-130.65 -107.6,-41 -286.93,-79.43 -286.93,-79.43 l -12.82,-46.11 c 0,0 302.33,-612.33 271.58,-617.43 -30.74,-5.13 -210.09,28.17 -292.06,58.91 -81.99,30.76 -128.1,102.5 -130.69,110.15 -2.55,7.72 -15.34,-135.78 -15.34,-135.78 0,0 20.48,-51.23 217.76,-102.46 197.28,-51.25 450.91,-58.92 450.91,-58.92 l 561.08,107.6 z m -924.9,614.87 c -7.68,2.55 76.87,17.92 166.55,58.93 89.64,40.98 166.53,81.98 166.53,81.98 l 269,-712.23 c 0,0 -30.74,-5.14 -107.59,-12.81 -76.87,-7.7 -233.17,-15.37 -233.17,-15.37 0,0 -253.63,596.95 -261.32,599.5 z M 4471.07,465.781 c -169.09,58.946 -317.67,228.028 -407.35,389.434 -89.68,161.405 -169.09,366.345 -169.09,366.345 l -102.47,-5.11 c -2.58,-7.68 66.59,-199.83 169.09,-386.88 102.47,-187.011 207.52,-307.422 345.86,-415.019 138.35,-107.617 335.64,-117.852 348.42,-117.852 12.82,0 76.86,99.922 76.86,99.922 0,0 -92.23,10.234 -261.32,69.16" /><path
         id="path20"
         style="fill:none;stroke:#000000;stroke-width:5;stroke-linecap:butt;stroke-linejoin:miter;stroke-miterlimit:4;stroke-dasharray:none;stroke-opacity:1"
         d="m 4486.45,1370.18 c 0,0 41,94.78 31.18,101.99 -9.81,7.21 -248.95,-37.95 -248.95,-37.95 l -289.51,722.48 c 0,0 33.3,17.94 23.07,58.92 -10.25,40.99 -102.5,48.68 -102.5,48.68 0,0 -69.17,-89.66 -176.78,-130.65 -107.6,-41 -286.93,-79.43 -286.93,-79.43 l -12.82,-46.11 c 0,0 302.33,-612.33 271.58,-617.43 -30.74,-5.13 -210.09,28.17 -292.06,58.91 -81.99,30.76 -128.1,102.5 -130.69,110.15 -2.55,7.72 -15.34,-135.78 -15.34,-135.78 0,0 20.48,-51.23 217.76,-102.46 197.28,-51.25 450.91,-58.92 450.91,-58.92 l 561.08,107.6 z m -924.9,614.87 c -7.68,2.55 76.87,17.92 166.55,58.93 89.64,40.98 166.53,81.98 166.53,81.98 l 269,-712.23 c 0,0 -30.74,-5.14 -107.59,-12.81 -76.87,-7.7 -233.17,-15.37 -233.17,-15.37 0,0 -253.63,596.95 -261.32,599.5 z M 4471.07,465.781 c -169.09,58.946 -317.67,228.028 -407.35,389.434 -89.68,161.405 -169.09,366.345 -169.09,366.345 l -102.47,-5.11 c -2.58,-7.68 66.59,-199.83 169.09,-386.88 102.47,-187.011 207.52,-307.422 345.86,-415.019 138.35,-107.617 335.64,-117.852 348.42,-117.852 12.82,0 76.86,99.922 76.86,99.922 0,0 -92.23,10.234 -261.32,69.16 z" /><path
         id="path22"
         style="fill:#ffffff;fill-opacity:1;fill-rule:nonzero;stroke:none"
         d="m 914.73,350.645 c -53.742,3.554 -229.316,-25.098 -229.316,-25.098 0,0 -8.945,-25.078 -64.476,-19.707 -55.532,5.39 -45.043,88.144 -45.043,88.144 0,0 -191.875,219.766 -227.668,283.828 -12.625,-22.363 -20.532,-46.718 -24.844,-72.246 0.918,-16.23 2.39,-29.589 3.762,-34.589 5.378,-19.707 111.062,-206.016 114.64,-223.926 3.586,-17.91 -32.25,-105.684 35.836,-170.196 68.078,-64.472 202.414,-42.988 279.469,-12.539 77.023,30.469 308.12,127.188 308.12,127.188 0,0 -69.858,53.75 -150.48,59.141" /><path
         id="path24"
         style="fill:none;stroke:#000000;stroke-width:10;stroke-linecap:butt;stroke-linejoin:miter;stroke-miterlimit:4;stroke-dasharray:none;stroke-opacity:1"
         d="m 914.73,350.645 c -53.742,3.554 -229.316,-25.098 -229.316,-25.098 0,0 -8.945,-25.078 -64.476,-19.707 -55.532,5.39 -45.043,88.144 -45.043,88.144 0,0 -191.875,219.766 -227.668,283.828 -12.625,-22.363 -20.532,-46.718 -24.844,-72.246 0.918,-16.23 2.39,-29.589 3.762,-34.589 5.378,-19.707 111.062,-206.016 114.64,-223.926 3.586,-17.91 -32.25,-105.684 35.836,-170.196 68.078,-64.472 202.414,-42.988 279.469,-12.539 77.023,30.469 308.12,127.188 308.12,127.188 0,0 -69.858,53.75 -150.48,59.141 z" /><path
         id="path26"
         style="fill:#ffffff;fill-opacity:1;fill-rule:nonzero;stroke:none"
         d="m 459.699,214.492 c 0.809,5.606 55.543,-68.086 150.477,-43.008 94.953,25.078 143.316,73.438 152.289,114.649 8.953,41.211 8.953,50.176 8.953,50.176 0,0 127.172,14.336 177.352,7.168 50.148,-7.168 116.44,-51.973 116.44,-51.973 L 757.09,164.316 c 0,0 -87.789,-32.226 -182.735,-26.855 -94.945,5.391 -116.441,64.492 -114.656,77.031" /><path
         id="path28"
         style="fill:none;stroke:#000000;stroke-width:5;stroke-linecap:butt;stroke-linejoin:miter;stroke-miterlimit:4;stroke-dasharray:none;stroke-opacity:1"
         d="m 459.699,214.492 c 0.809,5.606 55.543,-68.086 150.477,-43.008 94.953,25.078 143.316,73.438 152.289,114.649 8.953,41.211 8.953,50.176 8.953,50.176 0,0 127.172,14.336 177.352,7.168 50.148,-7.168 116.44,-51.973 116.44,-51.973 L 757.09,164.316 c 0,0 -87.789,-32.226 -182.735,-26.855 -94.945,5.391 -116.441,64.492 -114.656,77.031 z" /><path
         id="path30"
         style="fill:#ffffff;fill-opacity:1;fill-rule:nonzero;stroke:none"
         d="m 3494.86,2084.1 c 0,0 -220.59,-260.92 -180.21,-525.02 40.4,-264.06 83.89,-456.68 99.42,-556.09 15.54,-99.396 43.51,-459.787 -313.78,-636.877 -354.98,-175.937 -1000.34,46.621 -1037.62,71.465 -37.28,24.844 9.34,2059.712 475.32,2134.262 466.01,74.57 956.87,-487.74 956.87,-487.74" /><path
         id="path32"
         style="fill:none;stroke:#000000;stroke-width:20;stroke-linecap:butt;stroke-linejoin:miter;stroke-miterlimit:4;stroke-dasharray:none;stroke-opacity:1"
         d="m 3494.86,2084.1 c 0,0 -220.59,-260.92 -180.21,-525.02 40.4,-264.06 83.89,-456.68 99.42,-556.09 15.54,-99.396 43.51,-459.787 -313.78,-636.877 -354.98,-175.937 -1000.34,46.621 -1037.62,71.465 -37.28,24.844 9.34,2059.712 475.32,2134.262 466.01,74.57 956.87,-487.74 956.87,-487.74 z" /><path
         id="path34"
         style="fill:#ffffff;fill-opacity:1;fill-rule:nonzero;stroke:none"
         d="m 2910.81,1276.39 c 0,0 -79.74,192.63 111.83,229.88 223.69,43.48 245.43,-124.26 267.16,-158.44 21.74,-34.18 167.78,-456.678 15.54,-714.549 -166.92,-282.695 -574.73,-406.953 -888.5,-205.019 -313.76,201.933 -164.38,279.609 80.77,295.117 245.43,15.527 431.84,71.484 459.78,223.691 27.97,152.23 -46.58,329.32 -46.58,329.32" /><path
         id="path36"
         style="fill:none;stroke:#000000;stroke-width:5;stroke-linecap:butt;stroke-linejoin:miter;stroke-miterlimit:4;stroke-dasharray:none;stroke-opacity:1"
         d="m 2910.81,1276.39 c 0,0 -79.74,192.63 111.83,229.88 223.69,43.48 245.43,-124.26 267.16,-158.44 21.74,-34.18 167.78,-456.678 15.54,-714.549 -166.92,-282.695 -574.73,-406.953 -888.5,-205.019 -313.76,201.933 -164.38,279.609 80.77,295.117 245.43,15.527 431.84,71.484 459.78,223.691 27.97,152.23 -46.58,329.32 -46.58,329.32 z" /><path
         id="path38"
         style="fill:#ffffff;fill-opacity:1;fill-rule:nonzero;stroke:none"
         d="m 3305.34,633.281 c 152.24,257.871 6.2,680.369 -15.54,714.549 -21.73,34.18 -43.47,201.92 -267.16,158.44 -0.35,-0.08 -0.66,-0.18 -1.02,-0.22 34.67,0.71 69.86,-2.09 78.67,-15.33 0,0 71.48,-62.11 152.24,-338.61 80.75,-276.505 3.11,-574.727 -260.97,-711.426 -264.06,-136.68 -509.49,31.054 -509.49,31.054 0,0 -46.58,-31.035 3.11,-71.445 5.29,-4.297 13.17,-11.523 23.3,-20.859 297.42,-128.047 645.81,-2.012 796.86,253.847" /><path
         id="path40"
         style="fill:none;stroke:#000000;stroke-width:2.5;stroke-linecap:butt;stroke-linejoin:miter;stroke-miterlimit:4;stroke-dasharray:none;stroke-opacity:1"
         d="m 3305.34,633.281 c 152.24,257.871 6.2,680.369 -15.54,714.549 -21.73,34.18 -43.47,201.92 -267.16,158.44 -0.35,-0.08 -0.66,-0.18 -1.02,-0.22 34.67,0.71 69.86,-2.09 78.67,-15.33 0,0 71.48,-62.11 152.24,-338.61 80.75,-276.505 3.11,-574.727 -260.97,-711.426 -264.06,-136.68 -509.49,31.054 -509.49,31.054 0,0 -46.58,-31.035 3.11,-71.445 5.29,-4.297 13.17,-11.523 23.3,-20.859 297.42,-128.047 645.81,-2.012 796.86,253.847 z" /><path
         id="path42"
         style="fill:#ffffff;fill-opacity:1;fill-rule:nonzero;stroke:none"
         d="m 3187.47,2110.82 53.86,-173.96 c 0,0 28.98,-151.19 -2.08,-211.25 -31.07,-60.05 -82.85,-74.57 -103.55,-80.78 -20.72,-6.2 -252.67,-55.91 -252.67,-55.91 0,0 -28.99,6.2 -64.2,22.78 -35.22,16.58 -45.57,33.13 -45.57,33.13 0,0 14.49,-80.75 -107.71,-122.17 -122.18,-41.43 -231.95,-84.91 -271.32,-74.59 -39.33,10.39 -97.33,627.56 196.77,768.38 294.09,140.85 596.47,-105.63 596.47,-105.63" /><path
         id="path44"
         style="fill:none;stroke:#000000;stroke-width:5;stroke-linecap:butt;stroke-linejoin:miter;stroke-miterlimit:4;stroke-dasharray:none;stroke-opacity:1"
         d="m 3187.47,2110.82 53.86,-173.96 c 0,0 28.98,-151.19 -2.08,-211.25 -31.07,-60.05 -82.85,-74.57 -103.55,-80.78 -20.72,-6.2 -252.67,-55.91 -252.67,-55.91 0,0 -28.99,6.2 -64.2,22.78 -35.22,16.58 -45.57,33.13 -45.57,33.13 0,0 14.49,-80.75 -107.71,-122.17 -122.18,-41.43 -231.95,-84.91 -271.32,-74.59 -39.33,10.39 -97.33,627.56 196.77,768.38 294.09,140.85 596.47,-105.63 596.47,-105.63 z" /><path
         id="path46"
         style="fill:#ffffff;fill-opacity:1;fill-rule:nonzero;stroke:none"
         d="m 3075.62,2226.81 c 0,0 103.56,-234.03 118.06,-310.66 14.5,-76.62 6.23,-178.12 -33.13,-196.76 -39.37,-18.63 -161.55,-62.12 -161.55,-62.12 0,0 -80.78,-31.07 -159.48,24.84 -78.7,55.92 -120.11,236.1 -120.11,236.1 l -62.12,157.41 418.33,151.19" /><path
         id="path48"
         style="fill:none;stroke:#000000;stroke-width:5;stroke-linecap:butt;stroke-linejoin:miter;stroke-miterlimit:4;stroke-dasharray:none;stroke-opacity:1"
         d="m 3075.62,2226.81 c 0,0 103.56,-234.03 118.06,-310.66 14.5,-76.62 6.23,-178.12 -33.13,-196.76 -39.37,-18.63 -161.55,-62.12 -161.55,-62.12 0,0 -80.78,-31.07 -159.48,24.84 -78.7,55.92 -120.11,236.1 -120.11,236.1 l -62.12,157.41 418.33,151.19 z" /><path
         id="path50"
         style="fill:#ffffff;fill-opacity:1;fill-rule:nonzero;stroke:none"
         d="m 3011.42,2268.23 c 0,0 103.56,-234.02 118.05,-310.66 14.52,-76.64 6.23,-178.1 -33.13,-196.75 -39.36,-18.65 -161.54,-62.13 -161.54,-62.13 0,0 -80.78,-31.08 -159.48,24.85 -78.7,55.93 -120.12,236.09 -120.12,236.09 l -62.12,157.42 418.34,151.18" /><path
         id="path52"
         style="fill:none;stroke:#000000;stroke-width:2.5;stroke-linecap:butt;stroke-linejoin:miter;stroke-miterlimit:4;stroke-dasharray:none;stroke-opacity:1"
         d="m 3011.42,2268.23 c 0,0 103.56,-234.02 118.05,-310.66 14.52,-76.64 6.23,-178.1 -33.13,-196.75 -39.36,-18.65 -161.54,-62.13 -161.54,-62.13 0,0 -80.78,-31.08 -159.48,24.85 -78.7,55.93 -120.12,236.09 -120.12,236.09 l -62.12,157.42 418.34,151.18 z" /><path
         id="path54"
         style="fill:#ffffff;fill-opacity:1;fill-rule:nonzero;stroke:none"
         d="m 2582.71,2104.62 c 0,0 103.53,-234.03 118.05,-310.66 14.49,-76.63 6.21,-178.12 -33.12,-196.75 -39.37,-18.64 -161.57,-62.15 -161.57,-62.15 0,0 -80.76,-31.08 -159.46,24.85 -78.7,55.93 -120.12,236.11 -120.12,236.11 l -62.14,157.41 418.36,151.19" /><path
         id="path56"
         style="fill:none;stroke:#000000;stroke-width:5;stroke-linecap:butt;stroke-linejoin:miter;stroke-miterlimit:4;stroke-dasharray:none;stroke-opacity:1"
         d="m 2582.71,2104.62 c 0,0 103.53,-234.03 118.05,-310.66 14.49,-76.63 6.21,-178.12 -33.12,-196.75 -39.37,-18.64 -161.57,-62.15 -161.57,-62.15 0,0 -80.76,-31.08 -159.46,24.85 -78.7,55.93 -120.12,236.11 -120.12,236.11 l -62.14,157.41 418.36,151.19 z" /><path
         id="path58"
         style="fill:#ffffff;fill-opacity:1;fill-rule:nonzero;stroke:none"
         d="m 2518.51,2146.04 c 0,0 103.53,-234.03 118.05,-310.66 14.49,-76.63 6.21,-178.11 -33.13,-196.75 -39.36,-18.63 -161.57,-62.15 -161.57,-62.15 0,0 -80.75,-31.07 -159.45,24.87 -78.7,55.92 -120.12,236.09 -120.12,236.09 l -62.15,157.41 418.37,151.19" /><path
         id="path60"
         style="fill:none;stroke:#000000;stroke-width:2.5;stroke-linecap:butt;stroke-linejoin:miter;stroke-miterlimit:4;stroke-dasharray:none;stroke-opacity:1"
         d="m 2518.51,2146.04 c 0,0 103.53,-234.03 118.05,-310.66 14.49,-76.63 6.21,-178.11 -33.13,-196.75 -39.36,-18.63 -161.57,-62.15 -161.57,-62.15 0,0 -80.75,-31.07 -159.45,24.87 -78.7,55.92 -120.12,236.09 -120.12,236.09 l -62.15,157.41 418.37,151.19 z" /><path
         id="path62"
         style="fill:#ffffff;fill-opacity:1;fill-rule:nonzero;stroke:none"
         d="M 781.672,1056.99 2516.39,2282.92 c 162.33,126.06 1018,133.69 1039.02,122.23 21,-11.46 59.21,-120.33 59.21,-120.33 0,0 -294.12,-49.65 -364.8,-57.28 -70.66,-7.65 -200.55,-22.92 -439.28,-103.14 -238.73,-80.22 -355.25,-360.99 -368.63,-494.67 -13.39,-133.69 13.38,-257.85 105.05,-439.3 91.66,-181.45 124.13,-351.426 141.34,-519.512 17.19,-168.066 -99.31,-309.414 -133.7,-347.598 -34.37,-38.203 -120.34,-192.91 -401.1,-269.2966 -280.75,-76.3867 -488.93,-3.8281 -700.94,68.7496 -212,72.579 -376.26,183.379 -471.759,215.84 -95.496,32.481 -297.965,-9.57 -303.688,-19.121 -5.722,-9.531 -42.011,-28.633 -72.578,-5.722 -30.566,22.89 -28.64,64.96 -28.64,64.96 l 205.777,678.26" /><path
         id="path64"
         style="fill:none;stroke:#000000;stroke-width:30;stroke-linecap:butt;stroke-linejoin:miter;stroke-miterlimit:4;stroke-dasharray:none;stroke-opacity:1"
         d="M 781.672,1056.99 2516.39,2282.92 c 162.33,126.06 1018,133.69 1039.02,122.23 21,-11.46 59.21,-120.33 59.21,-120.33 0,0 -294.12,-49.65 -364.8,-57.28 -70.66,-7.65 -200.55,-22.92 -439.28,-103.14 -238.73,-80.22 -355.25,-360.99 -368.63,-494.67 -13.39,-133.69 13.38,-257.85 105.05,-439.3 91.66,-181.45 124.13,-351.426 141.34,-519.512 17.19,-168.066 -99.31,-309.414 -133.7,-347.598 -34.37,-38.203 -120.34,-192.91 -401.1,-269.2966 -280.75,-76.3867 -488.93,-3.8281 -700.94,68.7496 -212,72.579 -376.26,183.379 -471.759,215.84 -95.496,32.481 -297.965,-9.57 -303.688,-19.121 -5.722,-9.531 -42.011,-28.633 -72.578,-5.722 -30.566,22.89 -28.64,64.96 -28.64,64.96 l 205.777,678.26 z" /><path
         id="path66"
         style="fill:#ffffff;fill-opacity:1;fill-rule:nonzero;stroke:none"
         d="m 3449.15,2805.28 c 0,0 -517.92,940.14 -1525.62,900.74 C 915.828,3666.61 3.84375,2878.46 15.0977,1887.66 26.0508,923.73 502.699,484.062 575.895,393.984 c 14.628,-18.007 300.531,80.645 486.305,-9.414 185.77,-90.097 532.32,-317.2458 861.33,-270.234 315.26,45.039 534.8,118.223 624.89,360.293 90.07,242.07 -61.93,579.841 -101.35,698.071 -39.4,118.22 -157.61,377.19 -16.87,641.76 140.73,264.6 422.19,410.98 613.6,439.13 191.43,28.13 596.76,67.55 596.76,67.55 l -191.41,484.14" /><path
         id="path68"
         style="fill:none;stroke:#000000;stroke-width:15;stroke-linecap:butt;stroke-linejoin:miter;stroke-miterlimit:4;stroke-dasharray:none;stroke-opacity:1"
         d="m 3449.15,2805.28 c 0,0 -517.92,940.14 -1525.62,900.74 C 915.828,3666.61 3.84375,2878.46 15.0977,1887.66 26.0508,923.73 502.699,484.062 575.895,393.984 c 14.628,-18.007 300.531,80.645 486.305,-9.414 185.77,-90.097 532.32,-317.2458 861.33,-270.234 315.26,45.039 534.8,118.223 624.89,360.293 90.07,242.07 -61.93,579.841 -101.35,698.071 -39.4,118.22 -157.61,377.19 -16.87,641.76 140.73,264.6 422.19,410.98 613.6,439.13 191.43,28.13 596.76,67.55 596.76,67.55 l -191.41,484.14 z" /><path
         id="path70"
         style="fill:#ffffff;fill-opacity:1;fill-rule:nonzero;stroke:none"
         d="M 1958.23,1035.64 C 1972.5,703.555 1776.12,517.891 1494.03,510.762 1201.15,503.32 994.172,755.605 994.172,1035.64 c 0,280.02 215.788,507.02 482.028,507.02 266.22,0 470,-227.25 482.03,-507.02" /><path
         id="path72"
         style="fill:none;stroke:#000000;stroke-width:5;stroke-linecap:butt;stroke-linejoin:miter;stroke-miterlimit:4;stroke-dasharray:none;stroke-opacity:1"
         d="M 1958.23,1035.64 C 1972.5,703.555 1776.12,517.891 1494.03,510.762 1201.15,503.32 994.172,755.605 994.172,1035.64 c 0,280.02 215.788,507.02 482.028,507.02 266.22,0 470,-227.25 482.03,-507.02 z" /><path
         id="path74"
         style="fill:#ffffff;fill-opacity:1;fill-rule:nonzero;stroke:none"
         d="m 1660.2,263.633 c 0,-29.961 -26.21,-54.258 -58.52,-54.258 -32.32,0 -58.49,24.297 -58.49,54.258 0,29.941 26.17,54.238 58.49,54.238 32.31,0 58.52,-24.297 58.52,-54.238" /><path
         id="path76"
         style="fill:none;stroke:#000000;stroke-width:5;stroke-linecap:butt;stroke-linejoin:miter;stroke-miterlimit:4;stroke-dasharray:none;stroke-opacity:1"
         d="m 1660.2,263.633 c 0,-29.961 -26.21,-54.258 -58.52,-54.258 -32.32,0 -58.49,24.297 -58.49,54.258 0,29.941 26.17,54.238 58.49,54.238 32.31,0 58.52,-24.297 58.52,-54.238 z" /><path
         id="path78"
         style="fill:#ffffff;fill-opacity:1;fill-rule:nonzero;stroke:none"
         d="m 1623.23,263.633 c 0,-11.035 -9.63,-20 -21.55,-20 -11.89,0 -21.54,8.965 -21.54,20 0,11.035 9.65,19.98 21.54,19.98 11.92,0 21.55,-8.945 21.55,-19.98" /><path
         id="path80"
         style="fill:none;stroke:#000000;stroke-width:2.5;stroke-linecap:butt;stroke-linejoin:miter;stroke-miterlimit:4;stroke-dasharray:none;stroke-opacity:1"
         d="m 1623.23,263.633 c 0,-11.035 -9.63,-20 -21.55,-20 -11.89,0 -21.54,8.965 -21.54,20 0,11.035 9.65,19.98 21.54,19.98 11.92,0 21.55,-8.945 21.55,-19.98 z" /><path
         id="path82"
         style="fill:#ffffff;fill-opacity:1;fill-rule:nonzero;stroke:none"
         d="m 2316.55,340.703 c 0,-29.941 -26.18,-54.238 -58.51,-54.238 -32.32,0 -58.5,24.297 -58.5,54.238 0,29.942 26.18,54.219 58.5,54.219 32.33,0 58.51,-24.277 58.51,-54.219" /><path
         id="path84"
         style="fill:none;stroke:#000000;stroke-width:5;stroke-linecap:butt;stroke-linejoin:miter;stroke-miterlimit:4;stroke-dasharray:none;stroke-opacity:1"
         d="m 2316.55,340.703 c 0,-29.941 -26.18,-54.238 -58.51,-54.238 -32.32,0 -58.5,24.297 -58.5,54.238 0,29.942 26.18,54.219 58.5,54.219 32.33,0 58.51,-24.277 58.51,-54.219 z" /><path
         id="path86"
         style="fill:#ffffff;fill-opacity:1;fill-rule:nonzero;stroke:none"
         d="m 2279.59,340.703 c 0,-11.035 -9.65,-19.98 -21.55,-19.98 -11.91,0 -21.56,8.945 -21.56,19.98 0,11.035 9.65,19.981 21.56,19.981 11.9,0 21.55,-8.946 21.55,-19.981" /><path
         id="path88"
         style="fill:none;stroke:#000000;stroke-width:2.5;stroke-linecap:butt;stroke-linejoin:miter;stroke-miterlimit:4;stroke-dasharray:none;stroke-opacity:1"
         d="m 2279.59,340.703 c 0,-11.035 -9.65,-19.98 -21.55,-19.98 -11.91,0 -21.56,8.945 -21.56,19.98 0,11.035 9.65,19.981 21.56,19.981 11.9,0 21.55,-8.946 21.55,-19.981 z" /><path
         id="path90"
         style="fill:#ffffff;fill-opacity:1;fill-rule:nonzero;stroke:none"
         d="m 2385.21,980.059 c 0,-29.942 -26.21,-54.219 -58.53,-54.219 -32.3,0 -58.5,24.277 -58.5,54.219 0,29.981 26.2,54.241 58.5,54.241 32.32,0 58.53,-24.26 58.53,-54.241" /><path
         id="path92"
         style="fill:none;stroke:#000000;stroke-width:5;stroke-linecap:butt;stroke-linejoin:miter;stroke-miterlimit:4;stroke-dasharray:none;stroke-opacity:1"
         d="m 2385.21,980.059 c 0,-29.942 -26.21,-54.219 -58.53,-54.219 -32.3,0 -58.5,24.277 -58.5,54.219 0,29.981 26.2,54.241 58.5,54.241 32.32,0 58.53,-24.26 58.53,-54.241 z" /><path
         id="path94"
         style="fill:#ffffff;fill-opacity:1;fill-rule:nonzero;stroke:none"
         d="m 2348.23,980.059 c 0,-11.036 -9.64,-19.961 -21.55,-19.961 -11.91,0 -21.55,8.925 -21.55,19.961 0,11.035 9.64,19.981 21.55,19.981 11.91,0 21.55,-8.946 21.55,-19.981" /><path
         id="path96"
         style="fill:none;stroke:#000000;stroke-width:2.5;stroke-linecap:butt;stroke-linejoin:miter;stroke-miterlimit:4;stroke-dasharray:none;stroke-opacity:1"
         d="m 2348.23,980.059 c 0,-11.036 -9.64,-19.961 -21.55,-19.961 -11.91,0 -21.55,8.925 -21.55,19.961 0,11.035 9.64,19.981 21.55,19.981 11.91,0 21.55,-8.946 21.55,-19.981 z" /><path
         id="path98"
         style="fill:#ffffff;fill-opacity:1;fill-rule:nonzero;stroke:none"
         d="m 3142.89,2751.14 c 4.64,0.31 69.43,3.84 69.43,3.84 0,0 15.34,20.63 37.11,30.63 21.79,10.02 117.81,56.55 117.81,56.55 0,0 40.03,5.3 55.94,-2.36 2.58,-1.24 4.92,-2.11 7.14,-2.83 -101.26,163.62 -610.12,904.11 -1506.79,869.05 -275.58,-10.78 -543.94,-77.66 -788.29,-189.26 -0.12,-3.32 -0.04,-5.13 -0.04,-5.13 0,0 408.26,178.24 983.22,57.51 574.99,-120.76 896.97,-649.74 896.97,-649.74 0,0 91.93,-122.57 115.34,-188.19 3.88,8.7 9.34,19.72 12.16,19.93" /><path
         id="path100"
         style="fill:none;stroke:#000000;stroke-width:10;stroke-linecap:butt;stroke-linejoin:miter;stroke-miterlimit:4;stroke-dasharray:none;stroke-opacity:1"
         d="m 3142.89,2751.14 c 4.64,0.31 69.43,3.84 69.43,3.84 0,0 15.34,20.63 37.11,30.63 21.79,10.02 117.81,56.55 117.81,56.55 0,0 40.03,5.3 55.94,-2.36 2.58,-1.24 4.92,-2.11 7.14,-2.83 -101.26,163.62 -610.12,904.11 -1506.79,869.05 -275.58,-10.78 -543.94,-77.66 -788.29,-189.26 -0.12,-3.32 -0.04,-5.13 -0.04,-5.13 0,0 408.26,178.24 983.22,57.51 574.99,-120.76 896.97,-649.74 896.97,-649.74 0,0 91.93,-122.57 115.34,-188.19 3.88,8.7 9.34,19.72 12.16,19.93 z" /><path
         id="path102"
         style="fill:#ffffff;fill-opacity:1;fill-rule:nonzero;stroke:none"
         d="m 3267.13,2277.86 c -51.66,-110.3 -541.69,-181.49 -541.69,-181.49 0,0 129.85,-36.3 234.56,-39.09 104.69,-2.78 163.32,6.99 163.32,6.99 0,0 46.09,2.78 113.1,11.17 67,8.37 213.61,-4.2 221.98,-5.6 8.37,-1.39 139.58,-22.33 199.64,51.66 70.74,87.21 29.32,217.79 29.32,217.79 l -138.24,420.22 -6.97,12.56 -399.26,-20.93 c 0,0 -23.74,-33.52 -19.57,-60.03 4.2,-26.54 18.17,-43.29 18.17,-43.29 l 125.64,-276.42 c 0,0 18.14,-69.8 1.41,-99.12" /><path
         id="path104"
         style="fill:none;stroke:#000000;stroke-width:7.5;stroke-linecap:butt;stroke-linejoin:miter;stroke-miterlimit:4;stroke-dasharray:none;stroke-opacity:1"
         d="m 3267.13,2277.86 c -51.66,-110.3 -541.69,-181.49 -541.69,-181.49 0,0 129.85,-36.3 234.56,-39.09 104.69,-2.78 163.32,6.99 163.32,6.99 0,0 46.09,2.78 113.1,11.17 67,8.37 213.61,-4.2 221.98,-5.6 8.37,-1.39 139.58,-22.33 199.64,51.66 70.74,87.21 29.32,217.79 29.32,217.79 l -138.24,420.22 -6.97,12.56 -399.26,-20.93 c 0,0 -23.74,-33.52 -19.57,-60.03 4.2,-26.54 18.17,-43.29 18.17,-43.29 l 125.64,-276.42 c 0,0 18.14,-69.8 1.41,-99.12" /><path
         id="path106"
         style="fill:#ffffff;fill-opacity:1;fill-rule:nonzero;stroke:none"
         d="m 3123.32,2691.11 c 4.2,-26.54 18.17,-43.29 18.17,-43.29 0,0 112.22,-247.17 125.64,-276.42 13.43,-29.26 0,-93.54 0,-93.54 -44.25,-94.48 -410.25,-160.29 -514.21,-177.19 127.97,-39.47 355.67,-39.45 473.72,12.46 127.07,55.83 65.61,231.75 65.61,231.75 0,0 -137.93,365.06 -149.11,384.6 -11.17,19.55 2.04,21.97 2.04,21.97 0,0 -0.75,-3.11 -1.16,0 l -1.13,-0.31 c 0,0 -23.74,-33.52 -19.57,-60.03" /><path
         id="path108"
         style="fill:none;stroke:#000000;stroke-width:7.5;stroke-linecap:butt;stroke-linejoin:miter;stroke-miterlimit:4;stroke-dasharray:none;stroke-opacity:1"
         d="m 3123.32,2691.11 c 4.2,-26.54 18.17,-43.29 18.17,-43.29 0,0 112.22,-247.17 125.64,-276.42 13.43,-29.26 0,-93.54 0,-93.54 -44.25,-94.48 -410.25,-160.29 -514.21,-177.19 127.97,-39.47 355.67,-39.45 473.72,12.46 127.07,55.83 65.61,231.75 65.61,231.75 0,0 -137.93,365.06 -149.11,384.6 -11.17,19.55 2.04,21.97 2.04,21.97 0,0 -0.75,-3.11 -1.16,0 l -1.13,-0.31 c 0,0 -23.74,-33.52 -19.57,-60.03 z" /><path
         id="path110"
         style="fill:#ffffff;fill-opacity:1;fill-rule:nonzero;stroke:none"
         d="m 3540.89,2746.31 c 0,0 29.01,24.67 76.91,46.44 47.92,21.77 92.91,20.33 92.91,20.33 l 177.08,-371.6 c 0,0 31.93,-79.82 -44.99,-136.44 -76.94,-56.61 -140.79,18.88 -169.82,59.53 -29.04,40.62 -132.09,381.74 -132.09,381.74" /><path
         id="path112"
         style="fill:none;stroke:#000000;stroke-width:5;stroke-linecap:butt;stroke-linejoin:miter;stroke-miterlimit:4;stroke-dasharray:none;stroke-opacity:1"
         d="m 3540.89,2746.31 c 0,0 29.01,24.67 76.91,46.44 47.92,21.77 92.91,20.33 92.91,20.33 l 177.08,-371.6 c 0,0 31.93,-79.82 -44.99,-136.44 -76.94,-56.61 -140.79,18.88 -169.82,59.53 -29.04,40.62 -132.09,381.74 -132.09,381.74 z" /><path
         id="path114"
         style="fill:#ffffff;fill-opacity:1;fill-rule:nonzero;stroke:none"
         d="m 3594.61,2781.14 c 0,0 13.04,0 18.86,-11.61 5.82,-11.61 126.26,-272.87 126.26,-272.87 l -15.95,-1.46 -123.38,267.07 c 0,0 -8.7,11.62 -21.77,8.71 -13.06,-2.91 15.98,10.16 15.98,10.16" /><path
         id="path116"
         style="fill:none;stroke:#000000;stroke-width:2.5;stroke-linecap:butt;stroke-linejoin:miter;stroke-miterlimit:4;stroke-dasharray:none;stroke-opacity:1"
         d="m 3594.61,2781.14 c 0,0 13.04,0 18.86,-11.61 5.82,-11.61 126.26,-272.87 126.26,-272.87 l -15.95,-1.46 -123.38,267.07 c 0,0 -8.7,11.62 -21.77,8.71 -13.06,-2.91 15.98,10.16 15.98,10.16 z" /><path
         id="path118"
         style="fill:#ffffff;fill-opacity:1;fill-rule:nonzero;stroke:none"
         d="m 2563.24,2033.07 c 0,0 -7.88,-25.59 13.78,-61 21.66,-35.45 35.44,-49.22 35.44,-49.22 0,0 367.99,187.51 824.64,220.45 409.35,29.5 450.69,11.8 450.69,11.8 0,0 47.25,-1.98 57.07,49.19 9.86,51.18 -49.19,59.05 -84.63,61.02 -35.41,1.98 -255.85,19.68 -614.04,-31.49 -357.17,-51.02 -682.95,-200.75 -682.95,-200.75" /><path
         id="path120"
         style="fill:none;stroke:#000000;stroke-width:10;stroke-linecap:butt;stroke-linejoin:miter;stroke-miterlimit:4;stroke-dasharray:none;stroke-opacity:1"
         d="m 2563.24,2033.07 c 0,0 -7.88,-25.59 13.78,-61 21.66,-35.45 35.44,-49.22 35.44,-49.22 0,0 367.99,187.51 824.64,220.45 409.35,29.5 450.69,11.8 450.69,11.8 0,0 47.25,-1.98 57.07,49.19 9.86,51.18 -49.19,59.05 -84.63,61.02 -35.41,1.98 -255.85,19.68 -614.04,-31.49 -357.17,-51.02 -682.95,-200.75 -682.95,-200.75 z" /><path
         id="path122"
         style="fill:#ffffff;fill-opacity:1;fill-rule:nonzero;stroke:none"
         d="m 1687.89,1030.23 c 6.78,-157.554 -54.96,-238.453 -188.8,-241.851 -138.96,-3.535 -244.92,112.246 -250.02,244.941 -5.12,132.73 83.91,222.46 210.23,222.46 126.31,0 222.89,-92.79 228.59,-225.55" /><path
         id="path124"
         style="fill:none;stroke:#000000;stroke-width:10;stroke-linecap:butt;stroke-linejoin:miter;stroke-miterlimit:4;stroke-dasharray:none;stroke-opacity:1"
         d="m 1687.89,1030.23 c 6.78,-157.554 -54.96,-238.453 -188.8,-241.851 -138.96,-3.535 -244.92,112.246 -250.02,244.941 -5.12,132.73 83.91,222.46 210.23,222.46 126.31,0 222.89,-92.79 228.59,-225.55 z" /><path
         id="path126"
         style="fill:#ffffff;fill-opacity:1;fill-rule:nonzero;stroke:none"
         d="m 1918.32,2252.82 c 0,-50.62 -42.47,-91.65 -94.86,-91.65 -52.39,0 -94.85,41.03 -94.85,91.65 0,50.63 42.46,91.65 94.85,91.65 52.39,0 94.86,-41.02 94.86,-91.65" /><path
         id="path128"
         style="fill:none;stroke:#000000;stroke-width:5;stroke-linecap:butt;stroke-linejoin:miter;stroke-miterlimit:4;stroke-dasharray:none;stroke-opacity:1"
         d="m 1918.32,2252.82 c 0,-50.62 -42.47,-91.65 -94.86,-91.65 -52.39,0 -94.85,41.03 -94.85,91.65 0,50.63 42.46,91.65 94.85,91.65 52.39,0 94.86,-41.02 94.86,-91.65 z" /><path
         id="path130"
         style="fill:#ffffff;fill-opacity:1;fill-rule:nonzero;stroke:none"
         d="m 1848.07,2216.16 c 0,-19.09 -16.02,-34.54 -35.77,-34.54 -19.75,0 -35.76,15.45 -35.76,34.54 0,19.09 16.01,34.56 35.76,34.56 19.75,0 35.77,-15.47 35.77,-34.56" /><path
         id="path132"
         style="fill:none;stroke:#000000;stroke-width:2.5;stroke-linecap:butt;stroke-linejoin:miter;stroke-miterlimit:4;stroke-dasharray:none;stroke-opacity:1"
         d="m 1848.07,2216.16 c 0,-19.09 -16.02,-34.54 -35.77,-34.54 -19.75,0 -35.76,15.45 -35.76,34.54 0,19.09 16.01,34.56 35.76,34.56 19.75,0 35.77,-15.47 35.77,-34.56 z" /><path
         id="path134"
         style="fill:#ffffff;fill-opacity:1;fill-rule:nonzero;stroke:none"
         d="m 1812.3,2250.72 c -14.09,0 -26.18,-7.96 -32,-19.42 5.82,-11.45 17.91,-19.41 32,-19.41 14.11,0 26.19,7.96 32.01,19.41 -5.82,11.46 -17.9,19.42 -32.01,19.42" /><path
         id="path136"
         style="fill:none;stroke:#000000;stroke-width:2.5;stroke-linecap:butt;stroke-linejoin:miter;stroke-miterlimit:4;stroke-dasharray:none;stroke-opacity:1"
         d="m 1812.3,2250.72 c -14.09,0 -26.18,-7.96 -32,-19.42 5.82,-11.45 17.91,-19.41 32,-19.41 14.11,0 26.19,7.96 32.01,19.41 -5.82,11.46 -17.9,19.42 -32.01,19.42 z" /><path
         id="path138"
         style="fill:#ffffff;fill-opacity:1;fill-rule:nonzero;stroke:none"
         d="m 1661.88,1497.73 c 0,0 96.43,255.85 131.87,334.59 35.41,78.73 29.51,100.39 106.25,147.61 76.75,47.23 472.36,259.8 797.11,356.23 324.74,96.44 846.28,143.67 960.44,145.64 114.16,1.97 157.45,0 157.45,0 0,0 33.46,-25.58 29.53,-55.1 -3.95,-29.52 -33.46,-51.17 -66.92,-53.13 -33.46,-1.97 -263.73,-5.91 -338.54,-11.82 -74.76,-5.89 -261.75,-27.54 -490.05,-74.78 -228.3,-47.24 -436.91,-133.85 -436.91,-133.85 0,0 -364.1,-163.33 -429.04,-202.71 -64.97,-39.36 -98.42,-59.03 -98.42,-59.03 0,0 -35.43,-57.08 -72.83,-120.07 -37.39,-62.97 -120.05,-301.11 -123.99,-307.01 -3.92,-5.9 -125.95,-383.77 -125.95,-383.77 l -27.56,-84.651 c 0,0 -9.83,-13.789 -66.92,-3.926 -57.07,9.827 -53.13,49.197 -53.13,49.197 l 147.61,456.58" /><path
         id="path140"
         style="fill:none;stroke:#000000;stroke-width:10;stroke-linecap:butt;stroke-linejoin:miter;stroke-miterlimit:4;stroke-dasharray:none;stroke-opacity:1"
         d="m 1661.88,1497.73 c 0,0 96.43,255.85 131.87,334.59 35.41,78.73 29.51,100.39 106.25,147.61 76.75,47.23 472.36,259.8 797.11,356.23 324.74,96.44 846.28,143.67 960.44,145.64 114.16,1.97 157.45,0 157.45,0 0,0 33.46,-25.58 29.53,-55.1 -3.95,-29.52 -33.46,-51.17 -66.92,-53.13 -33.46,-1.97 -263.73,-5.91 -338.54,-11.82 -74.76,-5.89 -261.75,-27.54 -490.05,-74.78 -228.3,-47.24 -436.91,-133.85 -436.91,-133.85 0,0 -364.1,-163.33 -429.04,-202.71 -64.97,-39.36 -98.42,-59.03 -98.42,-59.03 0,0 -35.43,-57.08 -72.83,-120.07 -37.39,-62.97 -120.05,-301.11 -123.99,-307.01 -3.92,-5.9 -125.95,-383.77 -125.95,-383.77 l -27.56,-84.651 c 0,0 -9.83,-13.789 -66.92,-3.926 -57.07,9.827 -53.13,49.197 -53.13,49.197 l 147.61,456.58 z" /><path
         id="path142"
         style="fill:#ffffff;fill-opacity:1;fill-rule:nonzero;stroke:none"
         d="m 2007.42,1290.43 c -74.78,43.73 -257.73,108.14 -257.73,108.14 0,0 -128.86,50.63 -132.31,88.62 -2.08,22.87 2.61,37.71 21.69,42.46 -0.3,0.04 -0.77,0.14 -0.99,0.12 -23.02,-3.46 -28.76,-18.42 -28.76,-18.42 l -71.35,-191 c 0,0 -4.59,-17.26 5.76,-56.39 10.36,-39.1 35.66,-43.73 35.66,-43.73 0,0 280.76,-124.25 332.54,-133.45 51.78,-9.22 85.15,24.16 85.15,24.16 l 43.72,75.95 1.12,63.5 c -5.19,14.4 -15.37,28.87 -34.5,40.04" /><path
         id="path144"
         style="fill:none;stroke:#000000;stroke-width:5;stroke-linecap:butt;stroke-linejoin:miter;stroke-miterlimit:4;stroke-dasharray:none;stroke-opacity:1"
         d="m 2007.42,1290.43 c -74.78,43.73 -257.73,108.14 -257.73,108.14 0,0 -128.86,50.63 -132.31,88.62 -2.08,22.87 2.61,37.71 21.69,42.46 -0.3,0.04 -0.77,0.14 -0.99,0.12 -23.02,-3.46 -28.76,-18.42 -28.76,-18.42 l -71.35,-191 c 0,0 -4.59,-17.26 5.76,-56.39 10.36,-39.1 35.66,-43.73 35.66,-43.73 0,0 280.76,-124.25 332.54,-133.45 51.78,-9.22 85.15,24.16 85.15,24.16 l 43.72,75.95 1.12,63.5 c -5.19,14.4 -15.37,28.87 -34.5,40.04 z" /><path
         id="path146"
         style="fill:#ffffff;fill-opacity:1;fill-rule:nonzero;stroke:none"
         d="m 1867.05,1289.28 c 0,0 -28.75,48.34 -79.38,44.88 -50.63,-3.46 -77.09,-46.04 -67.9,-90.92 9.19,-44.84 46.03,-55.23 71.34,-59.8 25.31,-4.61 54.08,3.45 54.08,3.45 0,0 -2.3,-40.29 56.38,-49.49 58.69,-9.2 77.11,20.71 81.69,33.34 4.61,12.7 -5.74,80.57 -8.05,88.62 -2.3,8.06 -6.89,23.02 -44.87,31.07 -37.96,8.05 -63.29,-1.15 -63.29,-1.15" /><path
         id="path148"
         style="fill:none;stroke:#000000;stroke-width:7.5;stroke-linecap:butt;stroke-linejoin:miter;stroke-miterlimit:4;stroke-dasharray:none;stroke-opacity:1"
         d="m 1867.05,1289.28 c 0,0 -28.75,48.34 -79.38,44.88 -50.63,-3.46 -77.09,-46.04 -67.9,-90.92 9.19,-44.84 46.03,-55.23 71.34,-59.8 25.31,-4.61 54.08,3.45 54.08,3.45 0,0 -2.3,-40.29 56.38,-49.49 58.69,-9.2 77.11,20.71 81.69,33.34 4.61,12.7 -5.74,80.57 -8.05,88.62 -2.3,8.06 -6.89,23.02 -44.87,31.07 -37.96,8.05 -63.29,-1.15 -63.29,-1.15 z" /><path
         id="path150"
         style="fill:#ffffff;fill-opacity:1;fill-rule:nonzero;stroke:none"
         d="m 1861.3,1273.18 c 0,-31.77 -26.53,-57.52 -59.26,-57.52 -32.72,0 -59.25,25.75 -59.25,57.52 0,31.78 26.53,57.52 59.25,57.52 32.73,0 59.26,-25.74 59.26,-57.52" /><path
         id="path152"
         style="fill:none;stroke:#000000;stroke-width:2.5;stroke-linecap:butt;stroke-linejoin:miter;stroke-miterlimit:4;stroke-dasharray:none;stroke-opacity:1"
         d="m 1861.3,1273.18 c 0,-31.77 -26.53,-57.52 -59.26,-57.52 -32.72,0 -59.25,25.75 -59.25,57.52 0,31.78 26.53,57.52 59.25,57.52 32.73,0 59.26,-25.74 59.26,-57.52 z" /><path
         id="path154"
         style="fill:#ffffff;fill-opacity:1;fill-rule:nonzero;stroke:none"
         d="m 3371.93,2844.52 -129.94,-62.68 c 0,0 -44.67,-22.33 -39.09,-71.19 5.6,-48.86 92.15,-258.27 92.15,-258.27 l 65.63,8.37 c 0,0 12.54,-2.8 22.32,-30.71 9.77,-27.92 -8.37,-75.4 -8.37,-75.4 l -39.09,-5.58 c 0,0 26.51,-44.68 61.43,-54.45 34.89,-9.77 39.08,9.77 47.46,20.94 8.37,11.18 37.69,50.27 37.69,50.27 0,0 25.97,39.89 0.85,87.36 -25.15,47.45 -141.84,303.53 -141.84,303.53 0,0 -13.85,65.47 30.8,87.81" /><path
         id="path156"
         style="fill:none;stroke:#000000;stroke-width:5;stroke-linecap:butt;stroke-linejoin:miter;stroke-miterlimit:4;stroke-dasharray:none;stroke-opacity:1"
         d="m 3371.93,2844.52 -129.94,-62.68 c 0,0 -44.67,-22.33 -39.09,-71.19 5.6,-48.86 92.15,-258.27 92.15,-258.27 l 65.63,8.37 c 0,0 12.54,-2.8 22.32,-30.71 9.77,-27.92 -8.37,-75.4 -8.37,-75.4 l -39.09,-5.58 c 0,0 26.51,-44.68 61.43,-54.45 34.89,-9.77 39.08,9.77 47.46,20.94 8.37,11.18 37.69,50.27 37.69,50.27 0,0 25.97,39.89 0.85,87.36 -25.15,47.45 -141.84,303.53 -141.84,303.53 0,0 -13.85,65.47 30.8,87.81 z" /><path
         id="path158"
         style="fill:#ffffff;fill-opacity:1;fill-rule:nonzero;stroke:none"
         d="m 3374.63,2843.28 c 0,0 48.86,6.97 69.8,-18.16 20.94,-25.12 166.13,-325.28 166.13,-325.28 0,0 46.08,-100.52 19.54,-139.61 -26.51,-39.09 -46.06,-51.66 -46.06,-51.66 l -167.52,-19.54 c 0,0 11.17,6.98 27.91,26.52 16.74,19.55 37.69,50.27 37.69,50.27 0,0 26.54,36.3 -2.77,94.93 -29.32,58.63 -136.84,290.38 -136.84,290.38 0,0 -29.31,78.19 32.12,92.15" /><path
         id="path160"
         style="fill:none;stroke:#000000;stroke-width:5;stroke-linecap:butt;stroke-linejoin:miter;stroke-miterlimit:4;stroke-dasharray:none;stroke-opacity:1"
         d="m 3374.63,2843.28 c 0,0 48.86,6.97 69.8,-18.16 20.94,-25.12 166.13,-325.28 166.13,-325.28 0,0 46.08,-100.52 19.54,-139.61 -26.51,-39.09 -46.06,-51.66 -46.06,-51.66 l -167.52,-19.54 c 0,0 11.17,6.98 27.91,26.52 16.74,19.55 37.69,50.27 37.69,50.27 0,0 26.54,36.3 -2.77,94.93 -29.32,58.63 -136.84,290.38 -136.84,290.38 0,0 -29.31,78.19 32.12,92.15 z" /><path
         id="path162"
         style="fill:#ffffff;fill-opacity:1;fill-rule:nonzero;stroke:none"
         d="m 3501.89,2640.84 c 10.81,-31.46 0.71,-57.31 -22.54,-57.69 -23.26,-0.39 -50.87,24.81 -61.65,56.3 -10.79,31.48 -0.7,57.31 22.55,57.69 23.26,0.39 50.84,-24.8 61.64,-56.3" /><path
         id="path164"
         style="fill:none;stroke:#000000;stroke-width:7.5;stroke-linecap:butt;stroke-linejoin:miter;stroke-miterlimit:4;stroke-dasharray:none;stroke-opacity:1"
         d="m 3501.89,2640.84 c 10.81,-31.46 0.71,-57.31 -22.54,-57.69 -23.26,-0.39 -50.87,24.81 -61.65,56.3 -10.79,31.48 -0.7,57.31 22.55,57.69 23.26,0.39 50.84,-24.8 61.64,-56.3 z" /><path
         id="path166"
         style="fill:#ffffff;fill-opacity:1;fill-rule:nonzero;stroke:none"
         d="m 3308.63,2813.08 c 0,0 -45.7,-35.49 -29.75,-102.26 15.98,-66.78 84.93,-218.53 84.93,-218.53 l -14.52,-4.35 -82.19,215.82 c 0,0 -19.43,83.2 41.53,109.32" /><path
         id="path168"
         style="fill:none;stroke:#000000;stroke-width:2.5;stroke-linecap:butt;stroke-linejoin:miter;stroke-miterlimit:4;stroke-dasharray:none;stroke-opacity:1"
         d="m 3308.63,2813.08 c 0,0 -45.7,-35.49 -29.75,-102.26 15.98,-66.78 84.93,-218.53 84.93,-218.53 l -14.52,-4.35 -82.19,215.82 c 0,0 -19.43,83.2 41.53,109.32 z" /><path
         id="path170"
         style="fill:#ffffff;fill-opacity:1;fill-rule:nonzero;stroke:none"
         d="m 2073.02,1335.31 c -10.36,39.12 -69.04,66.74 -69.04,66.74 l -207.52,83.46 -15.01,-41.27 c 0,0 -34.12,-21.97 -86.73,5.21 -42.12,21.74 -32.84,48.28 -32.84,48.28 l 12.38,32.02 c -48.86,7.11 -59.89,-9.4 -56.88,-42.56 3.45,-37.99 132.31,-88.62 132.31,-88.62 0,0 182.95,-64.41 257.73,-108.14 74.8,-43.73 13.81,-138.07 43.74,-81.68 29.91,56.35 32.21,87.44 21.86,126.56" /><path
         id="path172"
         style="fill:none;stroke:#000000;stroke-width:5;stroke-linecap:butt;stroke-linejoin:miter;stroke-miterlimit:4;stroke-dasharray:none;stroke-opacity:1"
         d="m 2073.02,1335.31 c -10.36,39.12 -69.04,66.74 -69.04,66.74 l -207.52,83.46 -15.01,-41.27 c 0,0 -34.12,-21.97 -86.73,5.21 -42.12,21.74 -32.84,48.28 -32.84,48.28 l 12.38,32.02 c -48.86,7.11 -59.89,-9.4 -56.88,-42.56 3.45,-37.99 132.31,-88.62 132.31,-88.62 0,0 182.95,-64.41 257.73,-108.14 74.8,-43.73 13.81,-138.07 43.74,-81.68 29.91,56.35 32.21,87.44 21.86,126.56 z" /><path
         id="path174"
         style="fill:#ffffff;fill-opacity:1;fill-rule:nonzero;stroke:none"
         d="m 2051.16,1208.75 c 0,0 18.4,71.33 2.29,96.64 -16.1,25.31 -42.56,44.88 -59.83,52.93 -17.26,8.07 -210.56,83.98 -210.56,83.98 l 8.05,10.36 209.42,-82.84 c 0,0 50.63,-29.9 59.84,-55.23 9.19,-25.31 -9.21,-105.84 -9.21,-105.84" /><path
         id="path176"
         style="fill:none;stroke:#000000;stroke-width:2.5;stroke-linecap:butt;stroke-linejoin:miter;stroke-miterlimit:4;stroke-dasharray:none;stroke-opacity:1"
         d="m 2051.16,1208.75 c 0,0 18.4,71.33 2.29,96.64 -16.1,25.31 -42.56,44.88 -59.83,52.93 -17.26,8.07 -210.56,83.98 -210.56,83.98 l 8.05,10.36 209.42,-82.84 c 0,0 50.63,-29.9 59.84,-55.23 9.19,-25.31 -9.21,-105.84 -9.21,-105.84 z" /><path
         id="path178"
         style="fill:#ffffff;fill-opacity:1;fill-rule:nonzero;stroke:none"
         d="m 1139.12,485.723 c 0,-50.645 -42.47,-91.661 -94.86,-91.661 -52.369,0 -94.846,41.016 -94.846,91.661 0,50.605 42.477,91.66 94.846,91.66 52.39,0 94.86,-41.055 94.86,-91.66" /><path
         id="path180"
         style="fill:none;stroke:#000000;stroke-width:5;stroke-linecap:butt;stroke-linejoin:miter;stroke-miterlimit:4;stroke-dasharray:none;stroke-opacity:1"
         d="m 1139.12,485.723 c 0,-50.645 -42.47,-91.661 -94.86,-91.661 -52.369,0 -94.846,41.016 -94.846,91.661 0,50.605 42.477,91.66 94.846,91.66 52.39,0 94.86,-41.055 94.86,-91.66 z" /><path
         id="path182"
         style="fill:#ffffff;fill-opacity:1;fill-rule:nonzero;stroke:none"
         d="m 1068.86,449.043 c 0,-19.082 -16,-34.531 -35.75,-34.531 -19.75,0 -35.77,15.449 -35.77,34.531 0,19.082 16.02,34.57 35.77,34.57 19.75,0 35.75,-15.488 35.75,-34.57" /><path
         id="path184"
         style="fill:none;stroke:#000000;stroke-width:2.5;stroke-linecap:butt;stroke-linejoin:miter;stroke-miterlimit:4;stroke-dasharray:none;stroke-opacity:1"
         d="m 1068.86,449.043 c 0,-19.082 -16,-34.531 -35.75,-34.531 -19.75,0 -35.77,15.449 -35.77,34.531 0,19.082 16.02,34.57 35.77,34.57 19.75,0 35.75,-15.488 35.75,-34.57 z" /><path
         id="path186"
         style="fill:#ffffff;fill-opacity:1;fill-rule:nonzero;stroke:none"
         d="m 1033.11,483.613 c -14.11,0 -26.18,-7.968 -32,-19.414 5.82,-11.465 17.89,-19.414 32,-19.414 14.09,0 26.17,7.949 31.99,19.414 -5.82,11.446 -17.9,19.414 -31.99,19.414" /><path
         id="path188"
         style="fill:none;stroke:#000000;stroke-width:2.5;stroke-linecap:butt;stroke-linejoin:miter;stroke-miterlimit:4;stroke-dasharray:none;stroke-opacity:1"
         d="m 1033.11,483.613 c -14.11,0 -26.18,-7.968 -32,-19.414 5.82,-11.465 17.89,-19.414 32,-19.414 14.09,0 26.17,7.949 31.99,19.414 -5.82,11.446 -17.9,19.414 -31.99,19.414 z" /><path
         id="path190"
         style="fill:#ffffff;fill-opacity:1;fill-rule:nonzero;stroke:none"
         d="m 3447.7,2756.68 c 7.9,-29.18 -3.29,-53.11 -25.03,-53.47 -21.78,-0.37 -45.82,22.98 -53.75,52.16 -7.91,29.16 3.29,53.1 25.03,53.47 21.76,0.36 45.82,-23 53.75,-52.16" /><path
         id="path192"
         style="fill:none;stroke:#000000;stroke-width:7.5;stroke-linecap:butt;stroke-linejoin:miter;stroke-miterlimit:4;stroke-dasharray:none;stroke-opacity:1"
         d="m 3447.7,2756.68 c 7.9,-29.18 -3.29,-53.11 -25.03,-53.47 -21.78,-0.37 -45.82,22.98 -53.75,52.16 -7.91,29.16 3.29,53.1 25.03,53.47 21.76,0.36 45.82,-23 53.75,-52.16 z" /><path
         id="path194"
         style="fill:#ffffff;fill-opacity:1;fill-rule:nonzero;stroke:none"
         d="m 3501.89,2640.84 c -10.8,31.5 -38.38,56.69 -61.64,56.3 -10.7,-0.17 -18.55,-5.77 -22.95,-14.79 21.33,-4.43 44.25,-27.42 53.86,-55.46 5.85,-17.01 5.55,-32.32 0.39,-42.92 2.63,-0.55 5.24,-0.86 7.8,-0.82 23.25,0.38 33.35,26.23 22.54,57.69 z m -84.91,101.87 c 4.11,-15.17 2.96,-28.86 -2.06,-38.62 2.58,-0.59 5.19,-0.93 7.75,-0.88 21.74,0.36 32.93,24.29 25.03,53.47 -7.93,29.16 -31.99,52.52 -53.75,52.16 -10.4,-0.18 -18.33,-5.88 -22.97,-14.85 19.46,-4.4 39,-25.54 46,-51.28" /><path
         id="path196"
         style="fill:none;stroke:#000000;stroke-width:2.5;stroke-linecap:butt;stroke-linejoin:miter;stroke-miterlimit:4;stroke-dasharray:none;stroke-opacity:1"
         d="m 3501.89,2640.84 c -10.8,31.5 -38.38,56.69 -61.64,56.3 -10.7,-0.17 -18.55,-5.77 -22.95,-14.79 21.33,-4.43 44.25,-27.42 53.86,-55.46 5.85,-17.01 5.55,-32.32 0.39,-42.92 2.63,-0.55 5.24,-0.86 7.8,-0.82 23.25,0.38 33.35,26.23 22.54,57.69 z m -84.91,101.87 c 4.11,-15.17 2.96,-28.86 -2.06,-38.62 2.58,-0.59 5.19,-0.93 7.75,-0.88 21.74,0.36 32.93,24.29 25.03,53.47 -7.93,29.16 -31.99,52.52 -53.75,52.16 -10.4,-0.18 -18.33,-5.88 -22.97,-14.85 19.46,-4.4 39,-25.54 46,-51.28 z" /><path
         id="path198"
         style="fill:#ffffff;fill-opacity:1;fill-rule:nonzero;stroke:none"
         d="m 4553.34,1432.89 c 0,0 -17.27,-31.07 -18.97,-55.23 -1.73,-24.14 5.16,-34.5 5.16,-34.5 0,0 67.34,-151.87 119.1,-415.933 51.77,-264.082 81.12,-517.793 81.12,-517.793 0,0 -6.92,-6.895 22.43,-37.969 29.34,-31.055 56.95,-39.688 56.95,-39.688 0,0 -35.65,408.34 -100.08,690.373 -77.68,339.98 -165.71,410.74 -165.71,410.74" /><path
         id="path200"
         style="fill:none;stroke:#000000;stroke-width:10;stroke-linecap:butt;stroke-linejoin:miter;stroke-miterlimit:4;stroke-dasharray:none;stroke-opacity:1"
         d="m 4553.34,1432.89 c 0,0 -17.27,-31.07 -18.97,-55.23 -1.73,-24.14 5.16,-34.5 5.16,-34.5 0,0 67.34,-151.87 119.1,-415.933 51.77,-264.082 81.12,-517.793 81.12,-517.793 0,0 -6.92,-6.895 22.43,-37.969 29.34,-31.055 56.95,-39.688 56.95,-39.688 0,0 -35.65,408.34 -100.08,690.373 -77.68,339.98 -165.71,410.74 -165.71,410.74 z" /><path
         id="path202"
         style="fill:#ffffff;fill-opacity:1;fill-rule:nonzero;stroke:none"
         d="m 3719.91,2409.67 c 0,0 -19.84,32.44 28.82,48.67 48.7,16.21 72.11,-30.66 72.11,-30.66 0,0 43.26,-84.72 59.49,-131.57 16.22,-46.89 16.22,-61.3 16.22,-61.3 0,0 10.81,-25.24 -34.26,-32.44 -45.04,-7.23 -57.67,18.02 -57.67,18.02 0,0 -36.04,122.57 -84.71,189.28" /><path
         id="path204"
         style="fill:none;stroke:#000000;stroke-width:10;stroke-linecap:butt;stroke-linejoin:miter;stroke-miterlimit:4;stroke-dasharray:none;stroke-opacity:1"
         d="m 3719.91,2409.67 c 0,0 -19.84,32.44 28.82,48.67 48.7,16.21 72.11,-30.66 72.11,-30.66 0,0 43.26,-84.72 59.49,-131.57 16.22,-46.89 16.22,-61.3 16.22,-61.3 0,0 10.81,-25.24 -34.26,-32.44 -45.04,-7.23 -57.67,18.02 -57.67,18.02 0,0 -36.04,122.57 -84.71,189.28 z" /><path
         id="path206"
         style="fill:#ffffff;fill-opacity:1;fill-rule:nonzero;stroke:none"
         d="m 1585.13,1080.53 c -39.36,-45.28 -14.81,-67.82 -13.78,-82.678 0,0 112.19,-70.86 210.6,-127.93 98.4,-57.051 157.44,-92.5 289.3,-98.399 136.04,-6.093 631,-5.488 822.71,19.688 187.37,24.59 228.27,31.484 228.27,31.484 l -51.16,110.215 c 0,0 -330.64,-49.199 -653.43,-60.996 -240.34,-8.809 -314.89,-3.965 -375.91,7.852 -61.02,11.796 -141.69,53.144 -141.69,53.144 l -236.17,147.62 c 0,0 -49.28,33.86 -78.74,0" /><path
         id="path208"
         style="fill:none;stroke:#000000;stroke-width:10;stroke-linecap:butt;stroke-linejoin:miter;stroke-miterlimit:4;stroke-dasharray:none;stroke-opacity:1"
         d="m 1585.13,1080.53 c -39.36,-45.28 -14.81,-67.82 -13.78,-82.678 0,0 112.19,-70.86 210.6,-127.93 98.4,-57.051 157.44,-92.5 289.3,-98.399 136.04,-6.093 631,-5.488 822.71,19.688 187.37,24.59 228.27,31.484 228.27,31.484 l -51.16,110.215 c 0,0 -330.64,-49.199 -653.43,-60.996 -240.34,-8.809 -314.89,-3.965 -375.91,7.852 -61.02,11.796 -141.69,53.144 -141.69,53.144 l -236.17,147.62 c 0,0 -49.28,33.86 -78.74,0 z" /><path
         id="path210"
         style="fill:#ffffff;fill-opacity:1;fill-rule:nonzero;stroke:none"
         d="m 3271.36,2795.97 c 35.88,17.12 95.88,46.19 95.88,46.19 0,0 7.6,1.02 17.52,1.51 -35.09,67.47 -110.08,161.98 -110.08,161.98 0,0 -340.81,528.98 -949.34,649.74 -216.48,42.94 -410.59,48.04 -570.9,36.8 -101.14,-12.42 -200.77,-32.25 -298.07,-58.96 182.71,32.15 449.1,50.81 763.18,-12.35 600.48,-120.75 936.77,-649.73 936.77,-649.73 0,0 84.3,-107.64 115.04,-175.18" /><path
         id="path212"
         style="fill:none;stroke:#000000;stroke-width:5;stroke-linecap:butt;stroke-linejoin:miter;stroke-miterlimit:4;stroke-dasharray:none;stroke-opacity:1"
         d="m 3271.36,2795.97 c 35.88,17.12 95.88,46.19 95.88,46.19 0,0 7.6,1.02 17.52,1.51 -35.09,67.47 -110.08,161.98 -110.08,161.98 0,0 -340.81,528.98 -949.34,649.74 -216.48,42.94 -410.59,48.04 -570.9,36.8 -101.14,-12.42 -200.77,-32.25 -298.07,-58.96 182.71,32.15 449.1,50.81 763.18,-12.35 600.48,-120.75 936.77,-649.73 936.77,-649.73 0,0 84.3,-107.64 115.04,-175.18 z" /><path
         id="path214"
         style="fill:#ffffff;fill-opacity:1;fill-rule:nonzero;stroke:none"
         d="m 2382.18,2090.15 c 0,0 -7.84,57.1 37.42,84.65 45.26,27.54 92.47,-31.5 92.47,-31.5 0,0 387.77,-834.47 446.81,-946.66 59.04,-112.19 295.21,-623.886 336.52,-680.976 41.35,-57.07 173.21,-245.996 395.6,-281.445 222.41,-35.41 421.17,-3.946 558.93,15.761 137.78,19.688 312.93,55.098 375.93,86.582 62.97,31.504 76.75,62.989 76.75,62.989 0,0 59.04,21.66 94.48,-25.586 35.41,-47.227 15.73,-78.711 -29.54,-110.195 -45.26,-31.524 -224.35,-76.778 -257.8,-88.594 C 4476.29,163.379 4088.57,100.41 3946.87,86.6211 3805.15,72.8516 3594.55,118.086 3431.2,216.523 3267.84,314.922 3202.9,411.367 3149.76,513.691 3096.61,616.055 2795.5,1245.82 2795.5,1245.82 l -413.32,844.33" /><path
         id="path216"
         style="fill:none;stroke:#000000;stroke-width:10;stroke-linecap:butt;stroke-linejoin:miter;stroke-miterlimit:4;stroke-dasharray:none;stroke-opacity:1"
         d="m 2382.18,2090.15 c 0,0 -7.84,57.1 37.42,84.65 45.26,27.54 92.47,-31.5 92.47,-31.5 0,0 387.77,-834.47 446.81,-946.66 59.04,-112.19 295.21,-623.886 336.52,-680.976 41.35,-57.07 173.21,-245.996 395.6,-281.445 222.41,-35.41 421.17,-3.946 558.93,15.761 137.78,19.688 312.93,55.098 375.93,86.582 62.97,31.504 76.75,62.989 76.75,62.989 0,0 59.04,21.66 94.48,-25.586 35.41,-47.227 15.73,-78.711 -29.54,-110.195 -45.26,-31.524 -224.35,-76.778 -257.8,-88.594 C 4476.29,163.379 4088.57,100.41 3946.87,86.6211 3805.15,72.8516 3594.55,118.086 3431.2,216.523 3267.84,314.922 3202.9,411.367 3149.76,513.691 3096.61,616.055 2795.5,1245.82 2795.5,1245.82 l -413.32,844.33 z" /><path
         id="path218"
         style="fill:#ffffff;fill-opacity:1;fill-rule:nonzero;stroke:none"
         d="m 1872.48,1694.57 c 0,0 -25.59,9.84 -59.05,-29.53 -33.46,-39.34 5.9,-90.53 5.9,-90.53 0,0 334.59,-277.5 415.28,-340.49 80.69,-62.97 190.92,-159.43 277.52,-188.94 86.57,-29.49 115.95,-28.05 204.67,-19.67 104.31,9.82 911.24,112.19 1110.03,149.57 198.79,37.38 411.33,82.66 503.83,104.3 92.52,21.66 210.6,41.34 228.3,84.63 17.71,43.32 -13.77,110.21 -41.33,108.26 -27.53,-1.97 17.73,-21.66 -72.81,-57.09 -36.09,-14.14 -184.78,-48.5 -226.34,-55.1 -259.78,-41.33 -751.85,-118.09 -751.85,-118.09 l -665.2,-86.6 c 0,0 -151.53,-15.76 -173.19,-17.69 -21.65,-1.98 -50.94,-10.33 -127.94,33.45 -100.35,57.07 -627.82,523.52 -627.82,523.52" /><path
         id="path220"
         style="fill:none;stroke:#000000;stroke-width:10;stroke-linecap:butt;stroke-linejoin:miter;stroke-miterlimit:4;stroke-dasharray:none;stroke-opacity:1"
         d="m 1872.48,1694.57 c 0,0 -25.59,9.84 -59.05,-29.53 -33.46,-39.34 5.9,-90.53 5.9,-90.53 0,0 334.59,-277.5 415.28,-340.49 80.69,-62.97 190.92,-159.43 277.52,-188.94 86.57,-29.49 115.95,-28.05 204.67,-19.67 104.31,9.82 911.24,112.19 1110.03,149.57 198.79,37.38 411.33,82.66 503.83,104.3 92.52,21.66 210.6,41.34 228.3,84.63 17.71,43.32 -13.77,110.21 -41.33,108.26 -27.53,-1.97 17.73,-21.66 -72.81,-57.09 -36.09,-14.14 -184.78,-48.5 -226.34,-55.1 -259.78,-41.33 -751.85,-118.09 -751.85,-118.09 l -665.2,-86.6 c 0,0 -151.53,-15.76 -173.19,-17.69 -21.65,-1.98 -50.94,-10.33 -127.94,33.45 -100.35,57.07 -627.82,523.52 -627.82,523.52 z" /><path
         id="path222"
         style="fill:#ffffff;fill-opacity:1;fill-rule:nonzero;stroke:none"
         d="m 4016.59,1225.78 c 0,0 10.34,27.62 58.68,36.23 48.32,8.65 53.5,-29.31 53.5,-29.31 0,0 82.85,-176.06 179.5,-519.497 96.64,-343.457 101.84,-440.117 101.84,-440.117 l 3.46,-48.32 c 0,0 1.72,-60.43 -41.43,-43.164 -43.14,17.265 -48.34,37.988 -48.34,37.988 0,0 -63.27,277.129 -129.44,540.215 -69.05,274.415 -174.31,447.015 -174.31,447.015 0,0 -10.35,15.5 -3.46,18.96" /><path
         id="path224"
         style="fill:none;stroke:#000000;stroke-width:10;stroke-linecap:butt;stroke-linejoin:miter;stroke-miterlimit:4;stroke-dasharray:none;stroke-opacity:1"
         d="m 4016.59,1225.78 c 0,0 10.34,27.62 58.68,36.23 48.32,8.65 53.5,-29.31 53.5,-29.31 0,0 82.85,-176.06 179.5,-519.497 96.64,-343.457 101.84,-440.117 101.84,-440.117 l 3.46,-48.32 c 0,0 1.72,-60.43 -41.43,-43.164 -43.14,17.265 -48.34,37.988 -48.34,37.988 0,0 -63.27,277.129 -129.44,540.215 -69.05,274.415 -174.31,447.015 -174.31,447.015 0,0 -10.35,15.5 -3.46,18.96 z" /><path
         id="path226"
         style="fill:#ffffff;fill-opacity:1;fill-rule:nonzero;stroke:none"
         d="m 3236.8,2121.24 c 0,0 -7.22,41.47 43.26,55.89 50.48,14.42 75.73,-43.26 75.73,-43.26 0,0 109.94,-283.01 182.05,-477.7 72.11,-194.67 140.63,-443.46 140.63,-443.46 0,0 1.77,-28.84 -37.88,-32.44 -39.64,-3.59 -66.68,23.44 -66.68,23.44 0,0 -137,441.65 -200.11,594.88 -59.04,143.39 -137,322.65 -137,322.65" /><path
         id="path228"
         style="fill:none;stroke:#000000;stroke-width:10;stroke-linecap:butt;stroke-linejoin:miter;stroke-miterlimit:4;stroke-dasharray:none;stroke-opacity:1"
         d="m 3236.8,2121.24 c 0,0 -7.22,41.47 43.26,55.89 50.48,14.42 75.73,-43.26 75.73,-43.26 0,0 109.94,-283.01 182.05,-477.7 72.11,-194.67 140.63,-443.46 140.63,-443.46 0,0 1.77,-28.84 -37.88,-32.44 -39.64,-3.59 -66.68,23.44 -66.68,23.44 0,0 -137,441.65 -200.11,594.88 -59.04,143.39 -137,322.65 -137,322.65 z" /></g></g></svg>