<?xml version="1.0" encoding="UTF-8"?>
<svg width="105px" height="45px" viewBox="0 0 105 45" version="1.1" xmlns="http://www.w3.org/2000/svg" xmlns:xlink="http://www.w3.org/1999/xlink">
    <!-- Generator: Sketch 53.2 (72643) - https://sketchapp.com -->
    <title>chime-header-logo</title>
    <desc>Created with Sketch.</desc>
    <defs>
        <linearGradient x1="-0.0342465753%" y1="49.9563167%" x2="100.034247%" y2="49.9563167%" id="linearGradient-1">
            <stop stop-color="#62A73B" offset="0%"></stop>
            <stop stop-color="#8DC63F" offset="80%"></stop>
        </linearGradient>
        <linearGradient x1="-0.0252525253%" y1="50.3392472%" x2="99.9747475%" y2="50.3392472%" id="linearGradient-2">
            <stop stop-color="#62A73B" offset="0%"></stop>
            <stop stop-color="#8DC63F" offset="80%"></stop>
        </linearGradient>
        <linearGradient x1="0.0192122959%" y1="49.9873742%" x2="100.009606%" y2="49.9873742%" id="linearGradient-3">
            <stop stop-color="#62A73B" offset="0%"></stop>
            <stop stop-color="#8DC63F" offset="80%"></stop>
        </linearGradient>
        <linearGradient x1="-0.0125%" y1="49.8164515%" x2="99.9375%" y2="49.8164515%" id="linearGradient-4">
            <stop stop-color="#62A73B" offset="0%"></stop>
            <stop stop-color="#8DC63F" offset="80%"></stop>
        </linearGradient>
    </defs>
    <g id="Page-1" stroke="none" stroke-width="1" fill="none" fill-rule="evenodd">
        <g id="chime-header-logo" fill-rule="nonzero">
            <path d="M45.6253582,8.00847458 C48.7997675,7.50846384 51.9436372,9.07504387 53.4928367,11.9288136 L54.2750716,11.4711864 C52.5240547,8.3070716 49.0300033,6.5658463 45.4899713,7.09322034 L45.6253582,8.00847458 Z" id="Path" fill="url(#linearGradient-1)"></path>
            <path d="M45.9863897,10.4949153 C48.1394497,10.1551192 50.2725513,11.2153223 51.3266476,13.1491525 L51.8531519,12.8440678 C50.6796005,10.6845766 48.2981138,9.50150422 45.8961318,9.88474576 L45.9863897,10.4949153 Z" id="Path" fill="url(#linearGradient-2)"></path>
            <path d="M44.7227794,1.83050847 C50.4137935,0.977097193 56.0335761,3.7748637 58.8481375,8.86271186 L60.1568768,8.11525424 C57.0367234,2.47467492 50.8061885,-0.626684674 44.4971347,0.320338983 L44.7227794,1.83050847 Z" id="Path" fill="url(#linearGradient-3)"></path>
            <path d="M45.2041547,5.11016949 C49.5574444,4.45902767 53.8550418,6.60158579 56.0050143,10.4949153 L57.0580229,9.9 C54.6584222,5.56805012 49.8700012,3.18877297 45.023639,3.92033898 L45.2041547,5.11016949 Z" id="Path" fill="url(#linearGradient-4)"></path>
            <path d="M18.3223496,38.3033898 L21.4362464,38.3033898 C20.493553,40.3881356 19.1346705,42.020339 17.3595989,43.2 C15.5722356,44.3839485 13.4771049,45.0000691 11.3424069,44.9694915 C8.2034384,44.9694915 5.53080229,43.9169492 3.32449857,41.8118644 C1.11819484,39.7067797 0.0150429799,37.0779661 0.0150429799,33.9254237 C0.0150429799,30.8440678 1.1282235,28.2457627 3.35458453,26.1305085 C5.58094556,24.0152542 8.21346705,22.9576271 11.252149,22.9576271 C13.4649803,22.9475965 15.6314768,23.6003052 17.4799427,24.8338983 C19.3212035,26.0058671 20.7322411,27.7582609 21.4964183,29.8220339 L18.3223496,29.8220339 C17.5971493,28.5697871 16.5594764,27.5333252 15.3137536,26.8169492 C14.0882336,26.0816537 12.6911559,25.6919302 11.267192,25.6881356 C8.94054441,25.6881356 6.94985673,26.4711864 5.29512894,28.0372881 C3.64040115,29.6033898 2.81303725,31.5508475 2.81303725,33.879661 C2.81303725,36.2186441 3.61031519,38.2016949 5.20487106,39.8288136 C6.79942693,41.4559322 8.74498567,42.2644068 11.0415473,42.2542373 C14.0401146,42.2542373 16.4670487,40.9372881 18.3223496,38.3033898 Z" id="Path" fill="#FFFFFF"></path>
            <path d="M24.4749284,44.4661017 L24.4749284,16.0322034 L27.2879656,16.0322034 L27.2879656,26.4508475 C27.8762721,25.3428053 28.7842436,24.443371 29.8904011,23.8728814 C31.0289106,23.2567649 32.300496,22.9370249 33.5909742,22.9423729 C36.4792264,22.9423729 38.8510029,24.020339 40.7063037,26.1762712 C42.1604585,27.8440678 42.8775072,30.2440678 42.8574499,33.3762712 L42.8574499,44.4661017 L40.0444126,44.4661017 L40.0444126,33.3762712 C40.0444126,31.2 39.6382521,29.5220339 38.8259312,28.3423729 C37.5924069,26.5728814 35.8073066,25.6881356 33.4706304,25.6881356 C32.48369,25.6940056 31.5111613,25.9288119 30.6275072,26.3745763 C29.7274514,26.804441 28.9468848,27.454438 28.3560172,28.2661017 C27.6540115,29.2423729 27.3030086,30.9457627 27.3030086,33.3762712 L27.3030086,44.4661017 L24.4749284,44.4661017 Z" id="Path" fill="#FFFFFF"></path>
            <path d="M104.984957,34.9627119 L86.2113181,34.9627119 C86.2815186,36.9457627 87.1138968,38.659322 88.7084527,40.1033898 C90.3030086,41.5474576 92.0680516,42.2644068 94.0035817,42.2542373 C95.572524,42.2567374 97.1122799,41.824193 98.4563037,41.0033898 C99.7957438,40.2365017 100.852011,39.04758 101.4649,37.6169492 L104.398281,37.6169492 C103.666189,39.7423729 102.347421,41.5016949 100.441977,42.8949153 C98.536533,44.2881356 96.4856734,44.979661 94.2893983,44.9694915 C91.2507163,44.9694915 88.6733524,43.9067797 86.5573066,41.7813559 C84.4412607,39.6559322 83.3832378,37.0474576 83.3832378,33.9559322 C83.3832378,30.8949153 84.4312321,28.2966102 86.5272206,26.1610169 C88.6232092,24.0254237 91.1805158,22.9525424 94.1991404,22.9423729 C97.5587393,22.9423729 100.336676,24.3 102.532951,27.0152542 C103.397204,28.0460366 104.033296,29.2528578 104.398281,30.5542373 C104.761443,31.9957503 104.95832,33.4751476 104.984957,34.9627119 Z M86.2113181,32.3847458 L102.186963,32.3847458 C101.825931,30.5033898 100.888252,28.9118644 99.3739255,27.6101695 C97.8595989,26.3084746 96.1547278,25.6627119 94.2593123,25.6728814 C92.3411405,25.6536991 90.4792914,26.3299155 89.0093123,27.579661 C87.5227661,28.775385 86.525921,30.487299 86.2113181,32.3847458 Z" id="Shape" fill="#FFFFFF"></path>
            <path d="M79.487106,26.1457627 C78.0429799,24.3610169 75.6361032,22.9576271 73.0336676,22.9576271 C71.7595362,22.9615288 70.5016535,23.2478763 69.3481375,23.7966102 C68.20471,24.3048958 67.2136615,25.1099212 66.4749284,26.1305085 C66.4247413,26.2622437 66.3643821,26.3897581 66.2944126,26.5118644 L66.0687679,26.9389831 C65.9582311,26.8280124 65.866718,26.699126 65.7979943,26.5576271 C65.724936,26.4259985 65.6445779,26.2986756 65.5573066,26.1762712 L65.5573066,26.1305085 C64.8190916,25.1094176 63.8278965,24.3042731 62.6840974,23.7966102 C61.5305814,23.2478763 60.2726987,22.9615288 58.9985673,22.9576271 L58.7879656,22.9576271 L58.2313754,22.9881356 L57.9906877,22.9881356 L57.7048711,23.0338983 C55.6789906,23.2990449 53.8259838,24.3284264 52.515043,25.9169492 C51.1010029,27.5949153 50.5895415,29.5474576 50.5895415,32.4457627 L50.5895415,44.4661017 L53.4176218,44.4661017 L53.4176218,32.4152542 C53.4176218,32.2779661 53.4326648,32.1711864 53.4326648,32.0338983 C53.5078797,30.340678 53.8237822,29.0288136 54.4255014,28.1745763 C55.5687679,26.5372881 57.1081662,25.7084746 59.0436963,25.6881356 C60.9792264,25.6677966 62.4985673,26.5118644 63.6017192,28.220339 C64.0078797,28.8305085 64.2786533,29.5932203 64.4290831,30.4932203 C64.5224969,31.2317629 64.5677242,31.9757537 64.5644699,32.720339 L64.5644699,44.4661017 L67.4075931,44.4661017 L67.4075931,32.7050847 C67.4075931,30.4576271 67.6984241,28.9067797 68.280086,28.0525424 C68.8007624,27.3136124 69.4931285,26.7163125 70.2958453,26.3135593 C71.0933585,25.8860861 71.9811717,25.6610158 72.8832378,25.6576271 C74.8588825,25.6576271 76.4233524,26.4915254 77.5766476,28.159322 C78.258596,29.1254237 78.5995702,30.6355932 78.5995702,32.6898305 L78.5995702,44.4661017 L81.4126074,44.4661017 L81.4126074,32.4610169 C81.4126074,29.5474576 80.9462751,27.9305085 79.487106,26.1457627 Z" id="Path" fill="#FFFFFF"></path>
            <path d="M51.0558739,20.4711864 C49.2055874,20.4711864 47.7313754,20.0440678 46.512894,19.7237288 C45.2944126,19.4033898 42.8123209,19.3423729 40.8567335,19.3423729 C37.9835244,19.3423729 37.3667622,16.4898305 37.8481375,13.5762712 C37.3216332,14.6440678 35.6969914,18.7322034 39.2772206,20.6847458 C42.5716332,22.3169492 45.2492837,26.5423729 45.2492837,30.7372881 L45.2492837,44.4813559 L48.2127507,44.4813559 L48.2127507,30.7372881 C48.2127507,26.6186441 50.7851003,23.3389831 54.004298,21.6762712 C55.508596,20.8983051 59.4498567,19.3271186 59.8710602,18.3355932 C59.8861032,18.3355932 54.7113181,20.4711864 51.0558739,20.4711864 Z" id="Path" fill="#FFFFFF"></path>
            <path d="M49.6869628,15.7728814 C49.6869628,17.4156945 48.3736433,18.7474576 46.7535817,18.7474576 C45.13352,18.7474576 43.8202006,17.4156945 43.8202006,15.7728814 C43.8202006,14.1300682 45.13352,12.7983051 46.7535817,12.7983051 C48.3736433,12.7983051 49.6869628,14.1300682 49.6869628,15.7728814 L49.6869628,15.7728814 Z" id="Path" fill="#FFFFFF"></path>
        </g>
    </g>
</svg>