<?xml version="1.0" encoding="utf-8"?>
<!-- Generator: Adobe Illustrator 16.0.3, SVG Export Plug-In . SVG Version: 6.00 Build 0)  -->
<!DOCTYPE svg PUBLIC "-//W3C//DTD SVG 1.1//EN" "http://www.w3.org/Graphics/SVG/1.1/DTD/svg11.dtd">
<svg version="1.1" id="Layer_1" xmlns="http://www.w3.org/2000/svg" xmlns:xlink="http://www.w3.org/1999/xlink" x="0px" y="0px"
	 width="432px" height="432px" viewBox="0 0 432 432" enable-background="new 0 0 432 432" xml:space="preserve">
<g>
	<path d="M192.817,311.508c-12.992-5.838-20.756-19.369-19.238-33.531c0.004-0.032,0.008-0.074,0.012-0.109
		c-4.824,3.972-11.002,6.357-17.736,6.357c-15.426,0-27.926-12.504-27.926-27.926s12.5-27.926,27.926-27.926
		c10.902,0,20.338,6.253,24.936,15.363c6.957-23.31,20.215-53.292,45.012-73.579c39.986-32.719,93.026-34.7,114.498-35.237
		c-2.736-9.898-7.41-21.864-15.424-33.856c-17.275-25.851-53.844-56.665-129.945-56.665c-100.879,0-150.354,70.213-159.541,127.623
		c-8.037,50.217,14.889,134.231,15.869,137.783c1.207,4.373,5.65,7.022,10.078,6.029c10.945-2.514,42.633-4.201,63.191,12.93
		c10.033,8.362,36.627,27.81,66.777,27.812c0.002,0,0.002,0,0.004,0c32.586,0,50.749-22.832,57-31.755
		C226.334,321.667,201.669,315.484,192.817,311.508z"/>
	<path d="M388.345,285.576c-36.029,0-65.434-1.298-89.17-3.193l0.67-94.849c14.658-3.257,31.693-4.864,51.264-4.864
		c19.732,0,19.732-29.926,0-29.926c-17.286,0-74.794-0.717-113.938,31.31c-38.439,31.45-45.459,93.221-45.738,95.835
		c-0.689,6.438,2.705,12.906,8.744,15.241c19.489,7.537,40.823,9.87,68.881,14.363c1.608,7.174-12.165,62.969,39.742,74.002
		c16.323,3.47,35.391,1.799,51.793-9.098c32.705-21.727,42.066-69.049,42.449-71.053
		C404.534,295.524,398.41,285.576,388.345,285.576z M269.845,279.376c-6.913-0.855-33.345-4.626-46.588-8.231
		c5.892-27.762,18.338-58.029,46.588-72.98V279.376z M343.962,349.519c-8.361,5.528-17.828,7.067-28.939,4.705
		c-9.98-2.121-16.17-6.989-16.18-24.674l0.121-17.166c19.527,1.51,42.477,2.61,69.287,2.981
		C363.431,327.554,355.493,341.896,343.962,349.519z"/>
</g>
</svg>
