<?xml version="1.0" encoding="UTF-8" standalone="no"?>
<svg
   xmlns:dc="http://purl.org/dc/elements/1.1/"
   xmlns:cc="http://creativecommons.org/ns#"
   xmlns:rdf="http://www.w3.org/1999/02/22-rdf-syntax-ns#"
   xmlns:svg="http://www.w3.org/2000/svg"
   xmlns="http://www.w3.org/2000/svg"
   xml:space="preserve"
   y="0px"
   x="0px"
   id="Layer_1"
   version="1.1"><metadata
     id="metadata4426"><rdf:RDF><cc:Work
         rdf:about=""><dc:format>image/svg+xml</dc:format><dc:type
           rdf:resource="http://purl.org/dc/dcmitype/StillImage" /><dc:title></dc:title></cc:Work></rdf:RDF></metadata><defs
     id="defs4424" />
  <g
     transform="translate(0,0)"
     id="g4400">
  <path id="n0" style="fill:Green" d="m 1,28.1 0,-3.1 c 0,-16.8 5.1,-24.6 14.2,-24.6 8.9,0 14,7.8 14,24.6 l 0,3.1 c 0,16.8 -5.2,24.6 -14.1,24.6 -9,0 -14.1,-7.8 -14.1,-24.6 z m 17.5,0.6 0,-4.3 c 0,-11.9 -1.4,-14 -3.4,-14 -2,0 -3.4,2.2 -3.4,14 l 0,4.3 c 0,11.8 1.4,14 3.4,14 2,0 3.4,-2.2 3.4,-14 z" />
  <path id="n1" style="fill:Green" d="m 8,12.7 -5.2,1.6 0,-10.5 8.3,-2.6 7.7,0 0,50.6 -10.8,0 0,-39.1 z" />
  <path id="n2" style="fill:Green" d="m 1,42.4 9.4,-18 c 2.5,-5 3.4,-7.1 3.4,-9.1 0,-2.3 -1.3,-4.2 -4.3,-4.2 -2.6,0 -4.9,0.9 -7.4,2.3 l 0,-10.4 c 2.7,-1.2 6,-2.3 10.2,-2.3 7.1,0 12.2,4.3 12.2,12.2 l 0,0.4 c 0,4.4 -1.2,7.9 -4,13.1 l -8.1,14.9 11.9,0 0,10.7 -23.2,0 0,-9.6 z" />
  <path id="n3" style="fill:Green" d="m 2,51.1 0,-10.2 c 2.2,0.9 4.2,1.4 6.9,1.4 3.5,0 5.8,-2.2 5.8,-5.8 l 0,-0.4 c 0,-4.2 -3.3,-6.2 -9.1,-6.6 l 0,-7.1 8.1,-10.8 -11.1,0 0,-10.3 22.4,0 0,9.5 -8.8,11.6 c 5.1,1.7 9.1,5.1 9.1,13.2 l 0,0.6 c 0,10.2 -6.2,16.2 -14.8,16.2 -3.6,0.2 -6.2,-0.3 -8.5,-1.3 z" />
  <path id="n4" style="fill:Green" d="m 15,43.2 -14.3,0 0,-7.8 13.8,-34.1 10.7,0 0,32.8 4.1,0 0,9.1 -4.1,0 0,8.6 -10.2,0 0,-8.6 z m 0.1,-9.1 0,-16.1 -5.8,16.1 5.8,0 z" />
  <path id="n5" style="fill:Green" d="m 1,51.2 0,-10.4 c 1.9,0.9 4,1.5 6.5,1.5 3.7,0 6.1,-2.7 6.1,-7.1 l 0,-0.4 c 0,-4.3 -2,-6 -4.7,-6 -1.3,0 -2.2,0.1 -3.2,0.6 l -5,-2.9 1.3,-25.1 20.4,0 0,10.2 -12.3,0 -0.5,8 c 0.6,-0.1 1.4,-0.1 2.3,-0.1 6.6,0 12.5,4 12.5,15 l 0,0.6 c 0,11.4 -6.4,17.5 -15.6,17.5 -3,0 -5.9,-0.6 -7.8,-1.4 z" />
  <path id="n6" style="fill:Green" d="m 6,49.5 c -3.5,-3.5 -5.3,-10.4 -5.3,-21.2 l 0,-1.4 c 0,-20.9 7.2,-26.2 16.1,-26.2 2.7,0 4.9,0.4 6.8,1 l 0,9.9 c -1.6,-0.8 -3.7,-1.4 -5.9,-1.4 -4,0 -6.6,2.7 -6.6,10.4 1.5,-1.1 3.5,-1.7 5.6,-1.7 5.1,0 10.4,3.2 10.4,14.5 l 0,1.9 c 0,11.2 -5.6,17.4 -12.8,17.4 -3.5,0 -6.2,-1 -8.3,-3.2 z m 10.8,-13.8 0,-1.9 c 0,-5 -1.4,-6.5 -3.3,-6.5 -1.1,0 -1.9,0.4 -2.5,0.8 l 0,6.6 c 0,6.6 1.2,8.8 3,8.8 1.8,0 2.8,-1.9 2.8,-7.8 z" />
  <path id="n7" style="fill:Green" d="m 13,11.9 -11.9,0 0,-10.6 22.7,0 0,6.9 -9.3,43.5 -10.4,0 8.9,-39.8 z" />
  <path id="n8" style="fill:Green" d="m 1,38 0,-0.6 c 0,-5.9 2.5,-10.1 5.7,-12.3 -3.2,-2.3 -5.1,-6 -5.1,-10.7 l 0,-0.5 c 0,-8.1 5.4,-13.5 12.7,-13.5 7.3,0 12.7,5.3 12.7,13.4 l 0,0.5 c 0,4.6 -1.9,8.4 -5.2,10.7 3.2,2.2 5.8,6.3 5.8,12.3 l 0,0.6 c 0,9.1 -5.4,14.8 -13.4,14.8 -7.9,0 -13.2,-5.6 -13.2,-14.7 z m 16.4,-0.8 0,-0.6 c 0,-5.1 -1.2,-7 -3,-7 -1.8,0 -3.1,1.9 -3.1,7 l 0,0.6 c 0,5.3 1.4,6.9 3.1,6.9 1.7,0 3,-1.6 3,-6.9 z m -0.3,-21.7 0,-0.5 c 0,-4.7 -1.2,-6.1 -2.8,-6.1 -1.6,0 -2.8,1.4 -2.8,6.1 l 0,0.5 c 0,4.3 1.1,6.2 2.8,6.2 1.7,0 2.8,-1.9 2.8,-6.2 z" />
  <path id="n9" style="fill:Green" d="m 17,33.2 c -1.6,1.1 -3.5,1.7 -5.5,1.7 -5.2,0 -10.4,-3.2 -10.4,-14.9 l 0,-1.7 c 0,-11.7 5.6,-17.8 12.8,-17.8 3.3,0 6,0.9 8.1,3.1 3.5,3.5 5.3,10.4 5.3,21.3 l 0,1.4 c 0,20.8 -7.3,26.2 -16.1,26.2 -2.9,0 -5.4,-0.5 -7.5,-1.3 l 0,-9.8 c 1.9,0.9 4.2,1.6 6.6,1.6 4,0 6.4,-2.5 6.7,-9.8 z m 0,-7.6 0,-7.1 c 0,-6.7 -1.2,-8.9 -3,-8.9 -1.8,0 -2.9,1.9 -2.9,8.1 l 0,1.8 c 0,5.5 1.3,6.9 3.3,6.9 1.1,0 1.9,-0.3 2.6,-0.8 z" />
</g></svg>