<svg id="Layer_1" data-name="Layer 1" xmlns="http://www.w3.org/2000/svg" xmlns:xlink="http://www.w3.org/1999/xlink" viewBox="0 0 698 350">
  <defs>
    <style>.cls-1{fill:#999;}.cls-2{fill:url(#linear-gradient);}.cls-3{fill:url(#linear-gradient-2);}.cls-4{fill:url(#linear-gradient-3);}.cls-5{fill:url(#linear-gradient-4);}.cls-6{fill:white;}</style>
    <linearGradient id="linear-gradient" x1="334.58" y1="87.53" x2="393.02" y2="87.53" gradientUnits="userSpaceOnUse">
      <stop offset="0" stop-color="#62a73b"/><stop offset="0.8" stop-color="#8dc63f"/>
    </linearGradient><linearGradient id="linear-gradient-2" x1="337.29" y1="100.84" x2="376.89" y2="100.84" xlink:href="#linear-gradient"/>
    <linearGradient id="linear-gradient-3" x1="328.02" y1="55.04" x2="432.11" y2="55.04" xlink:href="#linear-gradient"/>
    <linearGradient id="linear-gradient-4" x1="331.49" y1="72.24" x2="411.45" y2="72.24" xlink:href="#linear-gradient"/></defs>
  <title>header-logo</title>
  <!--
  <path class="cls-1" d="M106.9,365.7h4.6V366a6.2,6.2,0,0,0,6.2,6.1,6,6,0,0,0,4.2-1.6,5.2,5.2,0,0,0,1.7-4.1,5.2,5.2,0,0,0-1.8-4.3,13.3,13.3,0,0,0-4.8-2.3c-3.1-.9-5.1-1.9-6.2-3a8.3,8.3,0,0,1-2.8-6.5,9,9,0,0,1,2.9-6.8,9.8,9.8,0,0,1,7-2.7,9.2,9.2,0,0,1,6.6,2.7,8.7,8.7,0,0,1,2.8,6.5h-4.6a4.5,4.5,0,0,0-1.5-3.5,5.6,5.6,0,0,0-3.8-1.3,4.7,4.7,0,0,0-4.7,4.7,5.3,5.3,0,0,0,.5,2.3,4.1,4.1,0,0,0,1.5,1.6l1.8,1,2.3,0.8,3.7,1.4a16.2,16.2,0,0,1,3,1.8,7,7,0,0,1,2.2,2.8,10,10,0,0,1,.7,3.9,10.4,10.4,0,0,1-3.1,7.8,10.9,10.9,0,0,1-7.9,3,10.1,10.1,0,0,1-7.5-3.2,9.8,9.8,0,0,1-2.9-7A6.3,6.3,0,0,1,106.9,365.7Z" transform="translate(-32.2 -26.5)"/>
  <path class="cls-1" d="M188,340.8a17.1,17.1,0,0,1,12.4,5.2,16.9,16.9,0,0,1,5.3,12.4,17.7,17.7,0,0,1-5.2,12.7,16.8,16.8,0,0,1-12.6,5.4,17.5,17.5,0,0,1-12.6-5.2,16.9,16.9,0,0,1-5.3-12.5,17.5,17.5,0,0,1,5.2-12.8A17.2,17.2,0,0,1,188,340.8Zm0,4.4a12.6,12.6,0,0,0-9.5,4,13.4,13.4,0,0,0-3.8,9.6A13.3,13.3,0,0,0,188,372.1a12.3,12.3,0,0,0,9.4-4,13.7,13.7,0,0,0,3.7-9.7,12.6,12.6,0,0,0-4-9.5A12.8,12.8,0,0,0,188,345.3Z" transform="translate(-32.2 -26.5)"/>
  <path class="cls-1" d="M249.7,375.7V329.6h4.6v46.1h-4.6Z" transform="translate(-32.2 -26.5)"/>
  <path class="cls-1" d="M329.7,341.6v34.1h-4.4v-5.3h-0.1q-3,6.1-11.2,6.1t-12-6.1q-2.4-2.6-2.4-10.8v-18h4.6v18.1q0,5.1,1.5,7.5a9.6,9.6,0,0,0,8.9,4.9A9.9,9.9,0,0,0,323,368q2.1-2.9,2.1-8.3V341.6h4.6Z" transform="translate(-32.2 -26.5)"/>
  <path class="cls-1" d="M378.9,375.7v-30h-7.1v-4.2h7.1v-12h4.6v12h7.9v4.2h-7.9v30h-4.6Z" transform="translate(-32.2 -26.5)"/>
  <path class="cls-1" d="M433.6,337.5v-7.9h4.6v7.9h-4.6Zm0,38.2V341.6h4.6v34.1h-4.6Z" transform="translate(-32.2 -26.5)"/>
  <path class="cls-1" d="M500.1,340.8a17.1,17.1,0,0,1,12.4,5.2,16.8,16.8,0,0,1,5.3,12.4,17.6,17.6,0,0,1-5.2,12.7,16.7,16.7,0,0,1-12.5,5.4,17.4,17.4,0,0,1-12.6-5.2,16.8,16.8,0,0,1-5.3-12.5,17.5,17.5,0,0,1,5.2-12.8A17.2,17.2,0,0,1,500.1,340.8Zm0,4.4a12.6,12.6,0,0,0-9.4,4,13.4,13.4,0,0,0-3.8,9.6,12.7,12.7,0,0,0,3.9,9.4,12.9,12.9,0,0,0,9.4,3.9,12.3,12.3,0,0,0,9.4-4,13.6,13.6,0,0,0,3.8-9.7,12.6,12.6,0,0,0-4-9.5A12.8,12.8,0,0,0,500.1,345.3Z" transform="translate(-32.2 -26.5)"/>
  <path class="cls-1" d="M561.8,375.7V341.6h4.4v4.9h0.1a12.2,12.2,0,0,1,10.5-5.7,15.1,15.1,0,0,1,12.1,5.7q3.1,3.9,3.1,11.2v18h-4.6v-18c0-3.5-.7-6.2-2-8.1a10.2,10.2,0,0,0-8.8-4.4,10.6,10.6,0,0,0-4.7,1.1,9.5,9.5,0,0,0-3.6,3.1,7,7,0,0,0-1.2,2.5,12.6,12.6,0,0,0-.5,2.5c-0.1.7-.1,1.7-0.1,2.8v18.6h-4.6Z" transform="translate(-32.2 -26.5)"/>
  <path class="cls-1" d="M634.5,365.7h4.6V366a6.2,6.2,0,0,0,6.2,6.1,6,6,0,0,0,4.2-1.6,5.2,5.2,0,0,0,1.7-4.1,5.2,5.2,0,0,0-1.8-4.3,13.3,13.3,0,0,0-4.8-2.3c-3-.9-5.1-1.9-6.2-3a8.3,8.3,0,0,1-2.8-6.5,9,9,0,0,1,2.9-6.8,9.8,9.8,0,0,1,7-2.7,9.2,9.2,0,0,1,6.6,2.7,8.7,8.7,0,0,1,2.8,6.5h-4.6a4.5,4.5,0,0,0-1.5-3.5,5.6,5.6,0,0,0-3.8-1.3,4.7,4.7,0,0,0-4.8,4.7,5.3,5.3,0,0,0,.5,2.3,4.2,4.2,0,0,0,1.5,1.6l1.8,1,2.3,0.8,3.7,1.4a15.9,15.9,0,0,1,3,1.8,6.9,6.9,0,0,1,2.2,2.8,10.2,10.2,0,0,1,.7,3.9,10.4,10.4,0,0,1-3.1,7.8,10.9,10.9,0,0,1-7.9,3,10.1,10.1,0,0,1-7.5-3.2,9.7,9.7,0,0,1-2.9-7A6.3,6.3,0,0,1,634.5,365.7Z" transform="translate(-32.2 -26.5)"/>
  -->
  <path class="cls-2" d="M335.5,78a50.8,50.8,0,0,1,52.3,25.7l5.2-3A57.4,57.4,0,0,0,334.6,72Z" transform="translate(-32.2 -26.5)"/>
  <path class="cls-3" d="M337.9,94.3a34.5,34.5,0,0,1,35.5,17.4l3.5-2a38.4,38.4,0,0,0-39.6-19.4Z" transform="translate(-32.2 -26.5)"/>
  <path class="cls-4" d="M329.5,37.5a92.2,92.2,0,0,1,93.9,46.1l8.7-4.9A102.2,102.2,0,0,0,328,27.6Z" transform="translate(-32.2 -26.5)"/>
  <path class="cls-5" d="M332.7,59a70.5,70.5,0,0,1,71.8,35.3l7-3.9a78.5,78.5,0,0,0-80-39.2Z" transform="translate(-32.2 -26.5)"/>
  <path class="cls-6" d="M154,276.6h20.7q-9.4,20.5-27.1,32.1a71.3,71.3,0,0,1-40,11.6q-31.3,0-53.3-20.7t-22-51.7q0-30.3,22.2-51.1t52.5-20.8a74.7,74.7,0,0,1,41.4,12.3,66,66,0,0,1,26.7,32.7H154a54.2,54.2,0,0,0-20-19.7,53.1,53.1,0,0,0-26.9-7.4q-23.2,0-39.7,15.4T50.9,247.6q0,23,15.9,39t38.8,15.9Q135.5,302.5,154,276.6Z" transform="translate(-32.2 -26.5)"/>
  <path class="cls-6" d="M194.9,317V130.6h18.7v68.3A40.5,40.5,0,0,1,230.9,182a51.8,51.8,0,0,1,24.6-6.1q28.8,0,47.3,21.2,14.5,16.4,14.3,47.2V317H298.4V244.3q0-21.4-8.1-33-12.3-17.4-35.6-17.4a43,43,0,0,0-18.9,4.5,39.9,39.9,0,0,0-15.1,12.4q-7,9.6-7,33.5V317H194.9Z" transform="translate(-32.2 -26.5)"/>
  <path class="cls-6" d="M730.1,254.7H605.3q0.7,19.5,16.6,33.7t35.2,14.1a57.2,57.2,0,0,0,29.6-8.2,47,47,0,0,0,20-22.2h19.5q-7.3,20.9-26.3,34.6T659,320.3q-30.3,0-51.4-20.9t-21.1-51.3q0-30.1,20.9-51.1t51-21.1q33.5,0,55.4,26.7a62,62,0,0,1,12.4,23.2A126,126,0,0,1,730.1,254.7ZM605.3,237.8H711.5q-3.6-18.5-18.7-31.3t-34-12.7a53.5,53.5,0,0,0-34.9,12.5A51,51,0,0,0,605.3,237.8Z" transform="translate(-32.2 -26.5)"/>
  <path class="cls-6" d="M560.6,196.9c-9.6-11.7-25.6-20.9-42.9-20.9a58.1,58.1,0,0,0-24.5,5.5,47.2,47.2,0,0,0-19.1,15.3,17.6,17.6,0,0,1-1.2,2.5l-1.5,2.8a9.3,9.3,0,0,1-1.8-2.5,26.2,26.2,0,0,0-1.6-2.5v-0.3a47.1,47.1,0,0,0-19.1-15.3,58.1,58.1,0,0,0-24.5-5.5H423l-3.7.2h-1.6l-1.9.3a54,54,0,0,0-34.5,18.9c-9.4,11-12.8,23.8-12.8,42.8V317h18.8V238c0-.9.1-1.6,0.1-2.5,0.5-11.1,2.6-19.7,6.6-25.3q11.4-16.1,30.7-16.3T455,210.5c2.7,4,4.5,9,5.5,14.9a110.9,110.9,0,0,1,.9,14.6V317h18.9V239.9q0-22.1,5.8-30.5a36.2,36.2,0,0,1,13.4-11.4,37.1,37.1,0,0,1,17.2-4.3q19.7,0,31.2,16.4,6.8,9.5,6.8,29.7V317h18.7V238.3C573.4,219.2,570.3,208.6,560.6,196.9Z" transform="translate(-32.2 -26.5)"/>
  <path class="cls-6" d="M371.6,159.7c-12.3,0-22.1-2.8-30.2-4.9s-24.6-2.5-37.6-2.5c-19.1,0-23.2-18.7-20-37.8-3.5,7-14.3,33.8,9.5,46.6,21.9,10.7,39.7,38.4,39.7,65.9v90.1h19.7V227c0-27,17.1-48.5,38.5-59.4,10-5.1,36.2-15.4,39-21.9C430.3,145.7,395.9,159.7,371.6,159.7Z" transform="translate(-32.2 -26.5)"/>
  <path class="cls-6" d="M362.5,128.9a19.5,19.5,0,1,1-19.5-19.5A19.5,19.5,0,0,1,362.5,128.9Z" transform="translate(-32.2 -26.5)"/>
</svg>