<?xml version="1.0" encoding="UTF-8"?>
<svg width="246px" height="246px" viewBox="0 0 246 246" version="1.1" xmlns="http://www.w3.org/2000/svg" xmlns:xlink="http://www.w3.org/1999/xlink">
    <title>baseball-icon</title>
    <g id="Page-1" stroke="none" stroke-width="1" fill="none" fill-rule="evenodd">
        <g id="baseball-icon" transform="translate(0.500000, 0.500000)" fill-rule="nonzero">
            <circle id="background" fill="#3FAE2A" cx="122.5" cy="122.5" r="117"></circle>
            <path d="M122.7,0 C155.5141,0 186.246681,12.739574 209.453553,35.9464466 C232.634352,59.1272451 245.4,89.949047 245.4,122.7 C245.4,155.5141 232.660426,186.246681 209.453553,209.453553 C186.246681,232.660426 155.5141,245.4 122.7,245.4 C89.8858999,245.4 59.1533192,232.660426 35.9464466,209.453553 C12.7656481,186.272755 0,155.450953 0,122.7 C0,89.8858999 12.739574,59.1533192 35.9464466,35.9464466 C59.1272451,12.7656481 89.949047,0 122.7,0 Z M122.7,6.3 C98.9611667,6.3 76.3023469,13.4080512 57.1476722,26.4782633 L56.303,27.06 L56.3464975,27.0930876 C58.4576131,28.7093232 60.2806694,30.166384 61.9702218,31.5999977 L62.637,32.171 L62.8754965,31.9960529 C63.4855988,31.524823 64.0072752,30.9696948 64.4119727,30.3841944 L64.5781693,30.1315623 C65.1381897,29.2515301 65.4483027,28.4452362 65.7149287,27.3787322 C65.8395152,26.8803865 65.8888438,26.5411296 65.8982676,26.3603605 L65.9,26.3 C65.9,25.3947515 66.6505986,24.6 67.6,24.6 C68.5761424,24.6 69.3,25.3238576 69.3,26.3 L69.2912983,26.6085345 C69.2702172,27.0015198 69.2081641,27.5097072 69.0765794,28.1289294 C68.801325,29.4242444 68.302305,30.7288718 67.5287465,31.9572479 C66.9932463,32.8497482 66.2544731,33.7084084 65.3889989,34.4380767 L65.275,34.529 L65.4086725,34.6502012 C67.0835587,36.1795386 68.552847,37.5858109 69.9117157,38.9709364 L70.582,39.662 L70.6654682,39.6072947 C71.1214613,39.2866364 71.5134199,38.8830396 71.9166577,38.3498493 L72.090384,38.1132688 C72.6889794,37.2581326 73.099471,36.3405631 73.3149287,35.4787322 C73.4550885,34.9180932 73.5,34.5588011 73.506803,34.3178005 C73.6516175,33.448914 74.3816457,32.8 75.3821995,32.806803 C76.251086,32.9516175 76.9,33.6816457 76.9,34.6 C76.9,34.924689 76.7828562,35.6822189 76.5562248,36.4857301 C76.2044429,37.7329569 75.6371736,38.9913819 74.8,40.2 C74.2111921,40.9850772 73.6432116,41.6112442 72.9805773,42.1582642 L72.846,42.264 L73.057493,42.4885193 C74.4460517,43.9808361 75.8381055,45.5836184 77.2716133,47.3287025 L77.58,47.708 L77.8058337,47.5221932 C78.0959963,47.2707255 78.3733388,46.9968193 78.6346017,46.7074855 L78.890384,46.4132688 L79.087615,46.1237528 C79.485343,45.520555 79.7141159,45.0312808 80.2318354,43.8244383 C80.413427,43.3401939 80.4840722,43.0172245 80.4975293,42.8538062 L80.5,42.8 C80.5,41.7948703 81.3701747,41.0620915 82.3,41.2 C83.3051297,41.2 84.0379085,42.0701747 83.8949747,43.0707107 L83.8714045,43.2357023 L83.835,43.271 L83.7671789,43.5547476 C83.6756217,43.9354459 83.5881202,44.2596704 83.4699748,44.6303268 C83.112649,45.7513614 82.6119038,46.8309764 81.9076415,47.8489445 C81.7753389,48.0401799 81.636862,48.2273968 81.4796283,48.4253957 C80.9320433,49.0642449 80.3893474,49.6017706 79.7933162,50.069877 L79.619,50.2 L80.0156579,50.697275 C81.2171039,52.2273189 82.3671505,53.8086298 83.4657903,55.4411844 L83.858,56.034 L83.8946781,56.0127872 C84.1005407,55.8790952 84.3034794,55.7240109 84.5124753,55.5436925 L84.7238229,55.3548205 C84.8771955,55.2132458 84.9955005,55.0973928 85.2262953,54.8678181 C85.8643526,54.1500037 86.3444634,53.3269567 86.7318354,52.4244383 L86.8748238,52.0317681 C86.9605069,51.788581 87.0271823,51.5827583 87.0765119,51.41537 L87.1129238,51.2864226 L87.132991,51.1818828 C87.3391029,50.3146152 88.2217771,49.7634065 89.0707107,49.9050253 C90.022001,50.0409239 90.6444612,50.9746141 90.5,51.8 C90.5,52.7264406 89.6199716,55.009088 88.0760594,56.8037393 L87.8796283,57.0253957 C87.4104302,57.5727935 86.8348372,58.0677108 86.0405261,58.6299285 L85.884,58.738 L86.1455073,59.1410193 C87.3552806,61.0266605 88.4327362,62.8179561 89.4212943,64.5989574 L89.6,64.924 L89.7122829,64.8600859 C90.1443537,64.6032213 90.5364235,64.3169338 90.8604328,64.0233184 L91.0464466,63.8464466 C91.7579701,63.1349231 92.3446754,62.2931286 92.6404275,61.6030404 L92.7866644,61.2471651 C92.8942385,60.9727325 92.9667691,60.7545356 93.0093658,60.5994022 L93.006,60.625 L93.0309523,60.4904009 C93.2411631,59.5821358 94.1838466,59.0346408 94.9707107,59.3050253 C95.9139101,59.439768 96.5191948,60.3513982 96.3116318,61.2271256 L96.296,61.281 L96.2951536,61.2974779 C96.2146493,62.1646434 95.1379422,64.377626 93.5700951,66.0299322 L93.3796283,66.2253957 C92.8904737,66.796076 92.2138941,67.3187406 91.3790033,67.7968917 L91.165,67.915 L91.3419731,68.2696356 C92.2508884,70.1049169 93.0751379,71.8327348 93.8287152,73.4921337 L94.264,74.462 L94.3068406,74.4445857 C94.7606928,74.2410084 95.1885145,73.9671383 95.6557969,73.5979671 L95.8930297,73.4053239 C96.60177,72.8540814 97.1550441,72.1458905 97.6658784,71.2519305 C97.9430407,70.7668966 98.0759659,70.4345835 98.1256584,70.2418861 C98.4142612,69.3760775 99.3986134,68.8391582 100.258114,69.1256584 C101.123922,69.4142612 101.660842,70.3986134 101.374342,71.2581139 L101.337016,71.3700908 L101.253553,71.4535534 C101.609889,71.0972181 100.311101,73.6692219 99.0922612,75.0274897 C98.7930422,75.3609376 98.4720326,75.6782216 98.1,76 C97.3614828,76.5538879 96.6745127,77.0046258 95.9488305,77.3900833 L95.65,77.542 L95.7279206,77.7229615 C96.4336599,79.3806226 97.072492,81.102524 97.8785566,83.4692304 L98.216,84.469 L98.35327,84.4200618 C98.9210683,84.2058326 99.4019466,83.9518174 99.800558,83.6564568 L99.9930297,83.5053239 C100.810355,82.8696262 101.482569,82.1227222 101.893133,81.4093809 C102.23206,80.9348839 102.380311,80.6172018 102.425658,80.4418861 C102.712136,79.5824528 103.692135,79.1369987 104.558114,79.4256584 C105.417547,79.7121361 105.863001,80.692135 105.574342,81.5581139 L105.537016,81.6700908 L105.453553,81.7535534 C105.835565,81.3715422 104.467938,83.8305612 103.241687,85.0979313 C102.862048,85.4903007 102.449651,85.8582778 101.97735,86.2160251 C101.035335,86.8440351 100.240059,87.2952763 99.3997683,87.6372727 L99.212,87.709 L99.5424366,88.8369076 C100.134339,90.8799733 100.578064,92.5237036 100.949077,94.0893189 L101.178,95.092 L101.256376,95.0709552 C101.796009,94.907209 102.295537,94.6673753 102.79364,94.3414417 L103.042752,94.1712535 C103.455532,93.9235853 103.841042,93.6027965 104.228006,93.202489 C104.331959,93.0949511 104.434533,92.9833512 104.541253,92.8622691 L104.840166,92.5120259 L105.088,92.215 L105.187313,92.0655148 C105.351882,91.8117271 105.47814,91.5992793 105.565923,91.4404557 L105.652786,91.2763932 C106.079562,90.4228427 107.080431,90.0311983 107.923607,90.4527864 C108.732234,90.8570998 109.126296,91.7766663 108.807073,92.5892699 L108.781,92.647 L108.776042,92.6757047 C108.570273,93.5333234 107.063445,95.5932426 105.202923,96.955622 L104.986731,97.109616 C104.127214,97.7112781 103.210701,98.162548 102.194213,98.4768965 L101.883,98.566 L102.045917,99.3684835 C102.461219,101.479536 102.817659,103.566916 103.120384,105.669924 L103.22,106.395 L103.384281,106.353916 C103.932935,106.201926 104.450867,105.992186 104.947357,105.732787 L105.242752,105.571254 C106.062676,105.079299 106.819024,104.396147 107.415889,103.679908 C107.677953,103.365431 107.858318,103.108158 107.967265,102.92889 L108.052786,102.776393 C108.475144,101.931678 109.473621,101.627794 110.323607,102.052786 C111.168322,102.475144 111.472206,103.473621 111.047214,104.323607 L110.953553,104.453553 C111.399073,104.008034 109.873528,106.190291 108.718706,107.231205 C108.18372,107.713421 107.5969,108.149702 106.957248,108.528746 C106.024501,109.088394 105.032113,109.502513 103.97539,109.745358 L103.654,109.812 L103.679888,110.010803 C103.948002,112.245687 104.126913,114.565728 104.238009,117.123311 L104.279,118.191 L104.4131,118.16289 C105.092356,118.004693 105.698352,117.808606 106.200483,117.58519 L106.442752,117.471254 C107.422909,116.883159 108.268109,116.217245 108.746447,115.646447 C109.157923,115.234971 109.376506,114.928954 109.452786,114.776393 L109.509566,114.687652 C110.065749,113.992423 111.023837,113.752901 111.823607,114.152786 L111.912348,114.209566 C112.607577,114.765749 112.847099,115.723837 112.447214,116.523607 L112.353553,116.653553 L112.446591,116.56458 C112.825649,116.229102 111.071613,118.358303 109.93807,119.276095 C109.354638,119.748482 108.721442,120.173598 108.039426,120.538948 C106.965172,121.124905 105.772158,121.541777 104.561189,121.720668 L104.3,121.754 L104.3,122.865 L104.658658,122.923592 C105.820477,123.129299 106.835162,123.452881 107.729802,123.89939 L108.023607,124.052786 C108.81548,124.448723 109.536486,124.93408 110.190596,125.490114 C111.267245,126.405331 112.865289,128.458182 112.416025,128.02265 C112.976861,128.863904 112.702311,130.007861 111.87735,130.416025 C111.120222,130.920777 110.117903,130.748867 109.604723,130.068862 L109.533,129.965 L109.492064,129.928032 L109.42528,129.85559 L109.348162,129.759729 L109.062017,129.363896 C108.934086,129.188405 108.850811,129.081998 108.715889,128.920092 C108.192288,128.29177 107.412453,127.658155 106.476393,127.147214 C105.738352,126.778193 105.0412,126.518474 104.348375,126.383137 L104.279,126.371 L104.241652,127.403007 C104.153064,129.512362 104.019889,131.595529 103.840709,133.682117 L103.739,134.791 L104.040098,134.857367 C104.926544,135.072478 105.792724,135.419071 106.608471,135.870194 L106.954901,136.069854 C107.5969,136.450298 108.18372,136.886579 108.718706,137.368795 L108.939007,137.576421 C110.020473,138.636878 111.286613,140.442892 110.98863,140.179761 L110.954,140.147 L111.047214,140.276393 C111.472206,141.126379 111.168322,142.124856 110.323607,142.547214 C109.520843,142.948596 108.585628,142.699837 108.12839,141.959353 L107.967265,141.67111 C107.858318,141.491842 107.677953,141.234569 107.415889,140.920092 C106.819024,140.203853 106.062676,139.520701 105.276393,139.047214 L104.814232,138.819431 C104.242391,138.542843 103.834565,138.370159 103.428944,138.246313 L103.335,138.219 L103.305601,138.488804 C103.04567,140.737946 102.6642,143.114797 102.177179,145.574934 L102.082,146.042 L102.342554,146.109272 C103.170129,146.365556 103.920257,146.718376 104.670424,147.186496 L104.992152,147.394233 C105.453508,147.726409 105.884015,148.087737 106.285232,148.474166 C107.521545,149.66491 109.070928,152.063821 108.653553,151.646447 L108.747214,151.776393 C109.168802,152.619569 108.777157,153.620438 107.923607,154.047214 C107.171796,154.423119 106.294617,154.152485 105.810813,153.484359 L105.718,153.343 L105.700584,153.321148 L105.619532,153.175471 L105.534408,152.973943 C105.434255,152.759328 105.300445,152.541559 105.115889,152.320092 C104.391795,151.451179 103.803146,150.86253 102.979908,150.284111 C102.628007,149.99086 102.204817,149.768743 101.526372,149.514556 L101.367,149.456 L101.328874,149.632896 C100.892784,151.568521 100.362733,153.542549 99.5913304,156.182364 L99.409,156.799 L99.7734251,156.953463 C100.419623,157.241006 101.01204,157.574784 101.571011,157.962648 L101.902542,158.201919 C102.349651,158.541722 102.762048,158.909699 103.141687,159.302069 C104.367938,160.569439 105.735565,163.028458 105.353553,162.646447 L105.437016,162.729909 L105.474342,162.841886 C105.763001,163.707865 105.317547,164.687864 104.458114,164.974342 C103.688355,165.230928 102.828506,164.907474 102.445729,164.22882 L102.393,164.124 L102.345102,164.064995 L102.294012,163.987844 L102.235362,163.882044 L101.980239,163.347148 C101.914614,163.214037 101.859749,163.111319 101.783975,162.97735 C101.274667,162.213389 100.615582,161.456661 99.9226499,160.916025 C99.4788414,160.620153 99.042291,160.366914 98.5981644,160.155061 L98.403,160.067 L98.1751298,160.735425 L98.0135884,161.199646 C97.6411804,162.261754 97.2361246,163.361964 96.68726,164.810414 L95.821,167.077 L96.1031048,167.241673 C96.7251174,167.611621 97.2386721,167.960276 97.7009555,168.333705 L97.9280894,168.522697 C99.6485941,170.018788 100.995064,172.290442 101.178639,173.212213 L101.194,173.312 L101.212808,173.378515 C101.392824,174.157266 100.934485,175.001393 100.192015,175.323111 L100.058114,175.374342 C99.1986134,175.660842 98.2142612,175.123922 97.9149287,174.221268 C97.8759659,174.065417 97.7430407,173.733103 97.4839749,173.27735 C96.9910977,172.538034 96.6929233,172.131658 96.2517354,171.650362 C96.0641661,171.445741 95.8701138,171.253523 95.6464466,171.053553 C95.3220656,170.729172 94.950473,170.450551 94.530429,170.217453 L94.455,170.178 L94.0292397,171.172015 C93.0877447,173.349875 92.3188072,174.999714 91.496158,176.569146 L91.358,176.829 L91.5489937,176.954056 C92.098984,177.324415 92.5517421,177.676164 92.9502852,178.049606 L93.1452379,178.238322 C94.911211,179.924024 96.1,182.441459 96.093197,183.217801 C96.2338751,184.061869 95.6912895,184.896616 94.7821995,185.193197 C93.9381307,185.333875 93.1033835,184.791289 92.8149287,183.921268 C92.7712725,183.746643 92.6547053,183.396941 92.4404275,182.89696 C92.1446754,182.206871 91.5579701,181.365077 90.8876525,180.690434 L90.2854725,180.213884 C90.1564153,180.113545 90.0402092,180.024927 89.9295079,179.942677 L89.773,179.828 L89.0230702,181.204624 C88.125782,182.839523 87.4729813,183.984372 86.8190732,185.051231 L86.4411,185.659178 L86.188,186.054 L86.3651756,186.177204 C86.8343402,186.51428 87.229391,186.861195 87.5753895,187.240361 L87.7773028,187.471911 C89.3724835,189.306369 90.4,191.840909 90.3949747,192.629289 C90.534723,193.607527 89.9404873,194.456435 88.9707107,194.594975 C88.1265521,194.715569 87.3400584,194.205037 87.0771106,193.455878 L87.041,193.338 L87.0154103,193.295796 L86.986286,193.232783 L86.9693152,193.186041 C86.9887268,193.227424 86.8041737,192.522715 86.6634254,192.154155 L86.6318354,192.075562 C86.3199566,191.243885 85.8236475,190.416703 85.1464466,189.653553 L84.9403406,189.454645 C84.833504,189.35525 84.7177945,189.253111 84.5788234,189.135486 L84.216,188.835 L84.1493499,188.937453 C82.8110669,190.973385 81.6468329,192.651929 80.4517784,194.244163 L80.1,194.708 L80.2212223,194.812245 C80.5540804,195.105871 80.8698479,195.450339 81.316511,195.980061 L81.4904344,196.187652 C82.4066825,197.332963 83.0530867,198.560478 83.473082,199.788156 L83.5883877,200.145741 C83.7852226,200.794009 83.9,201.383137 83.9,201.6 C83.9,202.48624 83.2857815,203.26425 82.3,203.4 C81.4137597,203.4 80.6357497,202.785782 80.5,201.8 C80.5,201.613727 80.4366704,201.25486 80.2149287,200.721268 C80.0263627,199.967004 79.5446945,199.029018 78.8712535,198.157248 C78.7346489,197.929573 78.5698383,197.740005 78.2743311,197.477906 L78.08,197.311 L78.0202919,197.389685 C76.4146226,199.452008 75.0724527,201.06959 73.6994528,202.562842 L73.412,202.871 L73.5072558,202.961128 C73.8903,203.335982 74.2339901,203.73642 74.590156,204.212628 L74.8057672,204.507848 C75.6323579,205.65589 76.2005941,206.903397 76.5562248,208.16427 L76.6516241,208.524878 C76.8130202,209.176133 76.8992269,209.753323 76.8949747,209.929289 C77.0379085,210.929825 76.3051297,211.8 75.3707107,211.794975 C74.4156536,211.931411 73.5793761,211.269937 73.5053242,210.335318 L73.5,210.2 C73.5,210.041199 73.4550885,209.681907 73.3149287,209.121268 C73.099471,208.259437 72.6889794,207.341867 72.1464466,206.553553 L72.1095656,206.512348 L71.8297273,206.166775 C71.6150252,205.905959 71.441175,205.707605 71.2677592,205.530923 L71.128,205.394 L70.7914195,205.744173 L70.0811771,206.469167 C69.1917256,207.366925 68.2084742,208.322343 66.7960519,209.670846 L65.949,210.477 L66.0440233,210.561931 C66.5538408,211.03618 66.9889379,211.56856 67.4121877,212.205938 L67.6231164,212.533593 C68.402305,213.771128 68.901325,215.075756 69.1765794,216.371071 C69.3457598,217.167213 69.4,217.779809 69.4,218.2 C69.4,219.176142 68.6761424,219.9 67.7,219.9 C66.8900408,219.9 66.1685404,219.299105 66.0256203,218.492559 L66.01,218.376 L66.0013368,218.357399 L65.9749287,218.273268 C65.9634155,218.227215 65.9569414,218.186555 65.9519036,218.132549 L65.9449737,218.039189 C65.9227185,217.683105 65.9058226,217.514063 65.847663,217.257886 L65.8149287,217.121268 C65.5161071,215.925981 65.2256241,215.15136 64.6658784,214.348069 C64.3148743,213.733812 63.9550222,213.251402 63.5072172,212.838428 L63.41,212.753 L62.6482201,213.416041 C60.8344895,214.973596 58.9695558,216.479889 57.0534313,217.934915 L56.414,218.414 L56.861978,218.726081 C75.0897946,231.241939 97.0662778,238.700527 120.773998,239.084417 L122.7,239.1 C147.336169,239.1 170.175713,231.460921 188.980962,218.420436 C187.502176,217.325986 186.015841,216.150488 184.444308,214.838693 L183.518,214.057 L183.369297,214.296494 L183.321831,214.368438 C182.824035,215.150689 182.523697,215.874677 182.272814,216.786248 L182.180762,217.137361 C182.079684,217.491133 182.027605,217.802596 182.008356,218.04166 L182,218.2 C182,219.176142 181.276142,219.9 180.3,219.9 C179.375234,219.9 178.676894,219.250333 178.60596,218.34855 L178.600404,218.149267 C178.607879,217.659035 178.680437,216.986544 178.864939,216.183286 C179.149186,214.945768 179.637492,213.70792 180.4,212.5 L180.585373,212.2366 L180.905,211.758 L180.37521,211.297278 C178.886483,209.983091 177.449069,208.617548 176.062989,207.200665 L175.69,206.814 L175.496047,207.137943 C175.180978,207.687298 174.940064,208.2495 174.774997,208.795699 L174.685071,209.121268 C174.575576,209.559248 174.522539,209.886825 174.505649,210.100046 L174.493197,210.282199 C174.348383,211.151086 173.618354,211.8 172.617801,211.793197 C171.748914,211.648383 171.1,210.918354 171.1,210 C171.1,209.728584 171.221354,208.980232 171.444238,208.200139 C171.799054,206.958282 172.365739,205.704411 173.246447,204.446447 L173.356,204.332 L171.80463,202.603178 L170.769733,201.434178 C170.226481,200.81521 169.732493,200.242638 169.269998,199.694494 L168.648,198.95 L168.502582,199.193741 C168.197556,199.713245 167.969184,200.180718 167.830168,200.581057 L167.768165,200.775562 C167.583739,201.267364 167.510505,201.60912 167.500556,201.793356 C167.5,202.80513 166.629825,203.537908 165.7,203.4 C164.69487,203.4 163.962092,202.529825 164.105025,201.529289 L164.128595,201.364298 L164.164,201.328 L164.232821,201.045252 C164.324378,200.664554 164.41188,200.34033 164.530025,199.969673 C164.887351,198.848639 165.388096,197.769024 166.092358,196.751056 L166.295467,196.467247 L166.437,196.281 L166.462024,196.215996 L166.308164,196.014474 L165.540549,195.049414 C164.302406,193.477133 163.263986,192.075796 162.329894,190.698096 L162.162,190.449 L162.00996,190.668866 C161.785046,191.007817 161.590584,191.366147 161.405525,191.766789 L161.268165,192.075562 L161.125176,192.468232 C161.039493,192.711419 160.972818,192.917242 160.923488,193.08463 L160.888314,193.207258 L160.867009,193.318117 C160.660897,194.185385 159.778223,194.736593 158.929289,194.594975 C157.977999,194.459076 157.355539,193.525386 157.5,192.7 C157.5,191.773559 158.380028,189.490912 159.94701,187.671349 L160.059,187.544 L159.755329,187.093604 C158.702635,185.515825 157.714182,183.930398 156.820844,182.37801 L156.318,181.488 L156.147728,181.718 C155.891493,182.071462 155.668347,182.423625 155.487312,182.753787 L155.359573,182.99696 C155.145295,183.496941 155.028727,183.846643 154.994975,183.970711 C154.853495,184.96107 153.855497,185.578878 153.029289,185.294975 C152.08609,185.160232 151.480805,184.248602 151.688368,183.372874 L151.703,183.318 L151.704848,183.302521 C151.785385,182.435319 152.862953,180.221407 154.453189,178.544924 L154.555,178.439 L154.582,178.391 L154.112267,177.475887 C153.264576,175.802809 152.461452,174.12963 151.702899,172.456349 L151.451,171.894 L151.335938,172.029469 C151.015146,172.413508 150.738688,172.80209 150.542161,173.146855 L150.434122,173.348069 C150.156959,173.833103 150.024034,174.165417 149.974342,174.358114 C149.685739,175.223922 148.701387,175.760842 147.841886,175.474342 C146.976078,175.185739 146.439158,174.201387 146.725658,173.341886 L146.762984,173.229909 L146.846447,173.146447 C146.490111,173.502782 147.788899,170.930778 149.007739,169.57251 C149.306958,169.239062 149.627967,168.921778 149.971911,168.622697 L150.092,168.543 L149.814774,167.878681 C148.980194,165.857086 148.234026,163.896317 147.557944,161.937583 L147.464,161.662 L147.263927,161.859426 C146.957712,162.173963 146.67882,162.516545 146.408394,162.897524 L146.206867,163.190619 C145.86794,163.665116 145.719689,163.982798 145.674342,164.158114 C145.387864,165.017547 144.407865,165.463001 143.541886,165.174342 C142.682453,164.887864 142.236999,163.907865 142.525658,163.041886 L142.562984,162.929909 L142.644,162.848 L142.616486,162.873461 C142.355607,163.07405 143.588148,160.87538 144.746499,159.620455 L144.858313,159.502069 C145.237952,159.109699 145.650349,158.741722 146.046447,158.446447 C146.141959,158.350934 146.225831,158.270857 146.306502,158.201945 L146.260087,158.036358 C145.880369,156.823586 145.517837,155.554499 145.134654,154.114436 L144.524611,151.754043 L144.3,150.861 L144.103342,151.031058 C143.699495,151.392798 143.351068,151.776262 143.073754,152.152619 L142.916025,152.37735 C142.736137,152.647182 142.594529,152.878132 142.491362,153.057914 L142.347214,153.323607 C141.920438,154.177157 140.919569,154.568802 140.076393,154.147214 C139.267766,153.7429 138.873704,152.823334 139.192927,152.01073 L139.218,151.952 L139.223936,151.924314 C139.42942,151.066934 140.932259,149.010362 142.736932,147.694839 L142.946447,147.546447 C143.122828,147.370065 143.260032,147.243753 143.396467,147.147094 L143.433,147.122 L143.292697,146.422848 C142.865504,144.252745 142.487443,142.005367 142.162445,139.714804 L142.104,139.296 L142.055724,139.331092 C141.566885,139.692136 141.112247,140.112427 140.715224,140.553362 L140.484111,140.820092 C140.222047,141.134569 140.041682,141.391842 139.932735,141.57111 L139.847214,141.723607 C139.424856,142.568322 138.426379,142.872206 137.576393,142.447214 C136.731678,142.024856 136.427794,141.026379 136.852786,140.176393 L136.946447,140.046447 C136.500927,140.491966 138.026472,138.309709 139.181294,137.268795 C139.609283,136.883022 140.070445,136.526648 140.555,136.211971 L140.92265,135.983975 C141.041539,135.904716 141.158187,135.838777 141.30074,135.768456 L141.659,135.602 L141.620112,135.289197 C141.351998,133.054313 141.173087,130.734272 141.061991,128.176689 L141.026,127.298 L140.937395,127.356203 C140.26582,127.800331 139.68793,128.268989 139.292931,128.695653 L139.153553,128.853553 C138.742077,129.265029 138.523494,129.571046 138.447214,129.723607 L138.390434,129.812348 C137.834251,130.507577 136.876163,130.747099 136.042752,130.328746 C135.83412,130.203567 135.661615,130.027476 135.507692,129.809559 L135.423775,129.681595 C135.321239,129.516916 135.214774,129.322274 135.233409,129.348559 L135.019283,129.051406 L135.250084,128.732527 L135.504912,128.373978 C135.66018,128.161412 135.800169,127.984421 136.00862,127.738845 C136.484786,127.177876 137.03196,126.633971 137.66193,126.123905 C138.245362,125.651518 138.878558,125.226402 139.576393,124.852786 L139.716595,124.784439 L140.14404,124.59198 L140.7,124.361 L140.7,121.838 L140.148902,121.610526 C139.964783,121.531917 139.816894,121.464796 139.671668,121.394199 L139.576393,121.347214 C138.78452,120.951277 138.063514,120.46592 137.409404,119.909886 C136.332755,118.994669 134.734711,116.941818 135.183975,117.37735 C134.623139,116.536096 134.897689,115.392139 135.72265,114.983975 C136.479778,114.479223 137.482097,114.651133 137.995277,115.331138 L138.066,115.434 L138.107936,115.471968 L138.17472,115.54441 L138.251838,115.640271 L138.537983,116.036104 C138.665914,116.211595 138.749189,116.318002 138.884111,116.479908 C139.291356,116.968603 139.853607,117.4605 140.531252,117.899278 L140.729,118.022 L140.758645,117.300886 C140.869482,114.712607 141.04929,112.368262 141.320112,110.110803 L141.36,109.788 L141.044512,109.624331 C140.870077,109.531384 140.740941,109.456799 140.621163,109.380013 L140.545099,109.330146 C139.9031,108.949702 139.31628,108.513421 138.781294,108.031205 L138.560993,107.823579 C137.479527,106.763122 136.213387,104.957108 136.51137,105.220239 L136.545,105.252 L136.452786,105.123607 C136.051404,104.320843 136.300163,103.385628 137.040647,102.92839 L137.176393,102.852786 C137.979157,102.451404 138.914372,102.700163 139.37161,103.440647 L139.532735,103.72889 C139.641682,103.908158 139.822047,104.165431 140.084111,104.479908 C140.53176,105.017087 141.069118,105.535655 141.655724,105.968908 L141.812,106.079 L141.845476,105.855201 C142.12017,104.029401 142.470059,102.129853 142.989806,99.5633483 L143.241,98.329 L142.607848,97.9057672 C142.261831,97.6566349 141.933166,97.3911051 141.621197,97.1108863 L141.314768,96.8258345 C140.078455,95.6350903 138.529072,93.2361791 138.946447,93.6535534 L138.852786,93.5236068 C138.431198,92.6804306 138.822843,91.6795617 139.676393,91.2527864 C140.430814,90.875576 141.311476,91.1494021 141.794213,91.8226149 L141.881,91.956 L141.899416,91.9788516 L141.980468,92.1245287 L142.065592,92.3260573 C142.165745,92.5406717 142.299555,92.7584413 142.484111,92.9799078 C143.047295,93.6557288 143.528544,94.162008 144.086263,94.6137972 L144.17,94.679 L144.210111,94.4977233 C144.692016,92.3942026 145.296212,90.2257425 146.012061,87.9995046 L146.207,87.403 L145.987445,87.2446026 L145.921475,87.1937525 C145.816694,87.1117496 145.725762,87.032869 145.697458,86.9980811 C145.250349,86.6582778 144.837952,86.2903007 144.458313,85.8979313 C143.232062,84.6305612 141.864435,82.1715422 142.246447,82.5535534 L142.162984,82.4700908 L142.125658,82.3581139 C141.836999,81.492135 142.282453,80.5121361 143.141886,80.2256584 C143.911645,79.969072 144.771494,80.2925261 145.154271,80.97118 L145.206,81.074 L145.254898,81.135005 L145.305988,81.2121565 L145.364638,81.3179564 L145.619761,81.8528517 C145.685386,81.9859627 145.740251,82.0886806 145.816025,82.2226499 C146.198006,82.7956207 146.664236,83.3645228 147.197957,83.8675993 L147.266,83.929 L147.357944,83.6624168 C148.034026,81.7036834 148.780194,79.7429144 149.614774,77.7213188 L149.862,77.128 L149.842587,77.1140367 C149.766426,77.0559394 149.689411,76.9883151 149.604968,76.9079078 L149.471911,76.7773028 C147.685233,75.2236697 146.301915,72.8336686 146.205385,71.98754 L146.187192,71.9214854 C146.007176,71.1427336 146.465515,70.2986068 147.207985,69.9768894 L147.341886,69.9256584 C148.201387,69.6391582 149.185739,70.1760775 149.485071,71.0787322 C149.524034,71.2345835 149.656959,71.5668966 149.916025,72.0226499 C150.354138,72.6798195 150.638412,73.0739257 151.006035,73.4914211 L151.242697,73.7510079 L151.348,73.86 L152.619787,71.2365966 C153.218741,70.0143087 153.695685,69.0695216 154.18143,68.1458909 L154.552,67.447 L154.420889,67.3254559 L154.06095,66.9710855 C152.402371,65.2918877 151.300252,62.9297873 151.306803,62.1821995 C151.166125,61.3381307 151.708711,60.5033835 152.617801,60.206803 C153.461869,60.0661249 154.296616,60.6087105 154.585071,61.4787322 C154.628727,61.6533572 154.745295,62.0030588 154.959573,62.5030404 C155.189602,63.0397757 155.59564,63.6682839 156.099519,64.2558926 L156.205,64.374 L156.364032,64.1022074 C157.512586,62.1533837 158.604236,60.3734948 159.707471,58.6582951 L159.96,58.267 L159.622697,57.9280894 C158.086597,56.1615744 157.076891,53.7458743 157.008692,52.86537 L157.005025,52.7707107 C156.865277,51.7924729 157.459513,50.9435648 158.429289,50.8050253 C159.273448,50.6844312 160.059942,51.1949633 160.322889,51.9441222 L160.358,52.061 L160.38459,52.1042037 L160.413714,52.1672174 L160.431,52.216 C160.411174,52.1723642 160.597724,52.884532 160.738736,53.251489 L160.768165,53.3244383 C161.041059,54.0521555 161.455157,54.7764312 162.008089,55.4573802 L162.047,55.502 L162.102421,55.4232855 C163.464051,53.4815241 164.683757,51.8229951 165.88897,50.2908076 L166.349,49.711 L166.173889,49.4954286 C166.136007,49.4501543 166.102895,49.4123232 166.066834,49.3731684 L166.009566,49.3123475 C165.093317,48.1670374 164.446913,46.9395223 164.026918,45.7118438 L163.911612,45.3542594 C163.714777,44.7059905 163.6,44.1168626 163.6,43.9 C163.6,43.0137597 164.214218,42.2357497 165.2,42.1 C166.08624,42.1 166.86425,42.7142185 166.999784,43.6853005 L167.000374,43.707372 C167.010939,43.9433142 167.082771,44.2905035 167.285071,44.7787322 C167.454781,45.4575699 167.861903,46.2852219 168.446031,47.1040088 L168.514,47.196 L168.681655,46.9948482 C170.015677,45.3945449 171.405396,43.8317879 172.960555,42.1728682 L173.308,41.804 L173.243642,41.7345181 C173.061971,41.5327967 172.942464,41.3714901 172.845034,41.1937071 L172.788904,41.084605 C171.96494,39.8944351 171.398163,38.6208159 171.043328,37.3466364 C170.82116,36.5488511 170.7,35.7774629 170.705025,35.5707107 C170.562092,34.5701747 171.29487,33.7 172.229289,33.7050253 C173.182181,33.5688979 174.016831,34.2270676 174.094018,35.1472567 L174.100359,35.3091858 C174.108538,35.5218349 174.159934,35.8781836 174.285071,36.3787322 C174.500529,37.2405631 174.911021,38.1581326 175.453553,38.9464466 L175.569155,39.0694958 L175.731,39.263 L175.891301,39.1041399 C177.492003,37.5186003 178.974713,36.1193183 180.435878,34.8254753 L181.076,34.264 L181.042572,34.2286992 C180.716521,33.8679959 180.422221,33.4969058 180.20072,33.1623677 L180.076884,32.9664066 C179.337492,31.7920795 178.849186,30.5542316 178.564939,29.3167142 C178.4035,28.6138632 178.327767,28.0111312 178.306321,27.5405946 L178.3,27.3 C178.3,26.3947515 179.050599,25.6 180,25.6 C180.809959,25.6 181.53146,26.2008948 181.67438,27.007441 L181.689,27.123 L181.698663,27.1426014 L181.725071,27.2267322 C181.736584,27.2727851 181.743059,27.3134453 181.748096,27.3674509 L181.755026,27.4608109 C181.777282,27.8168948 181.794177,27.9859372 181.852337,28.2421136 L181.885071,28.3787322 C182.183893,29.5740189 182.474376,30.3486402 183,31.1 C183.217213,31.3896177 183.434093,31.6614582 183.644217,31.9039658 L183.742,32.013 L184.362731,31.4956993 C185.679157,30.4070285 187.006809,29.3487418 188.319088,28.3435673 L189.574225,27.3936934 C170.656962,14.1009558 147.595829,6.3 122.7,6.3 Z M193.58094,30.338631 L192.514679,31.1406729 L191.256677,32.1009029 C190.656582,32.5633058 190.008978,33.068146 189.220995,33.6868636 L188.04,34.615 L188.061663,34.6214817 C189.096555,34.9056981 190.311494,35.0686271 191.683657,35.0959016 L192.1,35.1 L192.7,35.1 C193.605249,35.1 194.4,35.8505986 194.4,36.8 C194.4,37.7052485 193.649401,38.5 192.7,38.5 L192,38.5 C189.347582,38.5 186.968922,38.0086806 185.033958,37.1187285 L184.985,37.095 L182.954674,38.9368411 C181.904107,39.8976412 181.062133,40.6856268 180.275304,41.44782 L179.811,41.9 L179.871659,41.9197511 C181.067955,42.2803039 182.593992,42.452987 184.382611,42.4130114 L184.8,42.4 L185.229289,42.4050253 C186.229825,42.2620915 187.1,42.9948703 187.094975,43.9292893 C187.237908,44.9298253 186.50513,45.8 185.5,45.8 L184.830248,45.7990842 C181.943996,45.9740086 179.427098,45.5595108 177.393217,44.6470506 L177.1,44.509 L176.550654,45.0686179 C175.222624,46.4371996 173.945266,47.8564874 172.718564,49.3265026 L172.44,49.664 L172.65138,49.7276579 C173.959223,50.0926326 175.521142,50.209584 177.406002,50.045672 L177.704,50.016 C177.840643,49.9309792 177.97929,49.9083278 178.185483,49.9060492 L178.317801,49.906803 C179.21868,49.7566564 180.05874,50.3756482 180.193197,51.3178005 C180.343344,52.2186801 179.724352,53.0587403 178.7,53.2 C178.678764,53.2 178.650657,53.2042747 178.591572,53.2180017 L178.521268,53.2350713 C178.331155,53.2825995 178.238352,53.3 178.1,53.3 L178.043947,53.2980649 C175.10044,53.5577861 172.512634,53.243987 170.386343,52.441456 L170.043,52.306 L169.926093,52.4458775 C168.754611,53.8540946 167.576915,55.4176456 166.322447,57.2097151 L165.89,57.831 L166.081055,57.8846701 C167.477962,58.2434204 169.152513,58.2860246 171.188054,57.9683514 L171.6,57.9 C171.56466,57.9 171.597,57.8915636 171.675139,57.869238 C171.781374,57.8388854 171.871228,57.8182305 171.961701,57.8078331 L172.022,57.804 L172.102908,57.7848279 C172.937609,57.6136701 173.686955,58.0585912 173.92119,58.7975882 L173.957091,58.9309866 L173.980762,59.0626394 C174.254333,60.0201376 173.611624,60.9382928 172.6,61.1 C172.578764,61.1 172.550657,61.1042747 172.491572,61.1180017 L172.421268,61.1350713 C172.231155,61.1825995 172.138352,61.2 172,61.2 L171.986893,61.1923918 C168.948588,61.7285632 166.329241,61.583836 164.145183,60.8104093 L163.896,60.717 L163.379981,61.518725 C162.405968,63.046151 161.476299,64.5734618 160.590967,66.1006554 L160.26,66.678 L160.554147,66.7380828 C162.011176,67.0074103 163.646833,66.9492404 165.563646,66.5139871 L165.978732,66.4149287 L166.111662,66.3992366 L166.355851,66.3264009 C166.42489,66.3091079 166.476258,66.3027212 166.517801,66.306803 C167.361869,66.1661249 168.196616,66.7087105 168.493197,67.6178005 C168.633875,68.4618693 168.091289,69.2966165 167.258114,69.5743416 L167.1,69.6 C167.078764,69.6 167.050657,69.6042747 166.991572,69.6180017 L166.921268,69.6350713 C166.769177,69.6730939 166.679366,69.6918347 166.578688,69.6978101 L166.452,69.7 L166.053332,69.790181 C163.303392,70.376799 160.862857,70.348936 158.738344,69.7828621 L158.445,69.699 L158.1916,70.1729359 C157.162441,72.1086551 156.24578,73.962965 155.410663,75.8100081 L155.325,76 L155.400067,76.0109297 C156.961951,76.188321 158.637719,76.060762 160.534662,75.5720121 L160.976393,75.4527864 C161.049272,75.4163469 161.106013,75.3917204 161.1752,75.3661994 L161.405258,75.285105 C161.440924,75.2709066 161.480466,75.2535594 161.541886,75.2256584 C162.401387,74.9391582 163.385739,75.4760775 163.674342,76.3418861 C163.945763,77.1561498 163.478159,78.0824686 162.692015,78.4231106 L162.651,78.439 L162.604956,78.4708214 C162.553186,78.5015036 162.49728,78.5254746 162.431546,78.5478221 L162.168593,78.6275403 C162.150957,78.6338901 162.139462,78.6392859 162.123607,78.6472136 L162.018034,78.7 L161.87,78.7 L161.510985,78.8053783 C158.776836,79.5750201 156.322003,79.7026263 154.216012,79.2447504 L154.001,79.194 L153.882834,79.4919836 C153.155261,81.3255743 152.514162,83.001651 151.934723,84.5972454 L151.482,85.861 L151.563729,85.8677302 C153.109869,85.9571776 154.821128,85.7250494 156.651825,85.1032314 L157.076393,84.9527864 C157.149272,84.9163469 157.206013,84.8917204 157.2752,84.8661994 L157.505258,84.785105 C157.540924,84.7709066 157.580466,84.7535594 157.641886,84.7256584 C158.507865,84.4369987 159.487864,84.8824528 159.774342,85.7418861 C160.046965,86.5597551 159.664776,87.479327 158.897465,87.8203123 L158.853,87.837 L158.804956,87.8708214 C158.753186,87.9015036 158.69728,87.9254746 158.631546,87.9478221 L158.368593,88.0275403 C158.350957,88.0338901 158.339462,88.0392859 158.323607,88.0472136 L158.218034,88.1 L158.086,88.1 L157.724318,88.2317354 C155.181332,89.1214314 152.87501,89.3806015 150.680608,89.1094805 L150.341,89.062 L150.26771,89.2876497 C149.696022,91.0572487 149.195834,92.8461916 148.556146,95.3513817 L148.335,96.22 L148.427755,96.2224474 C150.059422,96.2265021 151.71502,95.9003787 153.591399,95.1178181 L153.996931,94.9430942 L154.212309,94.8972573 L154.476393,94.7527864 L154.61073,94.6929268 C155.423334,94.3737035 156.3429,94.7677664 156.747214,95.5763932 C157.168802,96.4195694 156.777157,97.4204383 155.923607,97.8472136 L155.818034,97.9 L155.7,97.9 C155.710504,97.9 155.707304,97.9045873 155.693127,97.9132634 L155.318034,98.1 L155.203,98.1 L154.882733,98.2414336 C152.355468,99.3191054 150.027132,99.7355457 147.85191,99.5714896 L147.596,99.548 L147.521135,99.9054333 C147.078853,102.063892 146.677644,104.405638 146.325183,106.847914 L146.278,107.183 L146.363549,107.17905 C147.927985,107.080708 149.608745,106.632129 151.473876,105.748764 L151.876393,105.552786 C151.921243,105.530362 151.955047,105.510853 152.00977,105.475417 L152.07265,105.433975 C152.201356,105.348171 152.269526,105.30622 152.376393,105.252786 C153.226379,104.827794 154.224856,105.131678 154.647214,105.976393 C155.048596,106.779157 154.799837,107.714372 154.059353,108.17161 L153.839164,108.293758 L153.72735,108.366025 C153.63082,108.430378 153.568342,108.470064 153.498052,108.508427 L153.318034,108.6 L153.217,108.6 L152.900439,108.759499 C150.614486,109.871096 148.384282,110.390313 146.195975,110.413748 L145.839,110.412 L145.806728,110.682247 C145.551764,112.819648 145.378058,115.043037 145.2678,117.459914 L145.218,118.682 L145.3125,118.677648 C146.861947,118.565359 148.549168,118.026055 150.403327,116.970753 L150.776393,116.752786 L150.860836,116.706242 L151.100951,116.550514 C151.153485,116.517763 151.190776,116.497322 151.22265,116.483975 C152.048093,115.93368 153.058435,116.186265 153.616025,117.02265 C154.148819,117.821841 153.927678,118.894222 153.150852,119.376152 L152.939164,119.493758 L152.74062,119.62302 L152.683953,119.658936 C152.629086,119.732848 152.557195,119.792919 152.473607,119.834714 L152.377,119.874 L152.032577,120.066275 C149.68611,121.347409 147.4758,122.04415 145.419378,122.176636 L145.2,122.187 L145.2,123.212 L145.46786,123.226297 C147.539686,123.366521 149.799533,124.067332 152.113583,125.323784 L152.548069,125.565878 L152.8,125.709839 L152.8,125.751 L153.045882,125.91014 C153.082152,125.93198 153.120579,125.953431 153.17735,125.983975 C153.970821,126.512956 154.171326,127.475381 153.716025,128.37735 C153.187044,129.170821 152.224619,129.371326 151.376393,128.947214 C151.296243,128.907138 151.23786,128.873522 151.15938,128.82302 L150.959156,128.692886 L150.86295,128.640236 C148.814744,127.537356 147.045949,126.919529 145.53949,126.749014 L145.219,126.719 L145.257872,127.728526 C145.346454,129.788058 145.479328,131.847602 145.656495,133.907164 L145.753,134.97 L145.979257,134.961609 C148.162854,134.907314 150.490851,135.453432 153.003173,136.647727 L153.316,136.8 L153.418034,136.8 L153.523607,136.852786 C153.603757,136.892862 153.66214,136.926478 153.74062,136.97698 L153.939164,137.106242 L154.023607,137.152786 C154.868322,137.575144 155.172206,138.573621 154.747214,139.423607 C154.324856,140.268322 153.326379,140.572206 152.476393,140.147214 C152.396243,140.107138 152.33786,140.073522 152.25938,140.02302 L152.129992,139.937709 C152.069109,139.897654 152.026242,139.872138 151.983092,139.850501 C149.822589,138.810258 147.89272,138.310628 146.237225,138.286165 L146.175,138.286 L146.302849,139.176145 C146.590637,141.102107 146.922706,143.028108 147.299061,144.954154 L147.496,145.932 L147.659272,145.911275 C149.848986,145.654344 152.310424,146.056205 154.995912,147.169573 L155.304,147.3 L155.364634,147.301789 C155.488692,147.309278 155.588354,147.342229 155.787168,147.436604 L156.023607,147.552786 C156.877157,147.979562 157.268802,148.980431 156.847214,149.823607 C156.4429,150.632234 155.523334,151.026296 154.71073,150.707073 L154.576393,150.647214 C154.538161,150.628098 154.509717,150.615687 154.467792,150.600467 L154.228528,150.516174 C154.183296,150.498318 154.144376,150.480723 154.10304,150.459573 C151.923327,149.52541 150.009328,149.158633 148.292937,149.243714 L148.209,149.248 L148.363997,149.924909 C148.732853,151.501447 149.166161,153.072656 149.912922,155.616037 L150.149,156.418 L150.381916,156.377343 C152.607199,156.013295 155.129387,156.257226 157.84114,157.178929 L158.185,157.3 L158.407107,157.3 L158.532881,157.425472 C158.523526,157.415455 158.522999,157.412826 158.531148,157.414318 L158.747666,157.477566 C158.803731,157.495714 158.82728,157.507031 158.858114,157.525658 C159.717547,157.812136 160.163001,158.792135 159.874342,159.658114 C159.587864,160.517547 158.607865,160.963001 157.676393,160.647214 C157.638161,160.628098 157.609717,160.615687 157.567792,160.600467 L157.332773,160.517813 C157.291787,160.501596 157.261358,160.48728 157.237005,160.472686 C154.903114,159.667896 152.997932,159.378286 151.455696,159.557971 L151.255,159.585 L151.394802,159.997422 C152.221556,162.446004 152.863103,164.205192 153.552964,165.855334 L153.789,166.411 L154.072357,166.346742 C156.33034,165.864934 158.863624,165.94979 161.688845,166.695919 L162.068,166.8 L162.307107,166.8 L162.432881,166.925472 C162.423526,166.915455 162.422999,166.912826 162.431148,166.914318 L162.619166,166.968861 C162.661263,166.98201 162.692465,166.993037 162.723096,167.005754 L162.792,167.037 L162.88337,167.067776 C163.68842,167.374514 164.109279,168.208706 163.920458,168.998553 L163.880762,169.137361 C163.609503,170.086767 162.637366,170.572835 161.676393,170.247214 C161.638161,170.228098 161.609717,170.215687 161.567792,170.200467 L161.359904,170.128187 C161.307293,170.108308 161.273957,170.092689 161.256326,170.078913 C158.940861,169.384274 157.041,169.211834 155.453137,169.490438 L155.196,169.54 L155.417415,170.036448 C156.386544,172.207758 157.190968,173.897753 158.04251,175.517679 L158.231,175.876 L158.448668,175.798215 C160.713311,175.025993 163.31228,174.932151 166.292868,175.612464 L166.662,175.7 L166.7,175.7 C166.810682,175.7 166.892212,175.711136 167.017734,175.739925 L167.121268,175.764929 C167.231155,175.7924 167.271685,175.8 167.370711,175.805025 C168.36107,175.946505 168.978878,176.944503 168.694975,177.770711 C168.560232,178.71391 167.648602,179.319195 166.772874,179.111632 L166.719,179.096 L166.694865,179.095685 C166.662017,179.092763 166.630749,179.08831 166.599209,179.082189 L166.50192,179.058684 L166.311662,179.000763 L166.18987,178.987721 C163.840534,178.457225 161.93277,178.428369 160.30371,178.823269 L160.042,178.891 L160.390967,179.499345 C161.276299,181.026538 162.205968,182.553849 163.179981,184.081275 L163.687,184.868 L163.883127,184.787482 C166.028169,183.932025 168.710828,183.691357 171.761678,184.132356 L172.2,184.2 L172.3,184.2 C172.410682,184.2 172.492212,184.211136 172.617734,184.239925 L172.721268,184.264929 C172.831155,184.2924 172.871685,184.3 172.982199,184.306803 C173.851579,184.4517 174.439889,185.402046 174.293197,186.282199 C174.1483,187.151579 173.197954,187.739889 172.4,187.6 C172.286422,187.6 172.20373,187.58747 172.10192,187.558684 L171.991886,187.524342 C171.927033,187.502724 171.915229,187.5 171.820384,187.493621 C169.436569,187.109134 167.442264,187.192256 165.884233,187.669195 L165.67,187.738 L165.848362,187.997058 C167.094726,189.795543 168.324293,191.465094 169.559056,193.024013 L169.833,193.367 L170.038938,193.267507 C172.126468,192.291197 174.814216,191.885639 177.862156,192.156668 L178.3,192.2 L178.518034,192.2 L178.623607,192.252786 C178.662452,192.272209 178.705372,192.28428 178.762017,192.291361 L178.853484,192.298302 C178.889822,192.299588 178.935335,192.3 179,192.3 C179.928824,192.3 180.634521,193.193884 180.5,194.1 C180.5,195.028824 179.606116,195.734521 178.629289,195.594975 L178.476393,195.547214 C178.421665,195.519849 178.392833,195.509869 178.367801,195.505697 L178.232042,195.498974 C178.209667,195.498561 178.183251,195.49814 178.151838,195.497675 C175.743281,195.264589 173.817086,195.453185 172.293215,196.015111 L172.1,196.09 L172.122835,196.117048 C173.437764,197.712987 174.866925,199.322458 176.50763,201.068416 L176.793,201.37 L177.038543,201.239634 C179.079117,200.187665 181.661183,199.672813 184.648828,199.779349 L185.1,199.8 L185.882199,199.806803 C186.751086,199.951617 187.4,200.681646 187.394975,201.670711 C187.260529,202.611833 186.554729,203.2 185.6,203.2 L185.083343,203.199722 C182.680081,203.119614 180.834238,203.363693 179.43497,203.918499 L179.358,203.95 L179.757582,204.346428 L180.611304,205.17311 C181.429134,205.952793 182.34041,206.787895 183.635607,207.953133 L184.567,208.789 L184.58352,208.780179 C186.607266,207.684071 188.984315,207.067076 191.822654,207.005166 L192.3,207 L193,207 C193.976142,207 194.7,207.723858 194.7,208.7 C194.7,209.676142 193.976142,210.4 193,210.4 L192.4,210.4 C190.427249,210.4 188.828675,210.633294 187.494344,211.096082 L187.369,211.141 L188.845681,212.331788 L189.67879,212.993701 C190.754026,213.841473 191.695553,214.556137 192.606472,215.209703 L193.010435,215.496927 C221.021197,194.247777 239.1,160.599853 239.1,122.7 C239.1,85.0580774 221.266432,51.6104068 193.58094,30.338631 Z M52.286,29.982 L51.7171089,30.4169666 C23.5850646,52.0777208 6.6445593,85.3919937 6.30519719,121.590976 L6.3,122.7 C6.3,160.007837 23.8184143,193.195543 51.0842388,214.492114 L52.064,215.246 L51.8603164,214.858147 L54.7081155,212.686547 C56.1603879,211.572136 57.2248457,210.738813 58.2325907,209.923077 L58.7956483,209.464344 L58.5637763,209.420227 C57.8563007,209.30112 57.0896282,209.227589 56.286251,209.206388 L55.8,209.2 L55.2,209.2 C54.2947515,209.2 53.5,208.449401 53.5,207.5 C53.5,206.594751 54.2505986,205.8 55.2,205.8 L55.9,205.8 C58.2050764,205.8 60.1734825,206.131964 61.9195736,206.791353 L61.998,206.822 L62.561003,206.324115 C63.6156021,205.379728 64.6727252,204.390212 65.7182509,203.370353 L66.5,202.6 C66.5894902,202.532882 66.6763757,202.457588 66.7733416,202.363332 L66.923,202.21 L66.9122613,202.208999 C65.8895925,202.029421 64.8522809,201.949888 63.7007812,201.980237 L63.2,202 L62.7707107,201.994975 C61.7701747,202.137908 60.9,201.40513 60.9050253,200.470711 C60.7620915,199.470175 61.4948703,198.6 62.5,198.6 L63.1814942,198.600343 C65.5941916,198.510983 67.5720068,198.734121 69.3019997,199.292646 L69.664,199.415 L70.3161988,198.714624 C71.292786,197.652388 72.27306,196.528226 73.820361,194.7143 L74.059,194.432 L73.937029,194.414439 C72.945473,194.279275 71.8292293,194.25788 70.5735107,194.359191 L70.291,194.384 L70.2357464,194.416031 C70.1351887,194.464711 70.0222451,194.485804 69.867395,194.494457 L69.627,194.5 L69.5405548,194.510578 C68.7418309,194.573585 68.0189637,194.039647 67.8338028,193.22821 L67.806803,193.082199 C67.6566564,192.18132 68.2756482,191.34126 69.3,191.2 L69.3587764,191.192766 L69.4787322,191.164929 C69.6688452,191.1174 69.7616478,191.1 69.9,191.1 L69.9447842,191.103058 C72.3045816,190.840858 74.3528219,190.945981 76.1185736,191.406546 L76.512,191.516 L77.8206732,189.768743 L78.409245,188.96959 C79.0674061,188.068569 79.6301266,187.270439 80.1428759,186.504386 L80.339,186.207 L80.031948,186.185316 C79.0303402,186.126734 77.9532002,186.17309 76.7550623,186.33419 L76.3,186.4 C76.3353396,186.4 76.3030001,186.408436 76.2248606,186.430762 C76.1186264,186.461115 76.0287719,186.48177 75.9382987,186.492167 L75.872,186.496 L75.794123,186.515011 C74.9375722,186.6803 74.1427112,186.131135 73.946334,185.366678 L73.919238,185.237361 C73.6456671,184.279862 74.2883758,183.361707 75.3,183.2 L75.3587764,183.192766 L75.4787322,183.164929 C75.6688452,183.1174 75.7616478,183.1 75.9,183.1 C78.1402034,182.67859 80.2166627,182.716193 82.2689976,183.119841 L82.352,183.137 L84.2204602,180.026066 C84.71485,179.194458 85.1055488,178.519409 85.4584042,177.88189 L85.686,177.465 L85.4436052,177.46431 C84.509188,177.471487 83.4903193,177.580232 82.3404414,177.801151 L81.9030052,177.889275 L81.7883379,177.900763 L81.5441491,177.973599 C81.47511,177.990892 81.4237422,177.997279 81.3821995,177.993197 C80.5381307,178.133875 79.7033835,177.591289 79.406803,176.682199 C79.2661249,175.838131 79.8087105,175.003384 80.6418861,174.725658 L80.8587764,174.692766 L80.9787322,174.664929 C81.1308226,174.626906 81.2206344,174.608165 81.3213118,174.60219 L81.437,174.6 L81.835414,174.506906 C83.6424579,174.103902 85.3664849,174.010687 87.0208448,174.188747 L87.508,174.25 L89.095364,170.999237 C89.5168299,170.126429 89.8455605,169.425088 90.1403289,168.763558 L90.333,168.325 L90.1933112,168.332268 C89.2706397,168.396717 88.3030368,168.557443 87.3176541,168.81208 L86.8236068,168.947214 C86.7507278,168.983653 86.6939868,169.00828 86.6248005,169.033801 L86.3947417,169.114895 C86.359076,169.129093 86.3195344,169.146441 86.2581139,169.174342 C85.3986134,169.460842 84.4142612,168.923922 84.1256584,168.058114 C83.8542371,167.24385 84.3218407,166.317531 85.1079848,165.976889 L85.148,165.96 L85.195044,165.929179 C85.2468142,165.898496 85.3027199,165.874525 85.3684544,165.852178 L85.6314065,165.77246 C85.649043,165.76611 85.6605378,165.760714 85.6763932,165.752786 L85.781966,165.7 L85.926,165.7 L86.311017,165.588009 C88.1256865,165.078174 89.7992141,164.865456 91.3142126,164.941423 L91.674,164.965 L92.415128,163.100851 C93.0620936,161.455905 93.5002636,160.28964 93.8870796,159.164938 L94.085,158.58 L93.9547193,158.597049 C93.0641207,158.726848 92.1510543,158.95117 91.2014934,159.276249 L90.7236068,159.447214 C90.6507278,159.483653 90.5939868,159.50828 90.5248005,159.533801 L90.2947417,159.614895 C90.259076,159.629093 90.2195344,159.646441 90.1581139,159.674342 C89.292135,159.963001 88.3121361,159.517547 88.0256584,158.658114 C87.7530354,157.840245 88.1352236,156.920673 88.9025353,156.579688 L88.946,156.562 L88.995044,156.529179 C89.0468142,156.498496 89.1027199,156.474525 89.1684544,156.452178 L89.4314065,156.37246 C89.449043,156.36611 89.4605378,156.360714 89.4763932,156.352786 L89.581966,156.3 L89.714,156.3 L90.1174243,156.158848 C91.8970248,155.557923 93.5594253,155.252995 95.1638289,155.206347 L95.227,155.205 L95.4659791,154.414207 C96.0257723,152.524107 96.519568,150.670214 96.9564987,148.809284 L97.043,148.427 L96.9728173,148.44128 C95.9346146,148.650448 95.046911,148.912633 94.1489661,149.301278 L93.8114427,149.453092 L93.5876905,149.502743 L93.3236068,149.647214 C92.4804306,150.068802 91.4795617,149.677157 91.0527864,148.823607 C90.6311983,147.980431 91.0228427,146.979562 91.8763932,146.552786 L91.981966,146.5 L92.1,146.5 C92.0894956,146.5 92.0926961,146.495413 92.1068735,146.486737 L92.481966,146.3 L92.595,146.3 L92.9349952,146.153028 C94.3890467,145.545222 95.855557,145.16003 97.2735684,144.984498 L97.79,144.929 C98.0848184,143.559212 98.3428083,142.087938 98.6214939,140.256984 L99.001,137.65 L98.7894612,137.710031 C98.0677507,137.92303 97.2354498,138.248418 96.2557012,138.694163 L95.9236068,138.847214 L95.8391638,138.893758 L95.7273501,138.966025 C95.5986438,139.051829 95.530474,139.09378 95.4236068,139.147214 C94.5736211,139.572206 93.5751441,139.268322 93.1527864,138.423607 C92.7514043,137.620843 93.0001625,136.685628 93.7406472,136.22839 L93.9608362,136.106242 L94.0726499,136.033975 C94.1691796,135.969622 94.2316576,135.929936 94.301948,135.891573 L94.481966,135.8 L94.588,135.8 L94.8938534,135.658136 C96.5071029,134.919803 97.9035148,134.440728 99.198442,134.202809 L99.439,134.162 L99.5436288,133.055748 C99.7207546,131.063086 99.8535977,129.070442 99.9421592,127.077812 L99.973,126.267 L99.6651106,126.369038 C98.9153893,126.627087 98.1435082,126.975623 97.2930595,127.440689 L96.8391638,127.693758 L96.5990487,127.849486 C96.5465153,127.882237 96.5092244,127.902678 96.4773501,127.916025 C95.6519072,128.46632 94.6415646,128.213735 94.0839749,127.37735 C93.5511807,126.578159 93.7723222,125.505778 94.5491476,125.023848 L94.7608362,124.906242 L94.9593796,124.77698 L95.016,124.741 L95.0763913,124.67193 L95.1469013,124.613009 L95.2263932,124.565286 L95.321,124.526 L95.6519242,124.336093 C97.0022718,123.578738 98.3387052,123.013822 99.5737682,122.681136 L99.9,122.598 L99.9,120.8 L99.7040292,120.7523 C98.492721,120.436359 97.1815847,119.87898 95.6458607,119.05 L95,118.694202 L95,118.648 L94.7541183,118.48986 C94.7178479,118.46802 94.6794213,118.446569 94.6226499,118.416025 C93.8291788,117.887044 93.6286735,116.924619 94.0839749,116.02265 C94.6129556,115.229179 95.575381,115.028674 96.4236068,115.452786 C96.5037572,115.492862 96.5621403,115.526478 96.6406204,115.57698 L96.7273501,115.633975 C96.8236438,115.698171 96.8638073,115.722887 96.9480695,115.765878 C97.8685313,116.291857 98.715803,116.694421 99.5196417,116.9918 L99.873,117.116 L99.8364043,116.310875 L99.7930476,115.554341 C99.7186703,114.360851 99.6103233,113.065458 99.4454189,111.32997 L99.24,109.234 L99.0228948,109.195428 C97.7767424,108.954459 96.3830131,108.469796 94.7887351,107.739548 L94.49,107.6 L94.381966,107.6 L94.2763932,107.547214 C94.1962428,107.507138 94.1378597,107.473522 94.0593796,107.42302 L93.8608362,107.293758 L93.7763932,107.247214 C92.9316778,106.824856 92.6277935,105.826379 93.0527864,104.976393 C93.4751441,104.131678 94.4736211,103.827794 95.3236068,104.252786 C95.4037572,104.292862 95.4621403,104.326478 95.5406204,104.37698 L95.7391638,104.506242 C95.7687163,104.524183 95.793707,104.537837 95.8236068,104.552786 C96.7304294,105.006198 97.6000635,105.342762 98.6181865,105.654428 L98.791,105.705 L98.6975426,105.076429 C98.4098314,103.217377 98.0778492,101.35828 97.7015926,99.4991335 L97.487,98.467 L97.1622794,98.4318899 C95.8427841,98.2653499 94.3917368,97.8608909 92.8335651,97.236535 L92.502,97.1 C92.3452899,97.1 92.2488063,97.0745708 92.0268721,96.9700327 L91.7763932,96.8472136 C90.9228427,96.4204383 90.5311983,95.4195694 90.9527864,94.5763932 C91.3570998,93.7677664 92.2766663,93.3737035 93.0892699,93.6929268 L93.2236068,93.7527864 C93.2618389,93.7719024 93.2902831,93.784313 93.3322079,93.7995327 L93.4081139,93.8256584 C93.4746972,93.8478528 93.5262408,93.86597 93.5732828,93.8846362 L93.7114427,93.9469084 C94.6804214,94.3990985 95.572908,94.6949192 96.5864447,94.9249241 L96.714,94.952 L96.2962292,93.3682954 C95.8870344,91.8377574 95.5141468,90.5016955 95.1378667,89.2266936 L94.828,88.194 L94.4671538,88.1770618 C93.1066043,88.0929296 91.64673,87.7772227 89.9912434,87.2276213 L89.619,87.1 L89.3928932,87.1 L89.267,86.974 L89.2745497,86.984421 L89.0523338,86.9224344 C88.9962692,86.9042861 88.9727201,86.8929691 88.9418861,86.8743416 C88.0824528,86.5878639 87.6369987,85.607865 87.9256584,84.7418861 C88.2121361,83.8824528 89.192135,83.4369987 90.1236068,83.7527864 C90.1618389,83.7719024 90.1902831,83.784313 90.2322079,83.7995327 L90.4666167,83.88198 C90.5069927,83.89799 90.5362011,83.9118927 90.5581139,83.9256584 C91.5843082,84.2677231 92.5112922,84.5132177 93.3378957,84.6627078 L93.578,84.702 L93.3064149,83.908583 C92.8492039,82.6018072 92.3196588,81.2228693 91.664026,79.610646 L91.164,78.396 L90.9725882,78.3936953 C89.3912331,78.3557274 87.8161289,78.1450172 86.2021384,77.7276025 L85.735,77.6 L85.4928932,77.6 L85.367,77.474 L85.3745497,77.484421 L85.3501394,77.480762 L85.1196325,77.411081 C85.090816,77.4002671 85.0768706,77.391981 85.0626394,77.380762 C84.1132332,77.1095031 83.6271649,76.1373664 83.919238,75.2626394 C84.1904969,74.3132332 85.1626336,73.8271649 86.1236068,74.1527864 C86.1618389,74.1719024 86.1902831,74.184313 86.2322079,74.1995327 L86.4666167,74.28198 C86.5069927,74.29799 86.5362011,74.3118927 86.5581139,74.3256584 C87.5287856,74.6492156 88.4320626,74.8502201 89.3003533,74.9417027 L89.605,74.968 L89.3503025,74.4202667 C88.5825963,72.7730711 87.8635292,71.2884202 87.1421682,69.8685118 L86.713,69.034 L86.6852204,69.0372544 C85.1582103,69.1802848 83.3974789,69.0659564 81.5521876,68.6876472 L81.149,68.6 L81.1,68.6 C80.9893183,68.6 80.9077883,68.5888637 80.7822656,68.5600747 L80.6787322,68.5350713 C80.5688452,68.5075995 80.5283145,68.5 80.4292893,68.4949747 C79.43893,68.3534948 78.8211215,67.3554966 79.1050253,66.5292893 C79.239768,65.5860899 80.1513982,64.9808052 81.0271256,65.1883682 L81.08,65.203 L81.1051348,65.2043147 C81.1708305,65.2101597 81.230207,65.2221256 81.29808,65.2413161 L81.4883379,65.2992366 L81.6212678,65.3149287 C82.6581293,65.5741441 83.6494612,65.717389 84.6687164,65.7728105 L84.828,65.779 L84.6428559,65.4542349 C83.5280768,63.5132073 82.5441643,61.8928727 81.5542139,60.3857365 L81.471,60.261 L81.456376,60.2645038 C79.8875624,60.5775723 78.1010306,60.578289 76.152509,60.2753063 L75.7,60.2 L75.6,60.2 C75.4893183,60.2 75.4077883,60.1888637 75.2822656,60.1600747 L75.1787322,60.1350713 C75.0688452,60.1075995 75.0283145,60.1 74.9178005,60.093197 C74.0484207,59.9483003 73.4601108,58.9979537 73.606803,58.1178005 C73.7516997,57.2484207 74.7020463,56.6601108 75.5,56.8 C75.613578,56.8 75.6962705,56.8125303 75.79808,56.8413161 L75.9081139,56.8756584 C75.9729671,56.8972761 75.9847707,56.9 76.0921443,56.9085639 C77.0177703,57.0821188 77.9086702,57.1607689 78.8049676,57.1601508 L79.265,57.152 L77.9392126,55.3119128 C77.1813725,54.2691351 76.5857353,53.4709427 75.9901906,52.7028885 L75.406,51.959 L75.2885755,51.9863555 C73.6890684,52.3356217 71.9481039,52.4403674 70.105129,52.2571428 L69.6,52.2 L69.381966,52.2 L69.2763932,52.1472136 C69.2375476,52.1277908 69.1946277,52.1157196 69.1379826,52.1086389 L69.0465158,52.1016977 L69.00675,52.1006861 L68.9,52.1 C67.9711764,52.1 67.2654786,51.2061161 67.4,50.3 C67.4,49.3711764 68.2938839,48.6654786 69.2707107,48.8050253 L69.4236068,48.8527864 C69.4600926,48.8710293 69.4850687,48.8815459 69.5050824,48.8877662 L69.5321995,48.894303 C69.5589669,48.8987643 69.5910957,48.9 69.7584206,48.9034247 C70.8626878,49.0333385 71.7881213,49.0766431 72.6228115,49.0343395 L72.912,49.015 L72.6614759,48.7235228 C71.5195201,47.4029969 70.380901,46.1326295 69.2160461,44.8802689 L68.543,44.162 L68.4589296,44.1863272 C66.9182638,44.5933895 65.2300882,44.7665766 63.2902601,44.7170225 L62.8,44.7 L62.0178005,44.693197 C61.148914,44.5483825 60.5,43.8183543 60.5050253,42.8292893 C60.6394714,41.8881666 61.3452713,41.3 62.3,41.3 L62.8332595,41.3011074 C63.6821888,41.3577027 64.4921795,41.350562 65.2635943,41.2857382 L65.638,41.247 L65.5167906,41.1268978 C63.9424952,39.5706901 62.4958269,38.2246545 61.0573025,36.9900127 L60.783,36.757 L60.6081864,36.809237 C59.1380464,37.2298279 57.6592338,37.4565866 56.0025203,37.4943395 L55.5,37.5 L54.8,37.5 C53.8238576,37.5 53.1,36.7761424 53.1,35.8 C53.1,34.8238576 53.8238576,34.1 54.8,34.1 L55.4,34.1 C56.0546134,34.1 56.6729949,34.0695403 57.2395061,34.0099883 L57.419,33.988 L55.7734826,32.6667493 C54.6652825,31.7831473 53.8130736,31.120728 52.9575233,30.4801773 L52.286,29.982 Z" id="Combined-Shape" fill="#FFD13F"></path>
        </g>
    </g>
</svg>