<?xml version="1.0" encoding="UTF-8"?>
<svg width="52px" height="52px" viewBox="0 0 52 52" version="1.1" xmlns="http://www.w3.org/2000/svg" xmlns:xlink="http://www.w3.org/1999/xlink">
    <title>basketball-ball</title>
    <g id="Page-1" stroke="none" stroke-width="1" fill="none" fill-rule="evenodd">
        <g id="basketball-ball" transform="translate(-0.000026, -0.000026)" fill-rule="nonzero">
            <path d="M22.6453631,0.214997114 C17.5231715,0.876346553 12.7159047,3.05416583 8.8411088,6.46861357 L17.2166565,14.8441612 C20.7319864,10.7824812 22.6600396,5.58664203 22.6453631,0.214997114 L22.6453631,0.214997114 Z M19.5933452,17.22085 L26.0000259,23.6275307 L43.158943,6.46861357 C38.4197833,2.2916329 32.3172026,-0.00890615449 26.0000259,2.59122513e-05 L26.0000259,0.209755189 C26.0178368,6.4730159 23.7384017,12.5253991 19.5933452,17.22085 L19.5933452,17.22085 Z M29.3546703,51.7902966 C34.4774655,51.1274585 39.2847938,48.9477858 43.158943,45.5314382 L34.7833953,37.1558906 C31.2672932,41.219178 29.3392198,46.4169332 29.3546703,51.7902966 L29.3546703,51.7902966 Z M45.5314382,8.8411088 L28.3725211,26.0000259 L34.7792018,32.4067066 C39.4749081,28.2620745 45.5271239,25.9827025 51.7902966,26.0000259 L52.0000259,26.0000259 C52.008958,19.6828492 49.7084189,13.5802685 45.5314382,8.8411088 Z M45.5314382,43.158943 C48.9477858,39.2847938 51.1274585,34.4774655 51.7902966,29.3546887 C46.4186517,29.3400122 41.2228126,31.2680654 37.1611325,34.7833953 L45.5314382,43.158943 Z M32.4067066,34.7792018 L26.0000259,28.3725211 L8.8411088,45.5314382 C13.5802685,49.7084189 19.6828492,52.008958 26.0000259,52.0000259 L26.0000259,51.7902966 C25.982215,45.5270359 28.2616501,39.4746527 32.4067066,34.7792018 L32.4067066,34.7792018 Z M6.46861357,8.8411088 C3.05416583,12.7159047 0.876346553,17.5231715 0.214997114,22.6453631 C5.58664203,22.6600396 10.7824812,20.7319864 14.8441612,17.2166565 L6.46861357,8.8411088 Z M17.22085,19.5933452 C12.5253991,23.7384017 6.4730159,26.0178368 0.209755189,26.0000259 L2.59122513e-05,26.0000259 C-0.00890615449,32.3172026 2.2916329,38.4197833 6.46861357,43.158943 L23.6275307,26.0000259 L17.22085,19.5933452 Z" id="Shape" fill="#F38B00"></path>
            <path d="M29.3548412,51.7903066 C28.2422053,51.9319564 27.1216198,52.001993 26.0000052,52.0000662 L26.0000052,51.7903066 C25.9821943,45.5270385 28.2616322,39.4746481 32.4066935,34.7791916 L26.0000052,28.3725033 L8.84106772,45.5314408 C8.00020603,44.7922717 7.20773877,43.9998044 6.46856967,43.1589428 L23.6275072,26.0000052 L17.2208189,19.5933169 C12.5253624,23.7383783 6.472972,26.0178161 0.209703843,26.0000052 L2.59122514e-05,26.0000052 C2.59122514e-05,24.8782787 0.0715578224,23.7576936 0.214945774,22.6451693 C5.58659708,22.660015 10.7824424,20.7319595 14.8441273,17.2166253 L6.46856967,8.84106772 C7.20773877,8.00020603 8.00020603,7.20773877 8.84106772,6.46856967 L17.2166253,14.8441273 C20.7319595,10.7824424 22.660015,5.58659708 22.6451693,0.214945774 C23.7576936,0.0715578224 24.8782787,2.59122513e-05 26.0000052,2.59122513e-05 L26.0000052,0.209703843 C26.0178161,6.472972 23.7383783,12.5253624 19.5933169,17.2208189 L26.0000052,23.6275072 L43.1589428,6.46856967 C43.9998044,7.20773877 44.7922717,8.00020603 45.5314408,8.84106772 L28.3725033,26.0000052 L34.7791916,32.4066935 C39.4749034,28.2620566 45.5271265,25.9826818 51.7903066,26.0000052 L52.0000662,26.0000052 C52.001993,27.1216198 51.9319564,28.2422053 51.7903066,29.3548412 C46.4186553,29.3399955 41.22281,31.268051 37.1611251,34.7833851 L45.5366827,43.1589428 C44.7975136,43.9998044 44.0050464,44.7922717 43.1641847,45.5314408 L34.788627,37.1558832 C31.270708,41.2184703 29.3407528,46.4162792 29.3548412,51.7903066 Z" id="Path" fill="#000000"></path>
        </g>
    </g>
</svg>