<?xml version="1.0" encoding="UTF-8"?>
<svg width="96px" height="96px" viewBox="0 0 96 96" version="1.1" xmlns="http://www.w3.org/2000/svg" xmlns:xlink="http://www.w3.org/1999/xlink">
    <title>Artboard</title>
    <g id="Artboard" stroke="none" stroke-width="1" fill="none" fill-rule="evenodd">
        <g id="Icon@0.5x" transform="translate(0.000000, 12.000000)" fill-rule="nonzero">
            <path d="M35.7489539,37.9446006 C35.3472805,37.7411443 35.2468619,37.2325035 35.4476986,36.8255909 L50.8117157,9.66417442 C41.8744768,9.76590255 32.9372385,11.9021937 24.7029289,15.7678635 C14.8619246,20.4473585 6.32635963,27.6700573 0,36.7238628 L10.2426777,43.9465616 C14.6610878,37.2325035 20.5857741,31.6374552 27.5146443,27.6700573 C27.9163177,27.4666009 28.4184098,27.5683291 28.619247,27.9752417 L39.8661087,47.608775 C41.4728034,46.896678 43.0794981,46.2863091 44.7866109,45.8793964 C42.2761508,42.6240956 39.2635981,39.9791636 35.7489539,37.9446006 Z" id="Shape" fill="#FFD13F"></path>
            <path d="M52.8200838,9.66417442 L37.3556486,36.9273191 C40.9707114,39.1653384 44.0836821,42.0137267 46.6945609,45.2690275 C49.0041843,44.8621149 51.3138077,44.6586586 53.6234311,44.7603867 L56.5355647,9.76590255 C55.2301253,9.76590255 54.0251046,9.76590255 52.8200838,9.66417442 Z" id="Shape" fill="#3FAE2A"></path>
            <path d="M38.4602508,48.3208719 L27.715481,29.501164 C21.3891214,33.3668338 15.8661086,38.6566977 11.7489538,44.8621149 L28.7196651,56.8660368 C31.2301257,53.3055518 34.5439332,50.3554353 38.4602508,48.3208719 Z" id="Shape" fill="#F38B00"></path>
            <path d="M54.0251046,64.8008331 L96,64.8008331 C95.6987449,51.8813575 92.1841005,39.1653384 85.6569037,27.9752417 C79.0292887,16.3782324 69.5899583,6.81578616 58.242678,0 L53.7238492,8.03652397 C54.9288705,8.03652397 56.2343099,8.13825215 57.4393306,8.23998029 C57.8410041,8.23998029 58.242678,8.64689288 58.1422594,9.15553365 L55.1297072,45.7776683 C55.1297072,46.2863091 54.7280333,46.5914935 54.2259413,46.5914935 C52.0167365,46.3880372 49.8075311,46.4897653 47.6987449,46.896678 C48.3012551,47.7105031 48.8033471,48.6260565 49.3054391,49.4398819 C52.0167365,54.1193767 53.6234311,59.4092409 54.0251046,64.8008331 Z" id="Shape" fill="#0055B8"></path>
            <path d="M30.5271965,71.8200755 C30.8284518,68.25959 31.8326358,64.8008331 33.5397491,61.7489885 C35.4476986,58.3919591 38.1589959,55.543571 41.2719667,53.5090078 L39.16318,49.7450664 C35.2468619,51.7796296 31.9330544,54.8314741 29.4225943,58.4936875 C29.121339,58.9006 28.619247,59.002328 28.3179916,58.6971435 L10.7447698,46.2863091 C10.4435144,46.7949498 10.041841,47.4053187 9.7405857,47.9139595 C5.62343089,55.2383865 3.31380747,63.3766388 3.01255216,71.8200755 L30.5271965,71.8200755 Z" id="Shape" fill="#C3002F"></path>
        </g>
    </g>
</svg>