<?xml version="1.0" encoding="UTF-8"?>
<svg width="946px" height="946px" viewBox="0 0 946 946" version="1.1" xmlns="http://www.w3.org/2000/svg" xmlns:xlink="http://www.w3.org/1999/xlink">
    <title>flower-colors</title>
    <g id="Page-1" stroke="none" stroke-width="1" fill="none" fill-rule="evenodd">
        <g id="flower-colors" transform="translate(0.743379, 0.739762)" fill-rule="nonzero">
            <path d="M417.986062,405.680459 C425.922235,399.518299 434.9849,395.879594 444.545727,394.211245 C452.019468,392.907088 459.600893,392.856589 467.056593,393.772348 C473.410882,394.552825 479.697486,396.055282 485.344555,398.136429 C488.650833,399.354911 491.821275,400.795932 494.857867,402.550375 C500.233819,405.656423 504.981967,409.43424 509.336407,415.413654 C555.984733,479.719242 599.611707,533.971054 650.803307,586.899043 C712.457335,650.644339 774.152675,699.823125 834.546435,730.44287 C841.562244,726.069682 849.443652,722.926583 857.924101,721.312463 C895.508449,714.171289 931.500951,739.16018 938.455321,776.750034 C945.368324,814.174887 920.934426,850.37305 883.524904,857.489578 C854.578813,863.006694 826.581337,849.464004 812.048952,825.761078 C790.695246,818.127789 765.35905,804.794862 735.625421,786.333288 C732.392139,784.325747 729.111652,782.258707 725.787395,780.134781 C724.608533,796.474579 719.517128,810.890136 710.090655,823.392317 C703.327483,832.362205 695.01342,839.412007 685.132368,845.367769 C678.399478,849.42599 671.752131,852.587054 662.180696,856.618857 C660.798976,857.200883 652.888508,860.483286 650.703295,861.412212 C646.762223,863.087549 643.634987,864.497666 640.774443,865.906359 C638.692272,866.931738 636.78405,867.942195 634.990217,868.972748 C632.360145,870.481998 628.290611,874.396619 621.399602,882.547689 C619.81016,884.42777 613.969315,891.460923 613.448088,892.083993 C602.88457,904.711526 595.185058,912.847776 585.392323,920.679242 C571.335712,931.920624 555.828248,939.553767 538.13198,942.83737 C518.254185,946.530844 499.192203,945.427917 480.172054,940.32942 C466.702889,936.718906 456.054995,932.260961 438.757862,923.886224 C426.508456,917.95544 425.3628,917.411984 421.110724,915.605429 C416.809137,913.777838 413.323052,912.557251 410.363411,911.823134 C409.330499,911.567417 408.24539,911.322633 407.099202,911.086619 C402.644519,910.169349 399.172922,909.66282 389.051874,908.3652 C377.906643,906.936269 372.11341,906.037577 365.003124,904.376227 C354.158671,901.842373 344.499487,898.194775 335.460197,892.65347 C313.469351,879.172547 299.831645,857.150848 294.176768,827.260232 C284.478867,775.932318 298.781805,711.508749 329.154145,644.3981 C353.759316,590.030574 387.018683,539.269091 415.081482,513.627242 C405.552833,500.370364 399.36563,488.5671 396.544844,477.052474 L395.888297,474.372412 L395.596783,471.628545 C395.500861,470.725681 395.397382,469.521615 395.306065,468.052974 C394.866054,460.976359 394.993968,453.437813 396.191686,445.568582 C397.069779,439.799349 398.485853,434.239932 400.701914,428.807776 C401.24869,427.467482 401.838355,426.14805 402.474022,424.851747 L387.883965,366.862574 L417.986062,405.680459 Z M441.417155,488.208743 L423.54736,557.186175 C412.590467,599.479793 391.907537,649.245182 366.702205,692.244989 C336.267063,744.166751 301.125983,783.937442 262.314273,805.005125 C237.257124,818.60754 213.969262,823.270271 191.464841,817.618283 C180.844182,814.950903 171.303949,810.176325 162.471591,803.628355 C155.965152,798.804732 150.19405,793.339327 143.846905,786.417357 C140.617603,782.895596 130.075331,770.700782 127.986386,768.390987 C124.444761,764.474932 121.414705,761.400592 118.457646,758.758879 C115.81824,756.400836 110.161928,753.573674 96.9510867,748.392525 C96.0329912,748.032458 92.6593291,746.714253 91.9679102,746.443385 C89.9022915,745.634165 88.2503724,744.981276 86.6265389,744.329866 C72.2398918,738.558585 61.8166267,733.515959 51.5150401,726.60335 C37.1063303,716.934763 25.496435,704.883745 17.145308,689.653094 C7.14760544,671.421703 2.28488586,652.450669 1.45107907,632.198337 C0.872985076,618.157013 1.87482462,607.449379 4.78324633,587.074893 C7.17017606,570.353637 7.73462392,564.342788 7.31381817,558.30627 C6.97730806,553.44903 6.23775991,548.668059 4.44297296,539.129428 C2.02698901,526.289365 1.3201805,522.11293 0.619190186,514.985745 C-0.492663373,503.681188 -0.179798466,493.274144 2.15189233,482.811586 C7.91817672,456.937622 24.9667471,436.58101 52.5338111,421.615569 C98.7694069,396.514087 165.103067,390.047783 239.033276,397.982365 C301.434822,404.67963 362.982815,421.494628 395.463415,441.139186 L401.040495,444.512254 L524.472073,367.76037 L441.417155,488.208743 Z M65.2818264,196.362777 C65.7262804,188.939228 65.9249944,185.934702 66.2921216,181.686634 C67.4628349,168.140188 69.3846409,156.896253 72.9903866,145.725791 C77.7863228,130.868167 85.2709885,117.612027 96.0562368,106.173582 C116.536212,84.4481327 139.954923,73.3394696 170.39625,66.7299219 C176.136007,65.483682 179.654855,64.8345246 190.236725,62.9784415 C204.493529,60.477767 210.596496,59.0692562 215.781305,56.973239 C219.84002,55.3310547 224.057214,53.2262071 230.957882,49.4667488 C231.940417,48.9314674 235.453038,47.0078684 236.084985,46.6629275 C238.246685,45.4829884 239.963197,44.5572136 241.666942,43.6575595 C246.301788,41.2101528 250.375721,39.2098918 254.508035,37.4131911 C290.548327,21.7431275 325.065062,26.6849087 357.793831,57.7132234 C395.320295,93.2849236 421.423931,153.218749 436.353372,224.603933 C448.947752,284.824017 451.832561,347.330073 443.276904,383.664424 L441.948188,389.307244 L553.335237,482.991009 L412.442492,441.274065 L342.895301,445.603655 C300.083532,448.268859 247.367553,444.141646 199.594797,433.738415 C141.859546,421.165702 94.0363488,400.491814 62.5335745,370.635774 C30.4339309,340.210195 21.4669352,306.907903 34.9494446,272.109429 C37.4589433,265.63239 40.5397106,259.491983 44.5874938,252.444265 C46.700317,248.765564 54.1354921,236.474843 53.7540777,237.114723 C57.5618661,230.726586 60.052839,226.10673 62.0245388,221.648121 C63.4666779,218.385367 64.3260469,212.326809 65.2818264,196.362777 Z M573.203314,7.87327813 C595.959116,1.94034185 608.506563,-0.366905716 624.997863,0.0467824006 C639.52062,0.411089136 653.442007,3.50562834 666.698025,9.8274943 C683.40495,17.793503 697.201632,28.7195757 708.85259,42.3990616 C717.555949,52.6177487 724.224241,63.0965562 731.993715,77.4902749 C732.920302,79.2068699 733.846664,80.946594 735.013565,83.1554262 C735.276477,83.6530941 737.238784,87.3750654 737.797895,88.4313599 C743.633211,99.4556732 746.937599,104.903512 750.342915,108.987826 C752.859748,112.006695 755.900534,115.166376 760.46423,119.557508 C761.194237,120.259913 768.33545,127.041313 770.548737,129.198882 C777.068018,135.554047 782.003443,140.900671 786.549671,146.907645 C792.854725,155.238574 797.673806,164.024568 800.81489,173.791907 C807.948421,195.973937 805.224607,219.511432 793.44938,244.44836 C771.324512,291.293776 722.546907,334.80172 659.460357,371.172059 C606.221101,401.865286 547.805312,423.987114 510.647458,427.068234 L505.034984,427.533619 L450.346077,563.575498 L446.393728,415.606462 L420.779837,350.415125 C405.049003,310.377706 392.689892,258.781804 387.800039,209.969464 C381.890918,150.98242 386.71136,98.9669856 405.258821,59.6883344 C419.672199,29.164379 439.852114,10.2807487 467.04709,4.45185591 C478.149503,2.07219691 489.078013,2.1362249 501.030816,3.90147366 C508.205625,4.9610849 510.255336,5.41479776 525.952949,9.12055147 C535.532375,11.3819779 541.054933,12.4594698 546.604922,13.0365893 C550.23751,13.4135674 555.962705,12.3682828 573.203314,7.87327813 Z M486.959091,432.04508 L541.514245,387.56631 C574.960939,360.297249 620.527566,332.683796 665.753086,313.031569 C720.36319,289.301379 771.631547,277.909735 814.933244,283.455582 C847.183327,287.582116 870.812088,299.948519 885.181154,322.351014 C891.302797,331.895132 895.048393,342.183211 897.363202,353.771294 C898.846163,361.195089 899.524742,367.219587 900.507797,378.995885 C901.628448,392.420486 902.194236,397.327272 903.51124,403.401003 C903.735242,404.434647 904.342243,406.082633 905.463825,408.377034 C907.604153,412.755468 909.005552,415.03038 917.71038,428.541515 C927.053588,443.043509 932.330296,452.320114 936.973617,463.954738 C943.810111,481.084728 946.559058,498.499456 944.166962,516.760052 C941.63198,536.073213 934.972081,553.284897 924.696266,569.224056 C917.277732,580.731192 909.438473,589.845149 897.001806,602.610155 C896.441908,603.184834 890.111087,609.641925 888.397484,611.416602 C881.629749,618.425542 877.788846,622.961194 875.269911,626.935369 C873.59159,629.584851 871.886392,632.664409 869.897105,636.611034 C869.102717,638.18705 868.275803,639.873087 867.225223,642.050799 C866.837325,642.854859 864.889696,646.912611 864.326415,648.078294 C859.975292,657.08275 856.843885,662.993586 852.839579,669.20814 C846.969144,678.318865 840.302861,686.055809 832.075343,692.555195 C812.695216,707.864662 788.327334,713.294164 759.276359,709.57409 C707.620908,702.960216 650.749412,669.998284 596.222418,621.241725 C550.167916,580.061038 510.704604,531.322249 496.126736,496.929398 L493.858955,491.579136 L346.166423,481.413572 L486.959091,432.04508 Z M784.407639,777.84083 C790.545938,810.560731 768.933147,841.969918 736.230788,848.091144 C703.582475,854.179936 672.093547,832.730447 665.926701,800.016466 C659.806126,767.308638 681.402746,735.881147 714.109094,729.79018 C746.758426,723.69608 778.249788,745.136888 784.407639,777.84083 Z M781.493092,746.483644 C775.851892,716.279903 795.72739,687.39969 825.834075,681.756207 C855.866553,676.171359 884.865339,695.91158 890.471225,725.927614 C896.176396,756.072669 876.276409,784.996825 846.197095,790.632245 C816.155006,796.261978 787.184791,776.532678 781.493092,746.483644 Z M790.622047,702.781858 C793.347573,717.25095 807.228544,726.703805 821.535522,724.0239 C835.960995,721.346518 845.540981,707.420036 842.801755,692.913217 C840.082081,678.464741 826.210453,669.001048 811.847099,671.673367 C797.442437,674.377956 787.877513,688.302724 790.622047,702.781858 Z M762.22128,708.104872 C756.528301,677.955035 776.452624,648.99093 806.505203,643.4132 C836.545486,637.786337 865.540446,657.531724 871.196181,687.556658 C876.911101,717.706732 857.006097,746.660009 826.901814,752.279533 C796.851453,757.90319 767.877344,738.153172 762.22128,708.104872 Z" id="outline" fill="#703E20"></path>
            <path d="M521.370227,567.671216 C474.678675,524.043434 440.959161,486.041122 436.367332,467.296991 C436.367332,467.296991 434.084241,445.807509 442.543173,438.544398 C452.436564,430.065215 473.488079,435.834613 476.148947,439.48838 C537.239404,523.702717 679.448001,710.805583 844.449175,780.210501 C847.619221,770.931709 855.366397,763.53533 865.57734,761.591836 C880.715816,758.715466 895.295838,768.83829 898.137382,784.197439 C900.973451,799.551035 890.997935,814.332689 875.848509,817.214612 C860.699083,820.102087 846.130011,809.973711 843.288467,794.625668 C843.113266,793.67058 843.135166,792.73215 843.05304,791.788168 C804.318978,785.924402 720.84065,731.480523 639.488521,668.0075 C661.387306,696.629695 677.903093,726.696713 683.233587,754.877785 C694.38646,813.879077 652.465697,811.648655 614.583811,833.411834 C586.885468,849.306352 571.314899,894.98032 530.64201,902.527318 C484.765932,911.051506 454.025896,880.410805 420.216313,872.024638 C383.041928,862.821386 344.580672,873.123287 334.46398,819.648362 C317.422703,729.454284 400.072063,580.203705 445.10694,541.800693 C469.072804,596.771767 462.142647,665.037041 447.975936,721.835515 C483.122527,687.578659 493.818589,619.870991 475.384595,546.60383 C517.25522,600.597714 527.004235,678.270511 525.483388,744.785676 C552.65278,703.160416 550.799706,636.13581 521.370226,567.671209 L521.370227,567.671216 Z M145.772812,728.183044 C121.847951,706.808593 73.0022911,706.246254 53.0947473,669.939195 C30.6414102,628.994231 50.6384764,590.226244 48.2157765,555.472577 C45.5692705,517.272496 23.697829,483.921893 72.0958768,457.647854 C153.729116,413.328856 323.245376,445.376614 374.245169,476.221746 C328.700647,516.125547 260.741955,530.82431 201.606814,535.055772 C245.528742,557.788746 314.108496,546.848189 379.006641,506.493403 C339.958089,563.122615 268.116363,596.601275 203.531546,615.871131 C255.219542,629.55657 324.425953,603.020849 383.857636,546.903866 C365.080313,619.384358 309.598805,732.687324 242.753548,768.972112 C189.359031,797.957627 178.498845,757.419107 145.772812,728.183044 Z M99.5224122,238.228516 C112.236797,209.471536 98.0320612,163.84248 125.890157,134.297187 C157.307626,100.96909 199.4851,107.784708 231.159149,94.9801056 C265.972216,80.8944955 290.489306,50.402133 329.587813,87.46924 C395.523554,149.970371 416.74877,317.442966 403.368367,374.267153 C352.418022,344.015664 318.2273,285.242593 296.450709,231.500489 C288.496712,279.280981 319.362805,339.778485 376.569348,387.892914 C311.98748,368.770864 259.11551,312.089011 221.671128,257.848737 C224.493514,310.101807 270.1048,366.433298 340.347818,404.682874 C267.096803,409.243042 144.724261,392.042503 90.7386228,340.878837 C47.5948773,299.98513 82.1240675,277.57297 99.5224122,238.228516 Z M542.366472,53.8169221 C573.560652,57.0579206 612.427859,29.3695934 649.052097,46.8358881 C690.353279,66.5286556 696.918464,108.935832 718.851531,135.242211 C742.945707,164.142485 779.428054,178.121005 756.376231,226.938887 C717.481738,309.290959 565.260032,381.399063 507.259376,386.208463 C520.193282,328.17759 565.358264,277.314204 609.573668,239.869978 C561.81099,247.064885 514.010111,295.28502 486.052135,364.832131 C484.245754,297.204393 521.639478,229.154392 561.494464,176.585506 C512.836782,195.455685 473.511158,256.469813 458.940049,335.421852 C432.002597,266.861847 410.495203,144.619719 442.33335,77.1948859 C467.770032,23.3263102 499.695496,49.3804284 542.366472,53.8169221 Z M863.442397,412.089375 C870.085348,442.742978 908.782476,471.218733 903.515643,511.424295 C897.563514,556.77154 858.976919,576.055582 840.634193,604.99529 C820.473222,636.822419 818.489179,675.821705 764.483419,668.906086 C673.383241,657.241779 556.634196,534.621911 533.875732,480.928983 C593.546238,475.388846 656.422161,502.696533 706.150346,533.251887 C684.314821,490.033364 623.130031,459.379762 547.714293,454.188954 C611.971862,431.657247 688.901884,446.296307 751.761228,468.047483 C718.446991,427.558091 647.657002,408.929041 567.422084,419.343406 C624.71616,372.631596 735.148322,314.572057 809.729546,324.124016 C869.32268,331.749209 854.345643,370.13717 863.442397,412.089375 Z M721.623748,770.095641 C732.083743,768.138869 742.150505,774.990581 744.110619,785.400607 C746.064684,795.816654 739.167984,805.829305 728.714039,807.786076 C718.254044,809.736827 708.187283,802.873074 706.227168,792.47509 C704.279153,782.065064 711.157703,772.040371 721.623748,770.095641 Z M838.646192,750.333562 C830.80148,751.80406 823.254997,746.657316 821.77682,738.853355 C820.318092,731.042944 825.485229,723.535663 833.329941,722.065164 C841.168169,720.607565 848.727619,725.74141 850.186346,733.551821 C851.664523,741.362231 846.497387,748.863063 838.646192,750.333562 Z M819.369145,711.977434 C811.523555,713.450514 803.978628,708.303197 802.509353,700.497562 C801.034404,692.686283 806.208069,685.168491 814.053659,683.712342 C821.887903,682.244905 829.444176,687.392222 830.913452,695.192213 C832.394073,703.003493 827.226081,710.515641 819.369145,711.977434 Z" id="flower" fill="#EF5C01"></path>
        </g>
    </g>
</svg>