<?xml version="1.0" encoding="UTF-8"?>
<svg width="86px" height="128px" viewBox="0 0 86 128" version="1.1" xmlns="http://www.w3.org/2000/svg" xmlns:xlink="http://www.w3.org/1999/xlink">
    <title>Group</title>
    <g id="Page-1" stroke="none" stroke-width="1" fill="none" fill-rule="evenodd">
        <g id="Group" transform="translate(0.846, 0.001)" fill-rule="nonzero">
            <g id="color" transform="translate(1.518, 3.437)">
                <path d="M43.163,-7.10542736e-15 C43.216,0.059 43.283,0.132 43.363,0.205 C47.547,4.628 82.433,44.36 52.958,113.294 L33.369,113.294 C3.892,44.36 38.779,4.628 42.963,0.205 C43.043,0.132 43.11,0.059 43.163,-7.10542736e-15 Z M39.601,43.32 C32.089,43.32 26.011,49.398 26.011,56.911 C26.011,64.0147685 31.4440045,69.8356078 38.3868373,70.4486509 C39.9087148,71.1840769 41.5920315,71.592 43.363,71.592 C50.199,71.592 55.729,65.514 55.729,58.001 C55.729,51.223445 51.228669,45.6136973 45.329015,44.58037 C43.588616,43.7713433 41.6480514,43.32 39.601,43.32 Z" id="color2" fill="#FD9602"></path>
                <path d="M59.698,29.084 L26.627,29.085 C32.289,12.115 41.001,2.279 42.963,0.205 C43.043,0.132 43.11,0.059 43.163,0 C43.216,0.059 43.283,0.132 43.363,0.205 C45.325,2.279 54.036,12.115 59.698,29.084 Z M16.226,70.502 L0,94.749 L1.518,120.123 C1.629,121.975 3.926,122.765 5.153,121.374 L23.624,98.082 M63.048,70.502 L79.274,94.749 L77.756,120.123 C77.645,121.975 75.348,122.765 74.121,121.374 L55.65,98.082" id="color1" fill="#F1492F"></path>
            </g>
            <path d="M42.119,76.416 C33.259,76.416 26.051,69.208 26.051,60.348 C26.051,51.488 33.259,44.28 42.119,44.28 C50.978,44.28 58.186,51.488 58.186,60.348 C58.186,69.208 50.978,76.416 42.119,76.416 Z M42.119,49.234 C35.991,49.234 31.006,54.219 31.006,60.348 C31.006,66.477 35.991,71.462 42.119,71.462 C48.246,71.462 53.231,66.477 53.231,60.348 C53.231,54.219 48.246,49.234 42.119,49.234 Z M67.663,72.587 C71.181,29.861 47.35,5.252 43.832,1.85 L41.834,0 L39.968,1.85 C36.416,5.269 12.37,30.141 16.202,73.281 L0,97.493 L1.569,123.704 C1.668,125.554 2.874,127.139 4.624,127.75 C5.119,127.915 5.615,127.998 6.094,127.998 C7.399,127.998 8.67,127.437 9.612,126.346 L24.509,107.551 C25.797,110.887 27.267,114.306 28.902,117.791 L29.563,119.211 L54.237,119.211 L54.898,117.791 C56.599,114.157 58.119,110.607 59.44,107.122 L74.783,126.445 C75.658,127.453 76.913,127.998 78.202,127.998 C78.698,127.998 79.193,127.914 79.688,127.749 C81.439,127.138 82.644,125.552 82.743,123.703 L84.312,97.492 L67.663,72.587 Z M41.899,6.953 C45.037,10.306 51.461,18.101 56.4,30.042 L27.399,30.042 C32.337,18.101 38.762,10.306 41.899,6.953 Z M6.441,122.366 L5.037,98.864 L17.143,80.779 C18.2,87.501 19.934,94.603 22.51,102.101 L6.441,122.366 Z M51.082,114.257 L32.717,114.257 C17.077,80.119 19.174,53.446 25.516,34.997 L58.282,34.997 C64.625,53.445 66.722,80.118 51.082,114.257 Z M77.87,122.366 L61.437,101.639 C64.013,94.075 65.731,86.907 66.755,80.168 L79.274,98.864 L77.87,122.366 Z" id="Shape" fill="#000000"></path>
        </g>
    </g>
</svg>