<?xml version="1.0" encoding="UTF-8"?>
<svg width="44px" height="58px" viewBox="0 0 44 58" version="1.1" xmlns="http://www.w3.org/2000/svg" xmlns:xlink="http://www.w3.org/1999/xlink">
    <title>Golf Ball</title>
    <g id="Page-1" stroke="none" stroke-width="1" fill="none" fill-rule="evenodd">
        <g id="Golf-Ball" transform="translate(0.46, 0.49)" fill-rule="nonzero">
            <path d="M29.432,44.538 C29.822,45.033 29.862,45.719 29.531,46.255 C28.1586362,48.4769625 27.1928156,51.0298653 26.5961925,54.0203242 L37.757,54.02 C38.586,54.02 39.257,54.691 39.257,55.52 C39.257,56.349 38.586,57.02 37.757,57.02 L5.323,57.02 C4.494,57.02 3.823,56.349 3.823,55.52 C3.823,54.691 4.494,54.02 5.323,54.02 L16.4828075,54.0203242 C15.8861844,51.0298653 14.9203638,48.4769625 13.548,46.255 C13.217,45.719 13.256,45.033 13.647,44.538 C14.038,44.042 14.697,43.847 15.293,44.042 C19.291,45.357 23.788,45.357 27.786,44.042 C28.382,43.846 29.042,44.042 29.432,44.538 Z" id="Combined-Shape" fill="#EBD717"></path>
            <path d="M21.54,0 C9.66,0 0,9.66 0,21.54 C0,33.42 9.66,43.09 21.54,43.09 C33.42,43.09 43.08,33.42 43.08,21.54 C43.08,9.66 33.42,0 21.54,0 Z M21.54,9 C14.62,9 9,14.63 9,21.54 C9,22.37 8.33,23.04 7.5,23.04 C6.67,23.04 6,22.37 6,21.54 C6,12.97 12.97,6 21.54,6 C22.37,6 23.04,6.67 23.04,7.5 C23.04,8.33 22.37,9 21.54,9 Z M27.91,34.78 C27.89,34.88 27.87,34.97 27.83,35.06 C27.79,35.15 27.74,35.24 27.69,35.32 C27.64,35.4 27.57,35.48 27.5,35.55 C27.22,35.83 26.84,35.99 26.44,35.99 C26.05,35.99 25.66,35.83 25.38,35.55 C25.31,35.48 25.25,35.4 25.2,35.32 C25.14,35.24 25.09,35.15 25.06,35.06 C25.02,34.97 24.99,34.88 24.97,34.78 C24.95,34.68 24.94,34.58 24.94,34.49 C24.94,34.39 24.95,34.29 24.97,34.19 C24.99,34.1 25.02,34 25.06,33.91 C25.09,33.82 25.14,33.73 25.2,33.65 C25.25,33.57 25.31,33.49 25.38,33.43 C25.94,32.87 26.94,32.87 27.5,33.43 C27.57,33.49 27.64,33.57 27.69,33.65 C27.74,33.73 27.79,33.82 27.83,33.91 C27.87,34 27.89,34.1 27.91,34.19 C27.93,34.29 27.94,34.39 27.94,34.49 C27.94,34.58 27.93,34.68 27.91,34.78 L27.91,34.78 Z M28.11,29.67 C28.09,29.76 28.06,29.86 28.02,29.95 C27.98,30.04 27.94,30.13 27.88,30.21 C27.83,30.29 27.77,30.37 27.7,30.44 C27.42,30.72 27.03,30.88 26.64,30.88 C26.54,30.88 26.44,30.87 26.34,30.85 C26.25,30.83 26.15,30.8 26.06,30.76 C25.97,30.72 25.89,30.68 25.81,30.62 C25.72,30.57 25.65,30.51 25.58,30.44 C25.51,30.37 25.44,30.29 25.39,30.21 C25.34,30.13 25.29,30.04 25.25,29.95 C25.21,29.86 25.19,29.76 25.17,29.67 C25.15,29.57 25.14,29.47 25.14,29.38 C25.14,28.98 25.3,28.59 25.58,28.32 C25.65,28.25 25.72,28.18 25.81,28.13 C25.89,28.07 25.97,28.03 26.06,27.99 C26.15,27.95 26.25,27.92 26.34,27.91 C26.83,27.81 27.35,27.97 27.7,28.32 C27.98,28.59 28.14,28.98 28.14,29.38 C28.14,29.47 28.13,29.57 28.11,29.67 L28.11,29.67 Z M30.09,26.21 C30,26.17 29.91,26.13 29.83,26.07 C29.74,26.02 29.67,25.96 29.6,25.89 C29.32,25.61 29.16,25.22 29.16,24.83 C29.16,24.43 29.32,24.04 29.6,23.77 C29.95,23.42 30.47,23.26 30.95,23.36 C31.05,23.37 31.14,23.4 31.23,23.44 C31.32,23.48 31.41,23.52 31.49,23.58 C31.57,23.63 31.65,23.7 31.72,23.77 C31.79,23.83 31.85,23.91 31.91,23.99 C31.96,24.07 32.01,24.16 32.05,24.25 C32.08,24.34 32.11,24.44 32.13,24.53 C32.15,24.63 32.16,24.73 32.16,24.83 C32.16,25.22 32,25.61 31.72,25.89 C31.65,25.96 31.57,26.02 31.49,26.07 C31.41,26.13 31.32,26.17 31.23,26.21 C31.14,26.25 31.05,26.28 30.95,26.3 C30.86,26.32 30.76,26.33 30.66,26.33 C30.56,26.33 30.46,26.32 30.37,26.3 C30.27,26.28 30.18,26.25 30.09,26.21 L30.09,26.21 Z M33.13,31.27 C33.06,31.34 32.98,31.4 32.9,31.45 C32.82,31.51 32.73,31.55 32.64,31.59 C32.55,31.63 32.46,31.66 32.36,31.68 C32.26,31.7 32.17,31.71 32.07,31.71 C31.67,31.71 31.28,31.55 31.01,31.27 C30.73,30.99 30.57,30.6 30.57,30.21 C30.57,29.81 30.73,29.42 31.01,29.15 C31.35,28.8 31.87,28.64 32.36,28.74 C32.46,28.76 32.55,28.78 32.64,28.82 C32.73,28.86 32.82,28.91 32.9,28.96 C32.98,29.01 33.06,29.08 33.13,29.15 C33.41,29.42 33.57,29.81 33.57,30.21 C33.57,30.6 33.41,30.99 33.13,31.27 L33.13,31.27 Z M36.86,26.07 C36.78,26.13 36.69,26.17 36.6,26.21 C36.51,26.25 36.42,26.28 36.32,26.3 C36.23,26.32 36.13,26.33 36.03,26.33 C35.93,26.33 35.83,26.32 35.74,26.3 C35.64,26.28 35.55,26.25 35.46,26.21 C35.36,26.17 35.28,26.13 35.2,26.07 C35.11,26.02 35.04,25.96 34.97,25.89 C34.9,25.82 34.84,25.74 34.78,25.66 C34.73,25.58 34.68,25.49 34.64,25.4 C34.61,25.31 34.58,25.22 34.56,25.12 C34.54,25.02 34.53,24.92 34.53,24.83 C34.53,24.43 34.69,24.04 34.97,23.77 C35.04,23.7 35.11,23.63 35.2,23.58 C35.28,23.53 35.36,23.48 35.46,23.44 C35.55,23.4 35.64,23.37 35.74,23.35 C36.23,23.26 36.74,23.42 37.09,23.77 C37.37,24.04 37.53,24.43 37.53,24.83 C37.53,25.22 37.37,25.61 37.09,25.89 C37.02,25.96 36.94,26.02 36.86,26.07 L36.86,26.07 Z" id="Shape" fill="#217EDF"></path>
        </g>
    </g>
</svg>