<?xml version="1.0" encoding="UTF-8"?>
<svg width="371px" height="342px" viewBox="0 0 371 342" version="1.1" xmlns="http://www.w3.org/2000/svg" xmlns:xlink="http://www.w3.org/1999/xlink">
    <title>helmettest</title>
    <g id="Page-1" stroke="none" stroke-width="1" fill="none" fill-rule="evenodd">
        <g id="helmettest" transform="translate(0.685662, 0.399000)" fill-rule="nonzero">
            <path d="M159.131338,267.109 C146.139338,261.271 138.375338,247.74 139.893338,233.578 C139.897338,233.546 139.901338,233.504 139.905338,233.469 C135.081338,237.441 128.903338,239.826 122.169338,239.826 C106.743338,239.826 94.2433382,227.322 94.2433382,211.9 C94.2433382,196.478 106.743338,183.974 122.169338,183.974 C133.071338,183.974 142.507338,190.227 147.105338,199.337 C154.062338,176.027 167.320338,146.045 192.117338,125.758 C232.103338,93.039 285.143338,91.058 306.615338,90.521 C303.879338,80.623 299.205338,68.657 291.191338,56.665 C273.916338,30.814 237.347338,0 161.246338,0 C60.3673382,0 10.8923382,70.213 1.70533823,127.623 C-6.33166177,177.84 16.5943382,261.854 17.5743382,265.406 C18.7813382,269.779 23.2243382,272.428 27.6523382,271.435 C38.5973382,268.921 70.2853382,267.234 90.8433382,284.365 C100.876338,292.727 127.470338,312.177 157.620338,312.177 C157.622338,312.177 157.622338,312.177 157.624338,312.177 C190.210338,312.177 208.373338,289.345 214.624338,280.422 C192.648338,277.268 167.983338,271.085 159.131338,267.109 Z" id="Path" fill="#AF2226"></path>
            <path d="M354.659338,241.177 C318.630338,241.177 289.225338,239.879 265.489338,237.984 L266.159338,143.135 C280.817338,139.878 297.852338,138.271 317.423338,138.271 C337.155338,138.271 337.155338,108.343683 317.423338,108.343683 C300.137338,108.343683 242.629338,107.628 203.485338,139.655 C165.046338,171.105 158.026338,232.876 157.747338,235.49 C157.058338,241.928 160.452338,248.396 166.491338,250.731 C185.980338,258.268 207.314338,260.601 235.372338,265.094 C236.980338,272.268 223.207338,328.063 275.114338,339.096 C291.437338,342.566 310.505338,340.895 326.907338,329.998 C359.612338,308.271 368.973338,260.949 369.356338,258.945 C370.848338,251.125 364.724338,241.177 354.659338,241.177 Z M236.159338,234.977 C229.246338,234.122 202.814338,230.351 189.571338,226.746 C195.463338,198.984 207.909338,168.717 236.159338,153.766 L236.159338,234.977 Z M310.276338,305.12 C301.915338,310.648 292.448338,312.187 281.337338,309.825 C271.357338,307.704 265.167338,302.836 265.157338,285.151 L265.278338,267.985 C284.805338,269.495 307.755338,270.595 334.565338,270.966 C329.745338,283.155 321.807338,297.497 310.276338,305.12 Z" id="Shape" fill="#000000"></path>
        </g>
    </g>
</svg>