<?xml version="1.0" encoding="UTF-8"?>
<svg width="127px" height="182px" viewBox="0 0 127 182" version="1.1" xmlns="http://www.w3.org/2000/svg" xmlns:xlink="http://www.w3.org/1999/xlink">
    <title>Group 2</title>
    <g id="Page-1" stroke="none" stroke-width="1" fill="none" fill-rule="evenodd">
        <g id="Group-2" transform="translate(0.4198, 0.6)" fill-rule="nonzero">
            <path d="M99.2801812,2.84217094e-14 L75.2801812,58.9 L71.7801812,67.6 L61.5801812,67.6 L70.1801812,46.5 L89.1801812,2.84217094e-14 L75.5801812,2.84217094e-14 L63.3801812,30 L47.9801812,67.6 L45.8801812,67.6 C44.4801812,67.6 43.1801812,68.2 42.1801812,69.1 C41.1801812,70.1 40.5801812,71.4 40.5801812,72.9 L40.5801812,79.5 L40.5801812,87.7 C30.5801812,94.8 24.0801812,106.5 24.0801812,119.7 C24.0801812,141.4 41.6801812,159 63.3801812,159 C85.0801812,159 102.680181,141.4 102.680181,119.7 C102.680181,106.5 96.1801812,94.8 86.1801812,87.7 L86.1801812,72.9 C86.1801812,72.8 86.1801812,72.6 86.1801812,72.5 C86.0801812,71.1 85.4801812,69.9 84.4801812,69.1 L112.680181,0.1 L99.2801812,0.1 L99.2801812,2.84217094e-14 Z M82.8801812,116.6 L76.0801812,123.2 C75.0801812,124.1 74.6801812,125.5 74.8801812,126.8 L76.4801812,136.2 C76.7801812,137.9 74.9801812,139.2 73.3801812,138.4 L64.9801812,134 C63.7801812,133.4 62.3801812,133.4 61.1801812,134 L52.7801812,138.4 C51.2801812,139.2 49.3801812,137.9 49.6801812,136.2 L51.2801812,126.8 C51.4801812,125.5 51.0801812,124.1 50.0801812,123.2 L43.2801812,116.6 C41.9801812,115.4 42.6801812,113.2 44.4801812,113 L53.8801812,111.6 C55.1801812,111.4 56.3801812,110.6 56.9801812,109.4 L61.1801812,100.9 C61.9801812,99.3 64.1801812,99.3 64.9801812,100.9 L69.1801812,109.4 C69.7801812,110.6 70.8801812,111.4 72.2801812,111.6 L81.6801812,113 C83.3801812,113.3 84.0801812,115.4 82.8801812,116.6 Z M63.4801812,80.4 C58.4801812,80.4 53.7801812,81.3 49.3801812,83 L49.3801812,79.5 L49.3801812,76.3 L77.5801812,76.3 L77.5801812,79.5 L77.5801812,83 C73.1801812,81.3 68.4801812,80.4 63.4801812,80.4 Z" id="Shape" fill="#31EB50"></path>
            <path d="M81.1801812,180.2 C81.1801812,180.2 80.9361794,180.304255 80.5129282,180.449996 L80.3207492,180.514813 C77.6846628,181.385695 69.7716705,183.265957 67.7801812,175.3 C67.7801812,175.3 68.7801812,176 70.7801812,176.4 C70.7801812,176.4 70.7695952,176.390926 70.7500669,176.373436 L70.6662994,176.296375 C70.326495,175.97656 69.3280073,174.956522 69.0801812,173.8 C69.0801812,173.8 76.4801812,170.3 81.1801812,180.2 Z M57.0801812,173.8 C56.8801812,175.3 55.3801812,176.4 55.2801812,176.4 C57.2801812,176 58.2801812,175.3 58.2801812,175.3 C55.8801812,184.8 44.8801812,180.2 44.8801812,180.2 C49.6801812,170.3 57.0801812,173.8 57.0801812,173.8 Z M93.0801812,175.1 C93.0801812,175.1 84.3801812,182.5 79.3801812,174.4 C79.3801812,174.4 80.4801812,174.8 82.4801812,174.6 C82.4801812,174.6 80.7801812,173.9 80.1801812,172.7 C80.1801812,172.7 85.9801812,167.3 93.0801812,175.1 Z M45.8712452,172.691849 L45.8801812,172.7 C45.2801812,174 43.5801812,174.6 43.5801812,174.6 C45.5801812,174.8 46.6801812,174.4 46.6801812,174.4 C41.9382457,182.141935 33.5438648,175.461394 32.9165948,175.022336 L32.886409,175.002538 C39.9165448,167.475 45.6158217,172.461312 45.8712452,172.691849 Z M49.1021384,163.999852 C50.2450656,164.009867 59.0152461,164.338961 58.0801812,172.1 C58.0801812,172.1 57.4801812,171.2 55.9801812,170.2 C55.9801812,170.2 56.7801812,171.6 56.5801812,172.8 L56.5660847,172.800851 C56.5474486,172.801861 56.5106539,172.803505 56.4576105,172.804281 L56.3660975,172.804607 C55.1962476,172.796676 49.606497,172.321053 48.9801812,164 L49.1021384,163.999852 Z M77.1751171,163.999918 C76.5538654,172.321053 70.9641147,172.796676 69.7942649,172.804607 L69.7027519,172.804281 C69.6497084,172.803505 69.6129137,172.801861 69.5942776,172.800851 L69.5801812,172.8 C69.3801812,171.6 70.1801812,170.3 70.0801812,170.3 C68.6801812,171.2 68.0801812,172.1 68.0801812,172.1 C67.1451162,164.338961 75.9152967,164.009867 77.0582239,163.999852 L77.1751171,163.999918 Z M35.7801812,168.1 C34.8801812,169.2 33.1801812,169.6 33.1801812,169.6 C35.1801812,170 36.2801812,169.8 36.2801812,169.8 C30.2801812,177.1 22.5801812,168.5 22.5801812,168.6 C30.7801812,162 35.7801812,168.1 35.7801812,168.1 Z M103.580181,168.5 C103.580181,168.5 103.523203,168.562897 103.415232,168.673225 L103.272565,168.816536 C101.782459,170.28971 95.1705037,176.136559 89.8801812,169.7 C89.8801812,169.7 91.0801812,169.9 92.9801812,169.5 C92.9801812,169.5 91.1801812,169.1 90.3801812,168 C90.3801812,168 95.3801812,161.9 103.580181,168.5 Z M47.1801812,170.3 C47.1801812,170.3 47.1771566,170.293195 47.1708444,170.279913 L47.1193609,170.177538 C46.9684609,169.889792 46.5193116,169.117391 45.5801812,168.1 C45.5801812,168.1 46.0801812,169.6 45.5801812,170.7 C45.5801812,170.7 38.6801812,169.7 39.9801812,160.5 C39.9801812,160.5 49.9801812,162.4 47.1801812,170.3 Z M86.1801812,160.5 C87.4274785,169.327027 81.1261636,170.605442 80.6131962,170.69459 L80.583924,170.699434 C80.1453986,169.743478 80.4667596,168.484499 80.6237416,168.172343 L80.64,168.13995 L80.5281634,168.255322 C79.5496962,169.276957 79.1567809,170.122926 79.0905419,170.275479 L79.082,170.29295 L78.9796796,169.989845 C77.1631743,164.312303 82.0245124,161.83206 84.6406265,160.932708 L84.9166851,160.840791 C85.4936549,160.654887 85.9270613,160.554021 86.0990743,160.516847 L86.1749511,160.501024 Z M33.1801812,155.8 C33.1801812,155.8 33.1929321,155.806831 33.2171623,155.820333 L33.2805518,155.856184 C34.2158533,156.392005 41.2749864,160.709091 36.8801812,166.6 C36.8801812,166.6 36.8801812,165.7 36.0801812,164.2 C36.0801812,164.2 36.1801812,165.7 35.3801812,166.6 L35.3664828,166.593281 C35.0554043,166.438127 29.5844065,163.574648 33.1801812,155.8 Z M92.9801812,155.8 C96.6801812,163.8 90.7801812,166.6 90.7801812,166.6 C90.1438175,165.781818 90.0859663,164.467769 90.0807071,164.235612 L90.0801812,164.2 C89.3801812,165.6 89.2801812,166.6 89.2801812,166.6 C84.5801812,160.3 92.9801812,155.8 92.9801812,155.8 Z M112.380181,159.7 C112.380181,159.7 112.355184,159.745449 112.306263,159.828472 L112.249407,159.923728 C111.375258,161.3709 106.206024,169.18764 99.3801812,164 C99.3801812,164 100.480181,164 102.280181,163.1 C102.280181,163.1 100.480181,163.1 99.4801812,162.2 C99.4801812,162.2 99.5126968,162.13404 99.579877,162.018954 L99.6367954,161.923691 C100.409198,160.658993 104.112711,155.654217 112.380181,159.7 Z M26.5801812,162.2 C25.5801812,163.1 23.7801812,163.1 23.7801812,163.1 C25.2921812,163.772 26.3808212,163.95008 26.6312084,163.989862 L26.6795796,163.997773 C19.1801812,169.7 13.6801812,159.7 13.6801812,159.7 C23.1801812,155.1 26.5801812,162.2 26.5801812,162.2 Z M26.2801812,149.2 C26.2801812,149.2 34.0801812,154.6 28.6801812,160.4 C28.6801812,160.4 28.7801812,159.5 28.1801812,157.9 C28.1801812,157.9 28.0801812,159.4 27.1801812,160.2 C27.1801812,160.2 21.5801812,156.7 26.2801812,149.2 Z M99.9801812,149.1 C103.422435,154.592958 101.339753,157.940309 99.9785685,159.338484 L99.8250661,159.491173 C99.4012286,159.899345 99.0801812,160.1 99.0801812,160.1 C98.1801812,159.4 98.0801812,157.9 98.0801812,157.8 C97.4801812,159.3 97.5801812,160.3 97.5801812,160.3 C92.1801812,154.6 99.9801812,149.1 99.9801812,149.1 Z M118.480181,149.2 C118.480181,149.2 115.780181,159.8 107.480181,156.3 C107.480181,156.3 108.580181,155.9 109.980181,154.7 C109.980181,154.7 108.380181,155.1 107.180181,154.5 C107.180181,154.5 108.680181,147.1 118.480181,149.2 Z M18.9801812,154.4 C17.8801812,155.1 16.1801812,154.6 16.1801812,154.6 C17.5801812,155.9 18.6801812,156.2 18.6801812,156.2 C10.3801812,159.7 7.68018117,149.1 7.58018117,149 C17.4801812,147.1 18.9801812,154.4 18.9801812,154.4 Z M21.6801812,141.5 C21.6801812,141.5 27.6801812,149 20.7801812,153 C20.7801812,153 21.0801812,152.1 20.9801812,150.4 C20.9801812,150.4 20.3801812,151.8 19.3801812,152.3 C19.3801812,152.3 15.0801812,147.3 21.6801812,141.5 Z M104.480181,141.4 C111.080181,147.3 106.780181,152.2 106.780181,152.2 C105.741292,151.727778 105.237589,150.541975 105.184828,150.243193 L105.18,150.204 L105.168541,150.437404 C105.114437,151.820908 105.32658,152.620054 105.371841,152.772965 L105.380181,152.8 C98.5801812,148.9 104.480181,141.4 104.480181,141.4 Z M12.7801812,144.4 C11.5801812,144.8 10.0801812,144.1 10.0801812,144.1 C11.1801812,145.5 12.1801812,146 12.1801812,146 C3.58018117,148 2.78018117,137.4 2.68018117,137.4 C12.4801812,137.1 12.7801812,144.4 12.7801812,144.4 Z M123.480181,137.4 C123.480181,137.4 122.580181,148 113.980181,146 L114.000203,145.988395 C114.138971,145.906238 114.984529,145.378261 116.080181,144.1 C116.080181,144.1 114.580181,144.8 113.380181,144.4 L113.38095,144.385486 C113.402175,144.025907 113.934727,137.107792 123.480181,137.4 Z M108.480181,133.2 C115.280181,138.3 111.480181,143.3 111.480181,143.3 C110.380181,142.9 109.780181,141.6 109.780181,141.7 C109.780181,143.3 110.180181,144.1 110.180181,144.1 C103.380181,140.8 108.480181,133.2 108.480181,133.2 Z M17.6801812,133.2 L17.6988316,133.227481 C17.7292829,133.272855 17.7954258,133.373343 17.8853968,133.52092 L17.9663164,133.655784 C18.9553526,135.330041 21.8579589,141.188889 15.9801812,144 C15.9801812,144 16.3801812,143.2 16.3801812,141.6 C16.3801812,141.6 15.6801812,142.9 14.6801812,143.3 C14.6801812,143.3 10.8801812,138.3 17.6801812,133.2 Z M126.080181,124.5 C126.080181,124.5 127.380181,135.1 118.580181,134.9 L118.597868,134.883989 C118.609506,134.873272 118.626733,134.85713 118.649089,134.835432 L118.731081,134.753538 C119.004378,134.473535 119.614964,133.782609 120.280181,132.6 C120.280181,132.6 118.980181,133.6 117.680181,133.5 C117.680181,133.5 116.380181,126.3 126.080181,124.5 Z M0.0801811674,124.5 C9.78018117,126.3 8.48018117,133.5 8.48018117,133.5 C7.18018117,133.6 5.88018117,132.6 5.88018117,132.6 C6.78018117,134.2 7.58018117,134.9 7.58018117,134.9 C-1.31981883,135.1 0.0801811674,124.5 0.0801811674,124.5 Z M16.3801812,124 L16.3981062,124.063937 C16.4019145,124.077917 16.4062701,124.094111 16.4111145,124.112444 L16.4536361,124.280348 C16.8210701,125.789724 18.1908478,132.917333 11.5801812,133.9 C11.5801812,133.9 12.1801812,133.2 12.6801812,131.7 C12.6801812,131.7 11.6801812,132.7 10.5801812,132.8 C10.5801812,132.8 10.5786167,132.795804 10.575723,132.787582 L10.5545219,132.72397 C10.3321812,132.026667 8.9135145,126.706667 16.3801812,124 Z M109.780181,124 C116.694964,126.506609 116.064065,131.254509 115.765657,132.496509 L115.738494,132.604012 C115.721392,132.668368 115.706639,132.717855 115.69625,132.751003 L115.681272,132.796874 C114.580181,132.7 113.580181,131.7 113.580181,131.7 C114.080181,133.2 114.680181,133.9 114.680181,133.9 C107.080181,132.8 109.780181,124 109.780181,124 Z M64.4367486,106.033791 L67.4566293,112.145454 C67.8880409,113.008277 68.678962,113.583492 69.6855889,113.727296 L76.4443697,114.733923 C77.6667024,114.949629 78.1700158,116.459569 77.3071927,117.322392 L72.417862,122.067919 C71.6988428,122.715037 71.4112351,123.721664 71.5550389,124.656389 L72.7054697,131.415169 C72.9211754,132.637502 71.6269408,133.572227 70.4765101,132.997012 L64.4367486,129.833327 C63.5739255,129.401915 62.5672986,129.401915 61.7044755,129.833327 L55.664714,132.997012 C54.5861851,133.572227 53.2200486,132.637502 53.4357544,131.415169 L54.5861851,124.656389 C54.729989,123.721664 54.4423813,122.715037 53.7233621,122.067919 L48.8340313,117.322392 C47.8993063,116.459569 48.4026198,114.877727 49.6968544,114.733923 L56.4556351,113.727296 C57.3903601,113.583492 58.2531832,113.008277 58.6845947,112.145454 L61.7044755,106.033791 C62.2796909,104.88336 63.8615332,104.88336 64.4367486,106.033791 Z M125.080181,112.5 C125.080181,112.5 129.380181,122.2 120.880181,124.5 C120.880181,124.5 121.480181,123.6 121.880181,121.8 C121.880181,121.8 120.880181,123.2 119.580181,123.4 C119.580181,123.4 116.280181,116.9 125.080181,112.5 Z M1.18018117,112.5 C9.67547529,116.796471 6.82418117,123.09528 6.68529934,123.389316 L6.68018117,123.4 C5.38018117,123.1 4.38018117,121.8 4.38018117,121.8 C4.78018117,123.6 5.38018117,124.5 5.38018117,124.5 C-3.11981883,122.2 1.08018117,112.5 1.18018117,112.5 Z M110.080181,115.3 C118.380181,116.9 117.180181,123.1 117.180181,123.1 C116.080181,123.2 114.980181,122.3 114.980181,122.3 C115.680181,123.7 116.380181,124.3 116.380181,124.3 C109.315392,124.392958 109.941221,116.536064 110.064402,115.428999 L110.073988,115.34736 C110.07786,115.316247 110.080181,115.3 110.080181,115.3 Z M16.1801812,115.3 C16.1801812,115.3 16.1825021,115.316247 16.1863746,115.34736 L16.1959602,115.428999 C16.3191417,116.536064 16.9449699,124.392958 9.88018117,124.3 C9.88018117,124.3 10.5801812,123.8 11.3801812,122.3 C11.3801812,122.3 10.1801812,123.2 9.08018117,123.1 C9.08018117,123.1 7.88018117,116.9 16.1801812,115.3 Z M116.580181,111.7 C115.675419,112.061905 114.44322,111.687075 114.216721,111.612396 L114.180181,111.6 C115.084943,112.595238 115.907846,113.01746 116.056382,113.088856 L116.080181,113.1 C108.880181,115.4 107.480181,106.3 107.480181,106.3 C115.980181,105.4 116.580181,111.7 116.580181,111.7 Z M18.6801812,106.3 C18.6801812,106.3 17.3801812,115.3 10.0801812,113.1 C10.0801812,113.1 10.8801812,112.7 11.9801812,111.6 C11.9801812,111.6 10.5801812,112.1 9.58018117,111.7 C9.58018117,111.7 10.2801812,105.4 18.6801812,106.3 Z M4.18018117,99.9 C12.1801812,105.7 7.88018117,111.6 7.88018117,111.6 C6.73472662,111.218182 5.95373489,109.834091 5.88510228,109.709053 L5.88,109.7 L5.88318643,109.940477 C5.92065825,111.431856 6.29716088,112.31976 6.36853579,112.475357 L6.38018117,112.5 C-1.61981883,108.8 4.18018117,99.9 4.18018117,99.9 Z M122.080181,99.9 C122.080181,99.9 127.880181,108.8 119.880181,112.5 C119.880181,112.5 120.244644,111.588843 120.364751,109.940477 L120.38,109.7 L120.37526,109.709053 C120.306627,109.834091 119.525636,111.218182 118.380181,111.6 C118.380181,111.6 114.080181,105.7 122.080181,99.9 Z M113.180181,101.8 C112.380181,102.2 111.324181,102.024 110.882581,101.9376 L110.747481,101.9107 C110.713181,101.904 110.690181,101.9 110.680181,101.9 C111.765895,102.804762 112.606032,103.136508 112.75621,103.191491 L112.780181,103.2 C105.780181,106 103.680181,97.1 103.680181,97.1 C112.080181,95.6 113.180181,101.8 113.180181,101.8 Z M22.4801812,97.1 C22.4801812,97.1 20.3801812,106 13.2801812,103.2 C13.2801812,103.2 14.1801812,103 15.3801812,101.9 C15.3801812,101.9 13.9801812,102.3 12.9801812,101.8 C12.9801812,101.8 13.0061327,101.665917 13.0767998,101.441958 L13.1247161,101.29715 C13.6248178,99.8515571 15.644887,95.8647059 22.4801812,97.1 Z M10.5801812,89 C15.8212068,96.5807692 10.9017459,100.745513 10.2495097,101.248304 L10.205807,101.281378 C10.1890569,101.293787 10.1801812,101.3 10.1801812,101.3 C9.18018117,100.5 8.98018117,98.8 8.98018117,98.8 C8.48018117,100.6 8.58018117,101.7 8.48018117,101.6 C2.18018117,95.5 10.5801812,89 10.5801812,89 Z M115.480181,89 L115.50889,89.0223893 C115.540273,89.0471145 115.596522,89.0920642 115.673344,89.155973 L115.775131,89.2416827 C117.219592,90.4721074 123.252908,96.1931818 117.580181,101.6 C117.580181,101.6 117.671675,100.685066 117.242053,99.0302293 L117.18,98.8 C117.161278,98.9461248 116.936703,100.534783 115.980181,101.3 L115.968642,101.291721 C115.68005,101.082051 110.121207,96.8923077 115.480181,89 Z M29.5801812,90.2 C29.5801812,90.2 24.8801812,98 18.9801812,93.3 C18.9801812,93.3 19.9801812,93.2 21.3801812,92.6 L21.3438136,92.5993089 C21.1189567,92.5927438 19.9039907,92.5238095 19.1801812,91.8 L19.187532,91.7862555 C19.1949034,91.772696 19.2078501,91.7493834 19.2265117,91.7175669 L19.2714962,91.6429656 C19.81593,90.7625709 22.8410507,86.6057971 29.5801812,90.2 Z M106.980181,91.7 C106.180181,92.5 104.780181,92.5 104.780181,92.5 C106.280181,93.2 107.180181,93.2 107.180181,93.2 C101.280181,98 96.5801812,90.2 96.5801812,90.1 C103.980181,86.1 106.980181,91.7 106.980181,91.7 Z M105.880181,79.2 C105.880181,79.2 115.780181,83.1 111.380181,90.7 C111.380181,90.7 111.180181,89.6 110.180181,88.1 C110.180181,88.1 110.380181,89.7 109.680181,90.8 C109.680181,90.8 102.780181,88.4 105.880181,79.2 Z M20.3801812,79.1 C23.4801812,88.4 16.5801812,90.8 16.5801812,90.8 C15.9410507,89.8869565 16.0522039,88.3903592 16.0763676,88.1369853 L16.0801812,88.1 C15.0801812,89.6 14.8801812,90.7 14.8801812,90.6 C10.4801812,83 20.3801812,79.1 20.3801812,79.1 Z M93.7226645,77.5000151 L93.796083,77.5009248 C94.9438605,77.5211632 104.206107,77.937037 103.080181,86.1 C103.080181,86.1 102.480181,85.1 100.980181,84.1 C100.980181,84.1 101.880181,85.5 101.580181,86.8 L101.566372,86.8005987 C101.552677,86.8011123 101.528965,86.8018193 101.496004,86.8021449 L101.417977,86.8021169 C100.339114,86.7915877 94.2270166,86.3405041 93.6801812,77.4999743 L93.6992313,77.4999254 C93.7055251,77.4999315 93.7133502,77.4999558 93.7226645,77.5000151 Z M32.4801812,77.3999495 C31.9326812,86.3424956 25.8063843,86.7919059 24.7384741,86.8020863 L24.6623101,86.8020996 C24.6301421,86.8017773 24.6070093,86.8010859 24.5936499,86.8005844 L24.5801812,86.8 C24.3801812,85.5 25.1801812,84.1 25.1801812,84.1 C23.6801812,85.1 23.1801812,86 23.0801812,86 C21.9542552,77.837037 31.2165019,77.4211413 32.3642793,77.4009003 L32.4801812,77.3999495 Z M51.1801812,0 L57.1801812,14.8 L38.6801812,60.3 L13.9801812,0 L51.1801812,0 Z" id="Combined-Shape" fill="#2C39EB"></path>
        </g>
    </g>
</svg>