<?xml version="1.0" encoding="UTF-8"?>
<svg width="723px" height="723px" viewBox="0 0 723 723" version="1.1" xmlns="http://www.w3.org/2000/svg" xmlns:xlink="http://www.w3.org/1999/xlink">
    <title>Group</title>
    <defs>
        <path d="M440.5,475.1 L506.1,567 L431.6,679.7 L291.4,679.7 L216.9,567 L282.5,475.1 L440.5,475.1 Z M714.5,359 C714.5,359.7 714.6,360.4 714.6,361.2 C714.6,408.8 705.3,455.1 686.9,498.6 C676,524.3 662.3,548.4 645.9,570.6 L646,529.6 L690.6,392.2 Z M8.5,358.9 L32.4,392.1 L77,529.6 L77.2,570.5 C60.8,548.2 47.1,524.2 36.2,498.5 C17.8,455 8.5,408.8 8.5,361.1 L8.5,358.9 Z M601.9,287.2 L686.1,392.9 L642.8,526.3 L512.6,562.3 L447,470.4 L495.8,320.1 L601.9,287.2 Z M121.1,287.2 L227.2,320.1 L276,470.4 L210.4,562.3 L80.2,526.3 L36.9,392.9 L121.1,287.2 Z M492,62.2 L605.5,144.6 L599.5,279.6 L493.4,312.5 L365.5,219.6 L365.5,109.6 L492,62.2 Z M231,62.2 L357.5,109.6 L357.5,219.6 L229.6,312.5 L123.5,279.6 L117.5,144.6 L231,62.2 Z M254.6,24.6 L230.4,57.7 L113.5,142.8 L74.6,155.6 C85.7,140 98.2,125.3 111.9,111.6 C144.3,79.1 182.1,53.7 224.1,35.9 C234.1,31.6 244.3,27.9 254.6,24.6 Z M468.5,24.5 C478.8,27.8 489,31.6 499,35.8 C541,53.6 578.8,79.1 611.2,111.5 C624.9,125.3 637.3,140 648.5,155.5 L609.6,142.7 L492.7,57.6 L468.5,24.5 Z M289.2,683.7 L250.1,696.3 C285.9,708.2 323.2,714.2 361.5,714.2 C399.8,714.2 437.1,708.2 472.9,696.3 L433.8,683.7 L289.2,683.7 Z" id="path-1"></path>
    </defs>
    <g id="Page-1" stroke="none" stroke-width="1" fill="none" fill-rule="evenodd">
        <g id="Group" transform="translate(-0.000000, 0.600000)" fill-rule="nonzero">
            <path d="M721.7,335.7 C721.7,335.5 721.7,335.4 721.7,335.2 C721.4,331 721,326.9 720.6,322.7 C720.6,322.5 720.6,322.4 720.5,322.2 C720.1,318 719.5,313.9 718.9,309.8 C718.9,309.7 718.9,309.7 718.9,309.6 C718.6,307.6 718.3,305.6 718,303.6 C718,303.5 718,303.3 717.9,303.2 C717.2,299.1 716.5,295.1 715.7,291.1 C715.7,290.9 715.6,290.7 715.6,290.5 C714.8,286.5 713.9,282.5 713,278.6 C713,278.5 712.9,278.3 712.9,278.2 C712.5,276.3 712,274.5 711.5,272.6 C711.5,272.5 711.4,272.3 711.4,272.2 C710.4,268.3 709.4,264.4 708.2,260.6 C708.1,260.4 708.1,260.1 708,259.9 C706.9,256.1 705.7,252.3 704.5,248.5 C704.4,248.3 704.4,248.1 704.3,247.9 C703.7,246.1 703.1,244.4 702.5,242.6 C702.5,242.5 702.4,242.3 702.4,242.2 C701.7,240.3 701.1,238.4 700.4,236.5 C700.4,236.4 700.4,236.4 700.3,236.3 C699.6,234.5 699,232.8 698.3,231 C698.2,230.7 698.1,230.5 698,230.2 C696.6,226.6 695.1,223 693.6,219.4 C693.5,219.1 693.4,218.9 693.3,218.6 C692.6,216.9 691.9,215.3 691.1,213.6 C691,213.5 691,213.4 690.9,213.2 C690.1,211.4 689.3,209.6 688.4,207.8 C688.3,207.6 688.2,207.5 688.2,207.3 C687.5,205.7 686.7,204.1 685.9,202.6 C685.8,202.3 685.6,202.1 685.5,201.8 C683.8,198.4 682.1,194.9 680.3,191.6 C680.1,191.3 680,191 679.8,190.7 C678.9,189.1 678.1,187.5 677.2,185.9 C677.2,185.8 677.1,185.7 677.1,185.7 C676.2,184 675.2,182.3 674.2,180.6 C674.1,180.4 673.9,180.1 673.8,179.9 C673,178.4 672.1,177 671.2,175.6 C671,175.3 670.9,175.1 670.7,174.8 C669.7,173.1 668.7,171.5 667.7,169.9 C667.7,169.9 667.7,169.9 667.7,169.8 C666.7,168.2 665.7,166.7 664.7,165.1 C664.5,164.8 664.3,164.5 664.1,164.2 C663.1,162.6 662.1,161.1 661,159.5 C661,159.5 661,159.5 661,159.5 L661,159.5 C614,89.8 543.3,37.3 460.4,13.8 L460.4,13.8 C460.4,13.8 460.4,13.8 460.4,13.8 C458.6,13.3 456.8,12.8 454.9,12.3 C454.5,12.2 454.1,12.1 453.7,12 C452.2,11.6 450.7,11.2 449.2,10.8 C448.8,10.7 448.4,10.6 448.1,10.5 C446.3,10 444.4,9.6 442.6,9.2 C442.5,9.2 442.4,9.1 442.2,9.1 C440.5,8.7 438.8,8.3 437.1,8 C436.7,7.9 436.2,7.8 435.8,7.7 C434.2,7.4 432.6,7 431,6.7 C430.7,6.6 430.5,6.6 430.2,6.5 C428.3,6.1 426.5,5.8 424.6,5.5 C424.2,5.4 423.9,5.4 423.5,5.3 C422,5 420.4,4.8 418.9,4.5 C418.4,4.4 418,4.4 417.5,4.3 C413.8,3.7 410,3.2 406.3,2.7 C405.8,2.6 405.3,2.6 404.9,2.5 C403.4,2.3 401.9,2.2 400.4,2 C400,2 399.5,1.9 399.1,1.9 C397.2,1.7 395.3,1.5 393.4,1.4 C393.1,1.4 392.8,1.4 392.6,1.3 C391,1.2 389.4,1 387.7,0.9 C387.2,0.9 386.6,0.8 386.1,0.8 C384.5,0.7 382.9,0.6 381.4,0.5 C381.1,0.5 380.7,0.5 380.4,0.4 C378.5,0.3 376.6,0.2 374.7,0.2 C374.2,0.2 373.8,0.2 373.3,0.2 C371.8,0.2 370.3,0.1 368.8,0.1 C368.3,0.1 367.7,0.1 367.2,0.1 C365.3,0.1 363.4,0 361.4,0 L361.4,0 C361.4,0 361.4,0 361.4,0 C359.5,0 357.6,0 355.6,0.1 C355.1,0.1 354.5,0.1 354,0.1 C352.5,0.1 351,0.2 349.5,0.2 C349,0.2 348.5,0.2 348.1,0.2 C346.2,0.3 344.3,0.4 342.4,0.4 C342.1,0.4 341.7,0.4 341.4,0.5 C339.8,0.6 338.2,0.7 336.7,0.8 C336.2,0.8 335.6,0.9 335.1,0.9 C333.5,1 331.9,1.1 330.2,1.3 C329.9,1.3 329.6,1.3 329.4,1.4 C327.5,1.6 325.6,1.7 323.7,1.9 C323.3,1.9 322.8,2 322.4,2 C320.9,2.2 319.4,2.3 317.9,2.5 C317.4,2.6 316.9,2.6 316.5,2.7 C312.7,3.2 309,3.7 305.3,4.3 C304.8,4.4 304.4,4.4 303.9,4.5 C302.4,4.7 300.8,5 299.3,5.3 C298.9,5.4 298.6,5.4 298.2,5.5 C296.3,5.8 294.5,6.2 292.6,6.5 C292.3,6.6 292.1,6.6 291.8,6.7 C290.2,7 288.6,7.3 287,7.7 C286.6,7.8 286.1,7.9 285.7,8 C284,8.4 282.3,8.7 280.6,9.1 C280.5,9.1 280.4,9.2 280.3,9.2 C278.4,9.6 276.6,10.1 274.8,10.5 C274.4,10.6 274.1,10.7 273.7,10.8 C272.2,11.2 270.7,11.6 269.2,12 C268.8,12.1 268.4,12.2 268,12.3 C266.2,12.8 264.3,13.3 262.5,13.8 C262.5,13.8 262.5,13.8 262.5,13.8 C179.6,37.4 109,89.8 61.9,159.5 L61.9,159.5 C61.9,159.5 61.9,159.5 61.9,159.5 C60.9,161 59.9,162.6 58.8,164.1 C58.6,164.4 58.4,164.7 58.2,165 C57.2,166.5 56.2,168.1 55.2,169.6 C55.2,169.6 55.2,169.7 55.1,169.7 C54.1,171.3 53.1,173 52.1,174.6 C51.9,174.9 51.8,175.1 51.6,175.4 C50.7,176.8 49.9,178.3 49.1,179.7 C49,179.9 48.8,180.2 48.7,180.4 C47.7,182.1 46.8,183.7 45.8,185.4 C45.7,185.5 45.7,185.6 45.6,185.7 C44.7,187.3 43.9,188.8 43,190.4 C42.8,190.7 42.7,191 42.5,191.3 C40.7,194.7 39,198.1 37.3,201.5 C37.2,201.8 37,202 36.9,202.3 C36.1,203.9 35.4,205.4 34.6,207 C34.5,207.2 34.4,207.4 34.4,207.5 C33.6,209.3 32.7,211.1 31.9,212.9 C31.8,213 31.8,213.2 31.7,213.3 C31,214.9 30.2,216.6 29.5,218.2 C29.4,218.5 29.3,218.7 29.1,219 C27.6,222.6 26.1,226.2 24.7,229.8 C24.6,230.1 24.5,230.3 24.4,230.6 C23.7,232.3 23.1,234.1 22.4,235.8 C22.4,235.9 22.3,235.9 22.3,236 C21.6,237.9 20.9,239.8 20.3,241.7 C20.2,241.8 20.2,242 20.1,242.1 C19.5,243.8 18.9,245.6 18.3,247.3 C18.2,247.5 18.2,247.7 18.1,248 C16.9,251.8 15.7,255.5 14.6,259.4 C14.5,259.6 14.5,259.9 14.4,260.1 C13.3,263.9 12.2,267.8 11.2,271.7 C11.2,271.8 11.1,272 11.1,272.1 C10.6,273.9 10.2,275.8 9.7,277.6 C9.7,277.8 9.6,277.9 9.6,278.1 C8.7,282 7.8,286 7,290 C7,290.2 6.9,290.4 6.9,290.6 C6.1,294.6 5.4,298.6 4.7,302.7 C4.7,302.9 4.7,303 4.6,303.2 C4.3,305.2 4,307.1 3.7,309.1 C3.7,309.2 3.7,309.2 3.7,309.3 C3.1,313.4 2.6,317.5 2.1,321.7 C2.1,321.9 2.1,322.1 2,322.3 C1.6,326.4 1.2,330.6 0.9,334.7 C0.9,334.9 0.9,335 0.9,335.2 C0.6,339.4 0.4,343.7 0.2,347.9 C0.2,347.9 0.2,347.9 0.2,347.9 L0.2,347.9 C0,352.2 0,356.5 0,360.9 C0,444.9 28.7,522.2 76.8,583.5 L76.8,583.5 C76.8,583.5 76.8,583.5 76.8,583.5 C78,585 79.2,586.5 80.4,588 C80.6,588.3 80.8,588.5 81.1,588.8 C82.2,590.1 83.3,591.4 84.4,592.8 C84.5,593 84.7,593.2 84.8,593.3 C86,594.8 87.3,596.2 88.6,597.7 C88.8,597.9 89,598.1 89.1,598.3 C90.2,599.6 91.3,600.8 92.5,602.1 C92.7,602.3 92.9,602.6 93.2,602.8 C94.5,604.2 95.8,605.7 97.1,607.1 C97.2,607.2 97.3,607.3 97.3,607.4 C98.5,608.7 99.8,610 101,611.3 C101.3,611.6 101.5,611.8 101.8,612.1 C104.5,614.8 107.2,617.5 109.9,620.2 C110.2,620.5 110.4,620.7 110.7,621 C112,622.2 113.3,623.5 114.6,624.7 C114.7,624.8 114.8,624.9 114.9,625 C116.3,626.3 117.7,627.6 119.1,628.9 C119.4,629.1 119.6,629.4 119.9,629.6 C121.1,630.7 122.4,631.8 123.6,632.9 C123.8,633.1 124,633.3 124.3,633.5 C125.7,634.8 127.2,636 128.7,637.2 C128.9,637.4 129.1,637.5 129.3,637.7 C130.6,638.8 131.9,639.8 133.1,640.9 C133.4,641.1 133.7,641.4 134,641.6 C135.5,642.8 137,644 138.5,645.2 C138.6,645.3 138.7,645.3 138.8,645.4 C140.2,646.5 141.6,647.6 143,648.7 C143.3,648.9 143.7,649.2 144,649.4 C147,651.7 150.1,653.9 153.2,656.1 C153.5,656.3 153.9,656.6 154.2,656.8 C155.6,657.8 157,658.7 158.4,659.7 C158.6,659.8 158.8,660 159,660.1 C160.6,661.2 162.2,662.2 163.7,663.3 C164,663.5 164.3,663.7 164.6,663.9 C166,664.8 167.3,665.6 168.7,666.5 C169,666.7 169.3,666.9 169.6,667.1 C171.2,668.1 172.8,669.1 174.4,670.1 C174.6,670.2 174.9,670.4 175.1,670.5 C176.5,671.3 177.9,672.2 179.3,673 C179.7,673.2 180,673.4 180.4,673.6 C182,674.6 183.7,675.5 185.4,676.4 C185.5,676.4 185.6,676.5 185.6,676.5 C187.2,677.4 188.8,678.2 190.4,679.1 C190.8,679.3 191.2,679.5 191.6,679.7 C193.2,680.6 194.8,681.4 196.4,682.2 C196.5,682.2 196.5,682.3 196.6,682.3 C198.3,683.2 200,684 201.7,684.9 C202.1,685.1 202.5,685.3 202.9,685.5 C204.4,686.2 205.9,686.9 207.3,687.6 C207.6,687.7 207.8,687.9 208.1,688 C209.8,688.8 211.5,689.6 213.3,690.4 C213.6,690.6 214,690.7 214.3,690.9 C215.8,691.6 217.2,692.2 218.7,692.8 C219.1,693 219.4,693.1 219.8,693.3 C221.5,694 223.3,694.8 225.1,695.5 C225.3,695.6 225.6,695.7 225.8,695.8 C227.3,696.4 228.9,697 230.5,697.6 C230.9,697.8 231.3,697.9 231.7,698.1 C233.5,698.8 235.3,699.5 237.1,700.1 C237.1,700.1 237.1,700.1 237.1,700.1 L237.1,700.1 C275.8,714.2 317.5,722 361.1,722 C404.7,722 446.4,714.3 485.1,700.1 L485.1,700.1 C485.1,700.1 485.1,700.1 485.1,700.1 C486.9,699.4 488.7,698.8 490.5,698.1 C490.9,697.9 491.3,697.8 491.8,697.6 C493.3,697 494.9,696.4 496.4,695.8 C496.7,695.7 496.9,695.6 497.2,695.5 C499,694.8 500.7,694.1 502.5,693.3 C502.9,693.1 503.3,693 503.6,692.8 C505.1,692.2 506.5,691.5 508,690.9 C508.4,690.7 508.7,690.6 509.1,690.4 C510.8,689.6 512.5,688.8 514.3,688 C514.6,687.9 514.9,687.7 515.1,687.6 C516.6,686.9 518,686.2 519.5,685.5 C519.9,685.3 520.3,685.1 520.7,684.9 C522.4,684.1 524.1,683.2 525.8,682.3 C525.9,682.3 526,682.2 526,682.2 C527.6,681.4 529.2,680.5 530.8,679.7 C531.2,679.5 531.6,679.3 532,679.1 C533.6,678.3 535.1,677.4 536.7,676.5 C536.8,676.4 536.9,676.4 537,676.3 C538.7,675.4 540.3,674.4 541.9,673.5 C542.3,673.3 542.7,673.1 543,672.8 C544.4,672 545.8,671.2 547.2,670.3 C547.5,670.1 547.7,670 548,669.8 C549.6,668.8 551.2,667.8 552.8,666.8 C553.1,666.6 553.4,666.4 553.7,666.2 C555,665.4 556.4,664.5 557.7,663.6 C558,663.4 558.4,663.2 558.7,663 C560.3,662 561.8,660.9 563.4,659.9 C563.6,659.8 563.8,659.6 564,659.5 C565.4,658.6 566.7,657.6 568.1,656.7 C568.4,656.5 568.8,656.2 569.1,656 C572.2,653.8 575.2,651.6 578.3,649.3 C578.6,649 579,648.8 579.3,648.5 C580.7,647.4 582.1,646.4 583.5,645.3 C583.6,645.2 583.7,645.1 583.8,645.1 C585.3,643.9 586.8,642.7 588.3,641.5 C588.6,641.3 588.9,641 589.2,640.8 C590.5,639.8 591.7,638.7 593,637.7 C593.2,637.5 593.4,637.3 593.7,637.1 C595.2,635.9 596.6,634.6 598,633.4 C598.2,633.2 598.5,633 598.7,632.8 C599.9,631.7 601.2,630.6 602.4,629.5 C602.7,629.3 602.9,629 603.2,628.8 C604.6,627.5 606,626.2 607.4,624.9 C607.5,624.8 607.6,624.7 607.7,624.6 C609,623.4 610.3,622.2 611.5,621 C611.8,620.7 612.1,620.5 612.3,620.2 C615,617.5 617.7,614.9 620.4,612.1 C620.7,611.8 620.9,611.6 621.2,611.3 C622.4,610 623.7,608.7 624.9,607.4 C625,607.3 625.1,607.2 625.2,607.1 C626.5,605.7 627.8,604.3 629.1,602.8 C629.3,602.6 629.5,602.3 629.8,602.1 C630.9,600.8 632,599.6 633.2,598.3 C633.4,598.1 633.6,597.9 633.7,597.7 C635,596.2 636.2,594.8 637.5,593.3 C637.6,593.1 637.8,593 637.9,592.8 C639,591.5 640.1,590.2 641.2,588.8 C641.4,588.5 641.6,588.3 641.8,588 C643,586.5 644.2,585 645.4,583.4 C645.4,583.4 645.4,583.4 645.4,583.4 L645.4,583.4 C693.5,522.1 722.2,444.8 722.2,360.8 C722.6,352.7 722.3,344.2 721.7,335.7 Z" id="Path" fill="#F38B00"></path>
            <g id="Combined-Shape">
                <use fill="#F38B00" xlink:href="#path-1"></use>
                <use fill="#009944" xlink:href="#path-1"></use>
            </g>
        </g>
    </g>
</svg>