<?xml version="1.0" encoding="UTF-8"?>
<svg width="65px" height="65px" viewBox="0 0 65 65" version="1.1" xmlns="http://www.w3.org/2000/svg" xmlns:xlink="http://www.w3.org/1999/xlink">
    <title>Group 39</title>
    <g id="Page-1" stroke="none" stroke-width="1" fill="none" fill-rule="evenodd">
        <g id="Group-39" transform="translate(0.9792, 0.9792)">
            <circle id="Oval-2" fill="#38D7D7" cx="31.5207876" cy="31.5207876" r="30.5"></circle>
            <path d="M31.7207868,0 C49.2396937,0 63.4415737,14.20188 63.4415737,31.7207868 C63.4415737,49.2396937 49.2396937,63.4415737 31.7207868,63.4415737 C14.20188,63.4415737 0,49.2396937 0,31.7207868 C0,14.20188 14.20188,0 31.7207868,0 Z M31.7207868,4.04157526 C16.4339804,4.04157526 4.04157526,16.4339804 4.04157526,31.7207868 C4.04157526,47.0075933 16.4339804,59.3999984 31.7207868,59.3999984 C47.0075933,59.3999984 59.3999984,47.0075933 59.3999984,31.7207868 C59.3999984,16.4339804 47.0075933,4.04157526 31.7207868,4.04157526 Z M25.9899841,45.0207876 C25.7179913,44.4224827 25.2903494,44.0805942 24.5136763,44.1602221 C24.4625794,43.8344052 24.1685756,43.252172 24.0207876,43.0826888 C24.9554681,42.7196149 26.2360353,44.0301875 25.9899841,45.0207876 Z M26.7583758,38.0207876 C26.6137362,39.6868691 27.8066063,44.4692678 29.8364357,42.6472553 C30.6839585,42.7847512 31.1056885,44.1919717 31.0065535,45.0207876 C30.6660817,44.2672487 30.3069206,43.9354151 29.9965143,43.7756433 C29.2074974,44.2872202 28.2283363,44.8341312 27.6010231,44.3886138 C25.4184284,42.8400568 24.2239331,39.6730427 24.0207876,38.8910828 C25.121836,38.8065881 25.7987166,38.5454228 26.7583758,38.0207876 Z M24.5212501,11.0207876 C31.4283584,23.9529766 38.5401771,27.0800161 39.2297673,30.5125403 C39.3881564,29.1287399 38.8390244,28.1704904 38.4893731,27.6864262 C39.8371744,26.8755997 39.5540166,25.4006097 39.1909171,24.5707854 C40.6485449,24.7600036 41.2522164,23.3921613 41.1401487,22.2880086 C40.5394656,25.0016557 38.4938558,23.4438353 37.4942116,23.3579652 C36.3862352,23.264496 36.315259,23.7212033 35.3925679,23.7212033 C35.6174505,24.166512 36.0933648,24.7782415 36.8404831,25.1597175 C34.9136651,25.0540897 33.3028781,22.9924474 33.8385619,21.2575674 C34.5438416,23.2948925 35.4598086,23.1307514 36.5222107,22.3845175 C36.201697,20.9520826 34.9017112,20.4908158 33.0129963,20.2750007 C30.7290557,20.0135908 30.7649174,18.0362988 31.2438202,16.8470359 C31.0062366,16.9336659 30.6237121,17.2057145 30.3106695,17.4473667 C30.5258396,17.0263752 31.5097943,15.9632578 32.2374875,15.7170462 C31.8273196,16.4951965 31.7032979,16.9336659 31.7279529,17.9656269 C31.5732994,17.6244263 31.5120357,17.4367279 31.457496,16.9769809 C30.5138857,19.8274123 33.3514408,19.7103858 34.5602782,19.8464101 C36.2173865,20.0333485 37.3530062,20.8943293 37.3530062,21.9764445 C37.7616799,21.902733 38.5790273,21.9308498 38.7568414,21.9308498 C37.4344421,21.0219946 38.1740892,20.3129963 37.2932368,19.6511126 C36.5655436,19.1054955 35.5263021,19.3562666 35.1527429,18.1495257 C34.8867688,18.3577417 34.5333819,18.8212883 34.4624057,19.1434911 C34.3428668,18.6495481 34.3682688,17.7688096 34.8090685,17.2573886 C35.0406752,16.7398883 33.5703465,16.4845577 33.03018,16.7657253 C33.9640778,15.1813079 37.939494,14.157706 36.8404831,15.5445461 C36.70247,15.7189114 36.8069924,15.9316618 37.0135855,16.1364282 L37.034,16.155 L37.0240272,16.1900947 C37.0090064,16.2795931 37.0469068,16.3822722 37.1234597,16.4383699 L37.1648912,16.4622602 C37.3439589,16.5392705 37.7139271,16.6835635 38.0207876,17.0207876 C38.0127414,16.9441016 38.0014767,16.8663131 37.9856998,16.7897437 L37.981,16.771 L37.9924199,16.7763132 C38.0832798,16.8184464 38.1638023,16.8513061 38.22658,16.8724469 L38.2831684,16.889591 C38.8689092,15.8561101 40.9996904,17.6320254 41.6989931,17.9101533 C44.4648249,19.0112664 49.1955777,18.3281051 51.0207876,17.8637987 C48.3931727,19.2939538 45.4375729,19.5287667 42.4319161,19.3023128 C43.5667888,19.8912449 45.3367119,19.9854741 45.9351536,19.9801547 C45.2918848,20.2453641 44.3818948,20.4353422 43.4128824,20.4581396 C44.1921268,20.8061794 45.564583,21.0128756 46.8212359,20.7529856 C46.0113597,21.5030191 44.6471218,21.5964883 44.0367262,21.5463341 C44.2489077,21.7484708 44.6493631,22.3791981 44.7935569,22.8313459 C45.8223388,22.9286147 46.5380781,23.05628 47.2164615,23.5228662 C46.626238,23.3610049 45.8589476,23.3214894 45.2395865,23.6702892 C45.558606,24.1414349 45.9045218,25.2349488 45.9784865,25.5928676 C46.6815248,25.4538036 47.1499679,25.7000152 47.7962252,26.0776917 C46.9497402,26.0298172 46.4671018,26.1225265 46.1749786,26.4401699 C46.2347481,26.9660292 46.2377365,27.7411399 46.2295182,28.2799178 C46.7681905,28.3931447 47.4757115,28.8422529 47.845535,29.3179581 C47.2739896,29.1325395 46.5963533,29.0656672 46.1749786,29.2275285 C46.240725,29.6963944 46.2257827,30.2526503 46.1084851,30.654644 C46.7562366,30.906175 47.1903123,31.3796004 47.5115732,31.669127 C46.9213497,31.4677502 46.2332538,31.5270234 45.9411306,31.6068142 C45.3255051,33.3675312 44.4282161,35.7832927 42.0426675,37.2712011 C43.4076526,35.2065192 42.7374875,33.2330267 42.0374377,32.8530705 C43.0415646,34.0788092 42.5380069,36.0690197 41.243251,38.0835475 C40.0792407,39.8928988 38.7008076,42.9773832 39.3007435,43.1172071 C39.6802796,43.2057912 39.8917293,43.0616249 40.0814668,42.8802385 L40.2219861,42.7402751 C40.316001,42.6463871 40.4137363,42.5554147 40.5334886,42.4917992 C41.2342856,42.120962 41.6967518,43.7502141 41.7191653,44.4827697 C41.5129607,44.2502365 41.1670449,43.0024603 40.700096,44.2958312 C40.5491781,44.7160628 39.575683,44.375622 39.4023516,44.2054016 C38.6993133,44.7593778 37.8984025,44.6567896 37.269329,44.6134746 C37.2501174,43.9837786 37.4374649,41.7229307 37.7229975,39.910764 L37.726,39.885 L37.8283736,39.8557003 C38.0968257,39.7710052 38.3142398,39.673111 38.4485883,39.6151594 L38.5086921,39.5897582 C38.5024087,38.8198544 38.8197195,38.5218083 39.0207876,38.1333569 C38.8006449,38.0593661 38.5520987,38.0282272 38.2960693,38.0284584 L38.123,38.033 L38.152377,37.9430185 C38.1718993,37.8873236 38.1915759,37.8358666 38.2113884,37.7890039 L38.2712146,37.662556 C35.4650384,37.4710581 30.6498612,35.6100326 28.5310338,34.4846024 C27.4320229,37.7643843 23.623214,39.4498699 19.9690586,39.6026123 C20.0131386,42.1445192 21.5245588,44.2418774 22.0699551,43.1628018 C22.580984,42.1543981 23.7009143,43.8649609 23.6912017,45.0207876 C23.4999395,44.6925055 23.3482745,44.3604238 23.0300021,44.1050932 C22.6788565,44.9820321 21.942945,44.6081552 21.7135797,44.3642233 C20.9537605,44.5747191 19.7927387,44.5359635 18.7393019,44.4113379 C18.0355165,42.467482 17.3922477,40.9985714 16.9021381,38.5402548 C18.3141916,38.1002655 19.8151522,36.9664762 20.0176213,36.5097689 C20.0766436,35.0583362 20.799107,32.5696232 22.0258752,31.651649 C20.9186459,32.2033454 20.5391098,33.4002074 18.6982104,34.0552519 C16.0399637,35.0005829 13.2935569,32.7664405 15.2771559,30.2450512 C15.7680126,29.6211631 17.2831684,28.4790148 17.753853,28.139334 C18.4725807,27.6225935 18.1117226,27.0412606 17.1636295,27.2213598 C16.4628326,27.3543445 15.486349,27.6598292 14.8520456,28.2753583 C14.7481962,32.7421233 9.90462853,33.9131483 9.02078763,32.5749426 C10.6868613,33.3188968 11.5759321,31.7975522 11.5385762,30.3635975 C11.4548989,27.1620866 13.5737263,27.2760735 14.1505016,27.4941683 C15.0552618,26.6651039 16.0324925,26.0723723 17.0388608,26.0632533 C19.7688309,26.040456 20.0841148,27.8916025 18.6100505,28.9228036 C18.1998826,29.2092906 16.8931727,30.0824299 16.2917425,30.9608887 C15.3272128,32.3697662 16.8543226,33.1661544 18.2364913,32.588621 C19.145636,32.2082848 19.7962213,31.6178792 20.4190306,31.026521 L20.7053492,30.7542803 C21.8017862,29.7162695 22.9224171,28.7759806 25.3453216,29.0915042 C25.3333677,28.4030236 24.703547,27.6765473 24.0303934,27.4143775 C26.6624911,26.4363703 23.4618364,23.6680095 21.3572043,22.293328 C26.8397398,23.2683161 23.3692905,17.950885 21.9703988,16.183042 L21.8542458,16.0385028 C21.7990485,15.9709463 21.7483712,15.910639 21.7031201,15.8583899 C26.3180695,18.424614 25.5642272,15.0316052 24.5212501,11.0207876 Z M32.0207876,44.0207876 C31.7728202,43.7664277 31.608186,43.6347341 31.2631657,43.656506 C31.2250559,43.422856 31.1213974,43.2168192 31.0207876,43.0229959 C31.3881657,42.9927276 31.9415193,43.2709835 32.0207876,44.0207876 Z M42.9854764,44.0207876 C42.9418746,43.6304157 42.7397623,42.718017 42.2914818,43.1129815 C42.2542387,42.8573262 42.1602224,42.417201 42.0207876,42.1316937 C42.8215156,41.5285307 43.1326323,43.5607611 42.9854764,44.0207876 Z M37.845,39.199 L37.8216628,39.3261792 C37.8046621,39.4198894 37.7879272,39.5156976 37.7714768,39.6132473 L37.726,39.885 L37.6900426,39.896702 C37.2157508,40.0280676 36.6145147,40.0981668 36.0346111,39.8609743 C34.8604043,39.3803677 34.3718715,39.7734852 34.0207876,40.0207876 C34.6247776,38.9423391 36.2042623,39.3290408 36.7941147,39.3879501 C37.1870426,39.4274107 37.5328424,39.3516541 37.7864858,39.2306254 L37.845,39.199 Z M37.983,38.542 L38.0124721,38.5488893 C38.3730316,38.6504482 38.2552389,38.9716589 37.8675586,39.1887017 L37.845,39.199 L37.8734441,39.0516996 C37.908472,38.8733848 37.944489,38.7048888 37.9813465,38.5490645 L37.983,38.542 Z M18.0207876,37.5894031 C16.7543593,37.7706034 16.6019737,38.5957702 16.6914818,38.9608834 C15.8237712,39.1637844 14.8377029,38.8051813 14.1689814,38.5708144 C12.8914571,38.1248663 12.4520538,38.6001103 12.0207876,38.7948735 C12.6273713,37.9789295 13.9478003,37.944751 14.6475907,38.3201721 C15.1417345,38.5854624 16.4066833,38.7286866 16.4325741,38.1340891 C16.4532867,37.6528774 15.5604252,37.8959246 14.9797323,37.9686217 C14.2399961,38.0603069 13.6785364,37.2866792 13.8131683,37.0354943 C14.1874748,37.6252091 15.0707198,37.9778445 15.7409208,37.4602843 C16.7565785,36.6763487 17.9053888,37.0816082 18.0207876,37.5894031 Z M48.0207876,36.0207876 C45.963112,39.1546719 44.2762083,37.1662422 43.0207876,39.0207876 C43.0207876,38.0793473 44.1829732,37.1563248 44.9172895,36.7397959 C46.1727102,36.8559706 46.7169426,36.6427475 48.0207876,36.0207876 Z M34.5588021,38.0207876 C34.7135303,38.3404143 35.690596,38.8962615 36.562415,38.4389854 C36.928478,38.2470094 37.521428,38.0685317 38.102971,38.0343344 L38.123,38.033 L38.0942919,38.1224599 C38.075097,38.1862738 38.056075,38.2539689 38.0372446,38.3251885 L37.983,38.542 L37.9339204,38.5316022 C37.8488671,38.5174356 37.7441239,38.5129186 37.6180229,38.5206418 C37.3156353,38.5387229 36.8687298,38.8262703 35.8649598,38.8641822 C35.3363704,38.8840131 34.5061788,38.4920621 34.5588021,38.0207876 Z M56.0207876,29.1728641 C55.472334,29.0834909 54.7561828,28.8902514 54.2592756,29.3218195 C53.925255,29.7678806 54.8475918,31.4812705 53.6414062,32.4128458 C51.7066983,33.9080362 48.243468,35.3162687 46.0207876,36.0207876 C47.154121,34.7486278 47.9513718,32.4265336 48.0496536,31.8427894 C50.4778323,32.1914256 53.1369388,32.0303927 52.9066983,28.1221245 C54.2056674,27.7557747 55.2235368,28.4466058 56.0207876,29.1728641 Z M26.0207876,27.0207876 C28.7682733,28.1006377 32.984891,29.905387 35.0207876,33.0207876 C33.9262495,29.4146218 28.6624401,27.5190518 26.0207876,27.0207876 Z M25.0207876,22.0207876 C27.7626666,23.6414629 36.1470438,27.6954021 38.0207876,31.0207876 C36.7630171,27.4417964 28.1826829,23.1552603 25.0207876,22.0207876 Z M25.0207876,19.0207876 C29.9492472,23.7711057 37.8248564,28.2084828 39.0207876,31.0207876 C39.0443665,28.4395456 31.4507888,24.0410259 25.0207876,19.0207876 Z M52.0207876,27.2817205 C52.7693453,26.8681366 54.3407396,26.9238113 55.0207876,27.6102628 C54.4352107,27.4053062 53.6051626,27.448133 53.4162203,27.5264447 C53.433528,27.5760014 53.4371338,27.8403035 53.424153,27.9755137 C53.039778,27.9755137 52.7599703,27.9657247 52.4404992,28.0207876 C52.4029992,27.9180035 52.167903,27.4646518 52.0207876,27.2817205 Z M48.0207876,15.0207876 C46.278453,16.649171 44.3521499,17.613326 42.4151153,18.0207876 C41.821817,17.864972 41.2338844,17.4253231 41.0207876,17.2358571 C43.8117425,16.9520239 46.0454263,16.1641673 48.0207876,15.0207876 Z M37.4969948,16.0780193 C37.7510028,16.1818616 37.8863448,16.4144004 37.9584886,16.6760944 L37.981,16.771 L37.8983885,16.7311794 C37.6399125,16.6030626 37.3254841,16.4147967 37.0955681,16.2127508 L37.034,16.155 C37.0800904,16.035461 37.2224769,15.9653411 37.4969948,16.0780193 Z" id="Combined-Shape" fill="#182177"></path>
        </g>
    </g>
</svg>