<?xml version="1.0" encoding="UTF-8"?>
<svg width="64px" height="65px" viewBox="0 0 64 65" version="1.1" xmlns="http://www.w3.org/2000/svg" xmlns:xlink="http://www.w3.org/1999/xlink">
    <!-- Generator: Sketch 49.3 (51167) - http://www.bohemiancoding.com/sketch -->
    <title>Group 15</title>
    <desc>Created with Sketch.</desc>
    <defs></defs>
    <g id="Page-1" stroke="none" stroke-width="1" fill="none" fill-rule="evenodd">
        <g id="tiki-page" transform="translate(-169.000000, -617.000000)">
            <g id="Group-17" transform="translate(154.000000, 545.000000)">
                <g id="Group-16" transform="translate(0.000000, 56.000000)">
                    <g id="Group-15" transform="translate(14.100000, 15.899999)">
                        <circle id="Oval-2" stroke="#979797" fill="#38D7D7" cx="32.5" cy="32.5" r="30.5"></circle>
                        <path d="M32.6999992,64.4207861 C15.1810924,64.4207861 0.979212369,50.218906 0.979212369,32.6999992 C0.979212369,15.1810924 15.1810924,0.979212369 32.6999992,0.979212369 C50.218906,0.979212369 64.4207861,15.1810924 64.4207861,32.6999992 C64.4207861,50.218906 50.218906,64.4207861 32.6999992,64.4207861 Z M32.6999992,60.3792108 C47.9868057,60.3792108 60.3792108,47.9868057 60.3792108,32.6999992 C60.3792108,17.4131928 47.9868057,5.02078763 32.6999992,5.02078763 C17.4131928,5.02078763 5.02078763,17.4131928 5.02078763,32.6999992 C5.02078763,47.9868057 17.4131928,60.3792108 32.6999992,60.3792108 Z" id="Oval" fill="#182177" fill-rule="nonzero"></path>
                        <path d="M34.643135,37.7158389 C32.4519323,35.6684169 30.8694986,33.8849944 30.6540072,33.0053452 C30.6540072,33.0053452 30.5468633,31.9968585 30.9438352,31.6560056 C31.4081252,31.2580834 32.3960584,31.5288373 32.5209311,31.7003061 C35.3878644,35.6524272 42.0616165,44.4330366 49.8050086,47.6901619 C49.9537767,47.2547145 50.3173464,46.9076075 50.7965389,46.8164007 C51.5069772,46.6814146 52.1912077,47.1564718 52.3245594,47.8772661 C52.4576542,48.5977999 51.98951,49.2914928 51.2785578,49.4267394 C50.5676057,49.5622467 49.8838891,49.0869289 49.7505374,48.3666558 C49.7423153,48.3218341 49.7433431,48.2777943 49.739489,48.2334938 C47.9217261,47.9583113 44.0041459,45.4032978 40.1863465,42.4245527 C41.2140405,43.7677719 41.989115,45.1787965 42.2392715,46.5013148 C42.7626682,49.2702051 40.7953555,49.1655329 39.0175845,50.186864 C37.7177202,50.9327829 36.9870041,53.0762309 35.0782533,53.4304063 C32.9253203,53.8304406 31.4827115,52.3924935 29.8960509,51.9989364 C28.1514825,51.5670341 26.3465221,52.0504953 25.8717527,49.5409537 C25.0720172,45.3082074 28.9506951,38.3039799 31.064151,36.5017529 C32.1888526,39.0815077 31.8636251,42.2851503 31.198791,44.9506638 C32.8481965,43.343013 33.3501553,40.1655385 32.4850606,36.7271608 C34.4500204,39.2610568 34.907535,42.906188 34.8361627,46.0276991 C36.1112036,44.0742542 36.0242402,40.9288355 34.643135,37.7158389 Z M17.0166054,45.2485489 C15.893828,44.2454606 13.6015347,44.2190704 12.6672873,42.515205 C11.6135675,40.5936859 12.5520162,38.7743308 12.4383205,37.143365 C12.3141218,35.3506614 11.28771,33.7855404 13.5589973,32.5525178 C17.3899893,30.4726575 25.3452713,31.9766369 27.7386566,33.4241778 C25.6012834,35.2968358 22.4120285,35.9866387 19.6368569,36.1852183 C21.6980829,37.2520612 24.9164837,36.7386284 27.9621093,34.8448059 C26.1295875,37.5023761 22.7581044,39.0735067 19.7271832,39.9778278 C22.1528655,40.6200761 25.4006749,39.3747728 28.1897631,36.7412413 C27.3085562,40.1427011 24.704847,45.4599317 21.5678449,47.162752 C19.0620768,48.5230223 18.5524157,46.6205773 17.0166054,45.2485489 Z M14.8461058,22.2553185 C15.4427831,20.9057731 14.7761646,18.7644328 16.083526,17.3778924 C17.5579263,15.8138276 19.5372863,16.1336799 21.0237277,15.5327687 C22.6574811,14.8717406 23.8080513,13.440755 25.6429175,15.1802889 C28.7372366,18.1134242 29.7333215,25.9727984 29.1053884,28.6395186 C26.7143236,27.2198369 25.1097764,24.4616569 24.0878159,21.9395768 C23.7145403,24.1818825 25.1630649,27.020989 27.8477288,29.2789662 C24.8169459,28.3815815 22.3357006,25.7215409 20.5784614,23.176082 C20.710914,25.6282828 22.8514204,28.2718811 26.1478772,30.0669075 C22.7102572,30.2809131 16.9673976,29.4737036 14.4338886,27.0726278 C12.4091821,25.1535141 14.0296134,24.1017268 14.8461058,22.2553185 Z M35.6284742,13.6010087 C37.0923958,13.7531065 38.9164071,12.4537123 40.6351575,13.2733935 C42.5733937,14.1975616 42.8814934,16.1877014 43.9107972,17.4222417 C45.0415204,18.7785118 46.7536119,19.4345141 45.6718057,21.7255039 C43.8465137,25.5902303 36.7028533,28.9742142 33.9809222,29.1999161 C34.5879016,26.4765669 36.7074633,24.0895831 38.7824619,22.3323512 C36.5409921,22.6700032 34.2977296,24.9329411 32.985681,28.1967394 C32.9009088,25.023016 34.6557706,21.8294761 36.5261378,19.3624543 C34.2426661,20.2480188 32.3971415,23.11137 31.7133293,26.8165352 C30.4491732,23.5990611 29.4398459,17.8623217 30.9339883,14.6981205 C32.1277144,12.1701051 33.6259546,13.3928071 35.6284742,13.6010087 Z M50.6963475,30.4144895 C51.0080967,31.8530421 52.8241264,33.1893898 52.5769575,35.0762093 C52.2976282,37.2043245 50.4867857,38.1093113 49.6259741,39.467432 C48.6798335,40.9610574 48.5867238,42.7912671 46.0522705,42.4667219 C41.7770015,41.9193239 36.2980488,36.1648575 35.2300096,33.6450852 C38.0303056,33.3850904 40.9810296,34.6666214 43.3147393,36.1005632 C42.290013,34.0723476 39.4186528,32.633795 35.8794438,32.390194 C38.8950075,31.3327963 42.5052808,32.0197974 45.4552267,33.0405652 C43.8918124,31.1404258 40.5696867,30.2661772 36.804317,30.7549163 C39.4930887,28.562763 44.6755944,25.8380686 48.1756402,26.2863355 C50.9723052,26.6441806 50.2694431,28.4457013 50.6963475,30.4144895 Z M44.0408954,47.2154784 C44.5317758,47.1236485 45.0042021,47.4451946 45.0961889,47.93373 C45.1878918,48.4225479 44.8642344,48.8924348 44.373638,48.9842647 C43.8827576,49.0758121 43.4103313,48.7537009 43.3183445,48.2657306 C43.2269255,47.7771952 43.5497311,47.3067433 44.0408954,47.2154784 Z M49.5326786,46.2880576 C49.1645316,46.357067 48.8103803,46.1155339 48.7410105,45.7492993 C48.6725534,45.3827621 48.9150436,45.0304505 49.2831906,44.961441 C49.6510333,44.8930369 50.005793,45.1339647 50.0742501,45.500502 C50.14362,45.8670392 49.9011298,46.2190481 49.5326786,46.2880576 Z M48.62802,44.4880307 C48.2598318,44.5571614 47.9057536,44.3156014 47.8368015,43.9492882 C47.7675832,43.5827102 48.0103797,43.2299054 48.3785679,43.1615693 C48.7462236,43.0927035 49.1008343,43.3342636 49.1697864,43.7003118 C49.2392709,44.0668898 48.9967406,44.4194298 48.62802,44.4880307 Z" id="Combined-Shape" fill="#182177"></path>
                    </g>
                </g>
            </g>
        </g>
    </g>
</svg>