<?xml version="1.0" encoding="UTF-8"?>
<svg width="56px" height="56px" viewBox="0 0 56 56" version="1.1" xmlns="http://www.w3.org/2000/svg" xmlns:xlink="http://www.w3.org/1999/xlink">
    <title>Group 8</title>
    <g id="Unicorn-Quest" stroke="none" stroke-width="1" fill="none" fill-rule="evenodd">
        <g id="Unicorm-page-copy" transform="translate(-187.000000, -706.000000)">
            <g id="Group-15-Copy-2" transform="translate(164.000000, 632.000000)">
                <g id="Group-8" transform="translate(23.000000, 74.000000)">
                    <path d="M46.1361593,0.167939645 C46.4884692,-0.0770557148 46.962042,-0.0490588051 47.2839884,0.233275723 C47.6059348,0.517904003 47.6945886,0.984586862 47.4962881,1.36491953 L43.1849564,9.63437159 C44.7410624,12.2590445 45.3289702,15.3461115 44.8483798,18.360782 L51.7236663,25.2003965 C54.4556058,27.9347395 56,29.6730925 56,33.6000668 C56,36.5377412 53.6204301,41.0667058 50.4615859,41.0667058 L49.5144283,41.0667058 C47.4147235,41.0736946 45.492398,39.8860211 44.5592158,38.0053838 C44.3842254,37.6577192 44.006312,37.4593933 43.6213751,37.510722 C40.8614252,37.9003909 38.0525616,37.7930505 35.332328,37.1933898 C34.2358314,42.4343731 34.1681645,47.8334102 35.1270279,53.0997221 L35.4559739,54.8987006 C35.5049712,55.171669 35.4303046,55.4516679 35.253009,55.6640012 C35.0757133,55.8763345 34.8144223,56 34.5368028,56 L12.1404294,56 C11.6248469,56 11.2072471,55.5823341 11.2072471,55.0666701 C11.2072471,54.5510061 11.6248469,54.1333402 12.1404294,54.1333402 L33.4169841,54.1333402 L33.291003,53.4333279 C32.4488158,48.7992348 32.3671735,44.0580385 33.0507109,39.3960483 C30.5567702,38.5910252 28.4594543,36.8736982 27.1786804,34.5870549 C25.8978825,32.3002922 25.5246335,29.6146317 26.1381747,27.0666561 C26.1381747,26.5509921 26.5557745,26.1333262 27.0713569,26.1333262 C27.5869394,26.1333262 28.0045392,26.5509921 28.0045392,27.0666561 C27.9998807,30.5665983 30.2418473,33.6769015 33.563976,34.7805902 C36.7161909,35.8259436 40.0685398,36.1292743 43.3556705,35.6626093 C44.5384976,35.4922505 45.6979609,36.1012296 46.2298717,37.1699147 C46.8481311,38.4182173 48.1219174,39.2045499 49.5146732,39.1998848 L50.4618307,39.1998848 C52.2348471,39.1998848 54.1338804,35.9145636 54.1338804,33.5999055 C54.1338804,30.3890715 52.9907098,29.1103648 50.40581,26.5227264 L39.7463307,15.9081523 C39.3403889,16.3188234 38.8201481,16.5894921 38.2532391,16.6874902 C37.434368,16.8251751 36.5991923,16.5941572 35.9692868,16.0528259 L33.0274186,13.5328054 C32.577156,13.1431663 32.2645384,12.6204777 32.1338929,12.0394776 C32.010247,12.1001425 31.8749371,12.1328106 31.737292,12.1328106 C31.4899823,12.1328106 31.2520193,12.0348303 31.0770469,11.8598123 C30.9020745,11.6847943 30.8040918,11.4467937 30.8040918,11.1994628 C30.8040918,9.65249462 29.5512686,8.39947312 28.0045451,8.39947312 L25.2049985,8.39947312 L25.2049985,11.1994628 C25.2049985,12.7464309 26.4578217,13.9994524 28.0045451,13.9994524 C28.5201276,13.9994524 28.9377274,14.4171183 28.9377274,14.9327823 C28.9377274,15.4484463 28.5201276,15.8661122 28.0045451,15.8661122 C27.652295,15.8637826 27.2999911,15.8194486 26.9593811,15.7377815 C27.8272316,18.2856974 27.7759289,21.0600616 26.8124071,23.5753632 C25.8512742,26.0906648 24.0362124,28.1907018 21.6892516,29.506682 L22.4427791,32.0267026 C23.5625977,35.7368456 21.8129333,39.7104715 18.3228019,41.3904653 C17.282356,43.877752 15.3996273,45.9194298 13.0036931,47.1537549 C10.7057057,48.3484171 8.98632123,50.4181097 8.23278778,52.8960763 L7.42789198,55.3600672 C7.31119194,55.7147266 6.9962631,55.9667239 6.6253254,55.9993907 L6.54134199,55.9993907 C6.19839677,55.9993907 5.88344404,55.8103952 5.72247085,55.509394 C5.2559096,54.641408 4.77530731,53.7827445 4.29471697,52.9217514 C3.13291496,50.8476983 1.93139431,48.7010097 0.942251014,46.461018 C-0.0795850171,43.9666827 -0.27558016,41.211015 0.380006483,38.5953618 C1.09388342,35.5878593 2.63128994,32.84151 4.81962227,30.6622071 C3.11887332,30.0042469 1.57214991,28.9962506 0.279670133,27.705896 C-0.0212774026,27.4001819 -0.0749391134,26.9265461 0.151359816,26.5602149 C0.377652773,26.1938836 0.823256992,26.0305494 1.23152198,26.1635512 C1.31549345,26.1845772 3.62978537,26.7958859 6.56932252,23.4569244 C7.8337919,22.0288849 9.25222889,20.7432491 10.7966231,19.6255828 C9.75850638,19.0142144 8.79964297,18.2815878 7.94111533,17.4392315 C7.65416702,17.1476144 7.59117647,16.7042573 7.78247733,16.3425912 C7.97610145,15.9832548 8.3797259,15.7895881 8.78099725,15.86659 C8.78099725,15.86659 8.80814051,15.8699346 8.86129053,15.8714364 L8.93748106,15.8720221 C9.48340561,15.8660846 11.4285662,15.6456155 14.3124237,13.1085928 C16.8829301,10.9969675 20.025649,9.70429517 23.3384608,9.39862889 L23.3384608,7.46662111 C23.340796,7.11895648 23.5390965,6.79928875 23.851714,6.64529082 C22.797233,4.93734194 22.17198,3.00067497 22.0273353,0.998659984 C21.9993189,0.592659993 22.239635,0.214662885 22.6199075,0.0653301049 C23.002557,-0.0816730844 23.4341321,0.0373272218 23.6884236,0.356994945 L23.7108348,0.379830311 C23.9077916,0.572692433 25.4381306,1.92079289 29.684082,1.86662989 C33.0739971,1.95993301 36.3561707,3.06828091 39.1090732,5.04694025 Z M36.4034539,19.600244 C38.4657717,19.600244 40.1361828,21.2709195 40.1361828,23.3335636 C40.1361828,23.8492276 39.7185831,24.2668934 39.2030006,24.2668934 C38.6874182,24.2668934 38.2698184,23.8492276 38.2698184,23.3335636 C38.2698184,22.3022116 37.4346427,21.4669038 36.4034539,21.4669038 C35.3722652,21.4669038 34.5370895,22.3022116 34.5370895,23.3335636 C34.5370895,23.8492276 34.1194897,24.2668934 33.6039073,24.2668934 C33.0883248,24.2668934 32.670725,23.8492276 32.670725,23.3335636 C32.670725,21.2709195 34.3411362,19.600244 36.4034539,19.600244 Z M33.9488831,11.5334963 C33.9698819,11.759831 34.0748642,11.9674932 34.242837,12.1191615 L37.1823699,14.6391821 C37.3923106,14.8211829 37.6722652,14.8981789 37.9452203,14.8515154 C38.2158163,14.8071815 38.4561084,14.6438532 38.5960888,14.4058526 L39.2960023,13.0525093 C37.4086748,13.0431312 35.5609442,12.5181369 33.9488831,11.5334963 Z M37.6769117,8.31123537 L34.4947753,10.5208827 C35.9715026,11.6175348 37.7772475,12.186869 39.6179308,12.1331988 C39.6762569,12.1331988 39.7299126,12.1238685 39.7859036,12.1238685 L41.2789653,9.25388361 C40.0331894,9.15359172 38.813035,8.8339001 37.6769117,8.31123537 Z M42.166,5.20231192 L38.6660849,7.62990755 C39.6389236,8.05456219 40.6864767,8.30189311 41.7502746,8.36022847 L43.2713765,5.44125047 C42.9004328,5.38057955 42.5318065,5.301248 42.1655332,5.20324986 L42.166,5.20231192 Z M44.0925171,3.8593743 L43.2269899,4.45902904 C43.3949687,4.49403265 43.5676059,4.51036368 43.7402431,4.536031 L44.0925171,3.8593743 Z" id="Combined-Shape" fill="#19297B"></path>
                    <path d="M51.3337723,35.4665533 C51.5810641,35.4665533 51.8190271,35.3685552 51.9940174,35.1935551 C52.1690078,35.018555 52.2669725,34.7805544 52.2669725,34.5332055 L52.2669725,32.6665458 C52.2669725,32.1508817 51.8493727,31.7332159 51.3337902,31.7332159 C50.8182078,31.7332159 50.400608,32.1508817 50.400608,32.6665458 L50.400608,34.5332055 C50.400608,34.7805364 50.4985907,35.0185371 50.6735631,35.1935551 C50.8485355,35.3685731 51.0864985,35.4665533 51.3338082,35.4665533 L51.3337723,35.4665533 Z M13.0738983,4.66636865 C13.5894807,4.66636865 14.0070805,5.08403452 14.0070805,5.59969853 L14.0070805,6.53302841 C14.0070805,7.04869242 13.5894807,7.46635828 13.0738983,7.46635828 C12.5583158,7.46635828 12.140716,7.04869242 12.140716,6.53302841 L12.140716,5.59969853 C12.140716,5.08403452 12.5583158,4.66636865 13.0738983,4.66636865 Z M11.2072352,2.80000756 C11.7228176,2.80000756 12.1404174,3.21767342 12.1404174,3.73333744 C12.1404174,4.24900145 11.7228176,4.66666731 11.2072352,4.66666731 L10.274053,4.66666731 C9.75847054,4.66666731 9.34087075,4.24900145 9.34087075,3.73333744 C9.34087075,3.21767342 9.75847054,2.80000756 10.274053,2.80000756 L11.2072352,2.80000756 Z M15.8731463,2.80030622 C16.3887288,2.80030622 16.8063286,3.21797209 16.8063286,3.7336361 C16.8063286,4.24930011 16.3887288,4.66696598 15.8731463,4.66696598 L14.9399641,4.66696598 C14.4243817,4.66696598 14.0067819,4.24930011 14.0067819,3.7336361 C14.0067819,3.21797209 14.4243817,2.80030622 14.9399641,2.80030622 L15.8731463,2.80030622 Z M13.0735997,0 C13.3208915,0 13.5588544,0.097980224 13.7338268,0.272998243 C13.9087992,0.448016262 14.0067819,0.686016874 14.0067819,0.933347799 L14.0067819,1.86667768 C14.0067819,2.38234169 13.5891821,2.80000756 13.0735997,2.80000756 C12.5580172,2.80000756 12.1404174,2.38234169 12.1404174,1.86667768 L12.1404174,0.933347799 C12.1404174,0.417683787 12.5580172,0 13.0735997,0 Z M41.0690665,40.1328861 C40.553484,40.1328861 40.1358842,40.5505699 40.1358842,41.0662339 L40.1358842,41.9995638 C40.1358842,42.5152278 40.553484,42.9328937 41.0690665,42.9328937 C41.5846489,42.9328937 42.0022487,42.5152278 42.0022487,41.9995638 L42.0022487,41.0662339 C42.0022487,40.818903 41.904266,40.5809024 41.7292936,40.4058844 C41.5543212,40.2308663 41.3163583,40.1328861 41.0690485,40.1328861 L41.0690665,40.1328861 Z M41.0687678,44.7998521 C41.5843503,44.7998521 42.0019501,45.217518 42.0019501,45.733182 L42.0019501,46.6665119 C42.0019501,47.1821759 41.5843503,47.5998417 41.0687678,47.5998417 C40.5531854,47.5998417 40.1355856,47.1821759 40.1355856,46.6665119 L40.1355856,45.733182 C40.1355856,45.217518 40.5531854,44.7998521 41.0687678,44.7998521 Z M39.202702,42.9331923 C39.7182844,42.9331923 40.1358842,43.3508582 40.1358842,43.8665222 C40.1358842,44.3821862 39.7182844,44.7998521 39.202702,44.7998521 L38.2695198,44.7998521 C37.7539373,44.7998521 37.3363375,44.3821862 37.3363375,43.8665222 C37.3363375,43.3508582 37.7539373,42.9331923 38.2695198,42.9331923 Z M42.9354309,44.7998521 L43.8686131,44.7998521 C44.3841956,44.7998521 44.8017954,44.3821862 44.8017954,43.8665222 C44.8017954,43.3508582 44.3841956,42.9331923 43.8686131,42.9331923 L42.9354309,42.9331923 C42.4198485,42.9331923 42.0022487,43.3508582 42.0022487,43.8665222 C42.0022487,44.3821862 42.4198485,44.7998521 42.9354309,44.7998521 Z" id="Combined-Shape" fill="#38D7D7"></path>
                </g>
            </g>
        </g>
    </g>
</svg>